<?xml version="1.0" encoding="UTF-8" standalone="no"?>
<!-- Created with Inkscape (http://www.inkscape.org/) -->

<svg
   width="123.61826mm"
   height="38.651985mm"
   viewBox="0 0 123.61826 38.651985"
   version="1.1"
   id="svg2189"
   inkscape:version="1.1.1 (3bf5ae0d25, 2021-09-20)"
   sodipodi:docname="7z_zip_rar.svg"
   xmlns:inkscape="http://www.inkscape.org/namespaces/inkscape"
   xmlns:sodipodi="http://sodipodi.sourceforge.net/DTD/sodipodi-0.dtd"
   xmlns="http://www.w3.org/2000/svg"
   xmlns:svg="http://www.w3.org/2000/svg">
  <sodipodi:namedview
     id="namedview2191"
     pagecolor="#ffffff"
     bordercolor="#666666"
     borderopacity="1.0"
     inkscape:pageshadow="2"
     inkscape:pageopacity="0.0"
     inkscape:pagecheckerboard="0"
     inkscape:document-units="mm"
     showgrid="false"
     lock-margins="true"
     fit-margin-top="2"
     fit-margin-left="2"
     fit-margin-right="2"
     fit-margin-bottom="2"
     inkscape:zoom="1.0482005"
     inkscape:cx="323.88842"
     inkscape:cy="81.568364"
     inkscape:window-width="1920"
     inkscape:window-height="1017"
     inkscape:window-x="1672"
     inkscape:window-y="-8"
     inkscape:window-maximized="1"
     inkscape:current-layer="layer1" />
  <defs
     id="defs2186" />
  <g
     inkscape:label="Calque 1"
     inkscape:groupmode="layer"
     id="layer1"
     transform="translate(-27.617023,-164.87903)">
    <g
       id="g5130"
       transform="translate(0,0.55219)">
      <path
         style="fill:#f2f2f2;stroke:none;stroke-width:0.264583px;stroke-linecap:butt;stroke-linejoin:miter;stroke-opacity:1"
         d="m 32.800448,167.21161 h 16.509915 l 6.871695,7.40715 0.08924,25.25571 -23.738583,0.0892 z"
         id="path2514" />
      <path
         style="fill:#000000;stroke-width:0.0676811"
         d="m 33.238171,200.87217 c -0.130286,-0.0564 -0.336702,-0.19899 -0.458702,-0.31699 -0.4109,-0.39743 -0.421152,-0.5033 -0.421152,-4.34912 v -3.46335 l -0.648832,-0.0387 c -1.012442,-0.0604 -1.587522,-0.41317 -1.949739,-1.196 -0.141166,-0.30509 -0.142513,-0.35951 -0.142513,-5.75633 0,-6.1364 -0.02663,-5.80845 0.519705,-6.40115 0.372016,-0.40359 0.829339,-0.58214 1.595329,-0.62285 l 0.62605,-0.0333 v -5.52834 c 0,-6.11188 -0.0074,-5.9995 0.421152,-6.41426 0.46804,-0.45299 -0.142458,-0.42459 9.126184,-0.42459 7.630032,0 8.417594,0.0101 8.580751,0.10979 0.252973,0.15461 6.934215,7.81782 6.989989,8.01733 0.02519,0.0901 0.04883,1.08097 0.05254,2.20194 l 0.0067,2.03813 0.62605,0.0333 c 0.765989,0.0407 1.223312,0.21926 1.595328,0.62285 0.54633,0.5927 0.519704,0.26475 0.519704,6.40115 v 5.44833 l -0.188836,0.38453 c -0.36239,0.73796 -0.913715,1.06042 -1.915176,1.12017 l -0.637072,0.038 v 3.46335 c 0,3.84573 -0.01025,3.95157 -0.421152,4.34926 -0.47256,0.45737 0.465829,0.42487 -12.182275,0.42194 -10.076732,-0.002 -11.485739,-0.015 -11.694081,-0.10509 z m 22.927616,-4.88374 0.01757,-3.26561 h -11.23571 -11.23571 v 3.23741 c 0,1.78058 0.0204,3.25781 0.04532,3.28274 0.02493,0.0249 5.073088,0.0376 11.218139,0.0282 l 11.172819,-0.0171 z m -13.503026,-9.53401 1.945832,-4.03273 v -0.67001 -0.67 h -3.350214 -3.350214 v 0.91369 0.9137 h 2.171565 2.171564 l -0.995614,1.94583 c -0.547588,1.0702 -1.420782,2.77577 -1.940432,3.79014 l -0.944818,1.84431 1.17325,-0.001 1.17325,-0.001 z m 10.338286,3.15597 v -0.87895 l -2.272449,-0.0178 -2.272448,-0.0178 2.23839,-3.24869 2.23839,-3.2487 2.03e-4,-0.62666 2.03e-4,-0.62667 -3.468656,0.0175 -3.468655,0.0175 v 0.87986 0.87985 l 2.047353,0.0179 c 1.126044,0.01 2.047352,0.0318 2.047352,0.0487 0,0.0169 -1.020292,1.49862 -2.267316,3.29269 l -2.267316,3.26195 v 0.56413 0.56414 h 3.722459 3.72246 v -0.87896 z m 3.181011,-12.58763 v -1.69008 l -3.145682,-0.0189 -3.14568,-0.0189 -0.187613,-0.18762 -0.187612,-0.18762 -0.01864,-3.61944 -0.01864,-3.61944 h -7.883128 -7.883128 v 5.51601 5.51601 h 11.23506 11.23506 z"
         id="path3813" />
    </g>
    <g
       id="g5134"
       transform="translate(-1.2202493,-0.42238)">
      <path
         style="fill:#f2f2f2;stroke:none;stroke-width:0.264583px;stroke-linecap:butt;stroke-linejoin:miter;stroke-opacity:1"
         d="m 79.044646,168.2521 h 16.50992 l 6.871694,7.40715 0.14851,4.73633 1.97853,2.02283 0.0112,9.0572 -1.94509,1.4216 -0.1039,8.01775 -23.738584,0.0892 z"
         id="path2686"
         sodipodi:nodetypes="cccccccccc" />
      <path
         style="fill:#000000;stroke-width:0.0676811"
         d="m 78.937339,201.84674 c -0.130286,-0.0564 -0.336702,-0.19899 -0.458702,-0.31699 -0.4109,-0.39743 -0.421152,-0.5033 -0.421152,-4.34912 v -3.46335 l -0.648832,-0.0387 c -1.012442,-0.0604 -1.587522,-0.41317 -1.949739,-1.196 -0.141166,-0.30509 -0.142513,-0.35951 -0.142513,-5.75633 0,-6.1364 -0.02663,-5.80845 0.519705,-6.40115 0.372016,-0.40359 0.829339,-0.58214 1.595329,-0.62285 l 0.62605,-0.0333 v -5.52834 c 0,-6.11188 -0.0074,-5.9995 0.421152,-6.41426 0.46804,-0.45299 -0.142458,-0.42459 9.126184,-0.42459 7.630032,0 8.417594,0.0101 8.580751,0.10979 0.252973,0.15461 6.934218,7.81782 6.989988,8.01733 0.0252,0.0901 0.0488,1.08097 0.0525,2.20194 l 0.007,2.03813 0.62605,0.0333 c 0.76599,0.0407 1.22331,0.21926 1.59533,0.62285 0.54633,0.5927 0.5197,0.26475 0.5197,6.40115 v 5.44833 l -0.18884,0.38453 c -0.36238,0.73796 -0.91371,1.06042 -1.91517,1.12017 l -0.63707,0.038 v 3.46335 c 0,3.84573 -0.0102,3.95157 -0.42116,4.34926 -0.47255,0.45737 0.46583,0.42487 -12.18227,0.42194 -10.076732,-0.002 -11.485739,-0.015 -11.694081,-0.10509 z m 22.927621,-4.88374 0.0176,-3.26561 H 90.646816 79.411106 v 3.23741 c 0,1.78058 0.02039,3.25781 0.04532,3.28274 0.02493,0.0249 5.073088,0.0376 11.218139,0.0282 l 11.172825,-0.0171 z m -11.842934,-6.32818 0.01883,-0.93061 h -2.411829 c -2.19632,0 -2.408067,-0.01 -2.369719,-0.10974 0.02316,-0.0604 1.077169,-1.61284 2.342239,-3.44995 l 2.300127,-3.34021 v -0.6786 -0.67859 h -3.654778 -3.654779 v 0.94753 0.94754 h 2.165795 c 1.191187,0 2.165794,0.0179 2.165794,0.0398 0,0.0219 -1.081205,1.59626 -2.402678,3.49861 l -2.402678,3.45883 v 0.63048 0.63048 l 3.942423,-0.0175 3.942423,-0.0175 z m 3.73747,-4.11162 v -5.07608 h -1.150579 -1.150578 v 5.07608 5.07608 h 1.150578 1.150579 z m 4.263986,3.26561 6.8e-5,-1.81047 0.896696,-0.0123 c 2.520544,-0.0345 3.896374,-1.09581 4.082454,-3.14925 0.0854,-0.9425 -0.21263,-1.79579 -0.84622,-2.4228 -0.75851,-0.75064 -1.68722,-1.01261 -3.591627,-1.01315 -1.057375,-2.7e-4 -1.977291,0.0593 -2.622642,0.17001 l -0.219964,0.0377 v 5.00534 5.00533 h 1.150579 1.150578 l 6.8e-5,-1.81047 z m 0.150922,-3.58427 -0.153564,-0.0295 0.0182,-1.50103 0.0182,-1.50103 0.439928,-0.0456 c 1.371129,-0.14229 2.233482,0.41598 2.233482,1.44593 0,0.64704 -0.28183,1.13451 -0.814327,1.40853 -0.412588,0.21231 -1.243281,0.31854 -1.741923,0.22275 z m 3.706826,-8.20721 v -1.69008 l -3.145686,-0.0189 -3.14568,-0.0189 -0.187613,-0.18762 -0.187612,-0.18762 -0.01864,-3.61944 -0.01864,-3.61944 h -7.883128 -7.883128 v 5.51601 5.51601 h 11.23506 11.235067 z"
         id="path4064" />
    </g>
    <g
       id="g5138">
      <path
         id="path4453"
         style="fill:#f2f2f2;stroke:none;stroke-width:0.264583px;stroke-linecap:butt;stroke-linejoin:miter;stroke-opacity:1"
         d="m 122.33748,167.82901 -0.0589,7.20525 -0.18758,0.20205 -0.14832,4.73614 -2.1769,0.55763 0.18732,10.52232 1.9451,1.42162 0.10387,8.0176 h 0.0682 l -5.2e-4,0.0894 11.83545,-0.0445 11.83546,0.0445 -5.2e-4,-0.0894 h 0.0682 l 0.10387,-8.0176 1.9451,-1.42162 -0.0114,-9.05733 -1.97869,-2.02262 -0.14831,-4.73614 -0.18758,-0.20205 c -1.55577,-1.88883 -2.40824,-3.419 -6.68433,-7.20525 h -9.88415 z"
         sodipodi:nodetypes="ccccccccccccccccccccccc" />
      <path
         style="fill:#000000;stroke-width:0.0676811"
         d="m 122.19627,201.42436 c -0.13029,-0.0564 -0.3367,-0.19899 -0.4587,-0.31699 -0.4109,-0.39743 -0.42115,-0.5033 -0.42115,-4.34912 v -3.46335 l -0.64884,-0.0387 c -1.01244,-0.0604 -1.58752,-0.41317 -1.94974,-1.196 -0.14116,-0.30509 -0.14251,-0.35951 -0.14251,-5.75633 0,-6.1364 -0.0266,-5.80845 0.51971,-6.40115 0.37201,-0.40359 0.82934,-0.58214 1.59533,-0.62285 l 0.62605,-0.0333 v -5.52834 c 0,-6.11188 -0.007,-5.9995 0.42115,-6.41426 0.46804,-0.45299 -0.14246,-0.42459 9.12618,-0.42459 7.63003,0 8.4176,0.0101 8.58075,0.10979 0.25298,0.15461 6.93422,7.81782 6.98999,8.01733 0.0252,0.0901 0.0488,1.08097 0.0525,2.20194 l 0.007,2.03813 0.62605,0.0333 c 0.76599,0.0407 1.22331,0.21926 1.59533,0.62285 0.54633,0.5927 0.5197,0.26475 0.5197,6.40115 v 5.44833 l -0.18883,0.38453 c -0.36239,0.73796 -0.91372,1.06042 -1.91518,1.12017 l -0.63707,0.038 v 3.46335 c 0,3.84573 -0.0102,3.95157 -0.42115,4.34926 -0.47256,0.45737 0.46582,0.42487 -12.18228,0.42194 -10.07673,-0.002 -11.48574,-0.015 -11.69408,-0.10509 z m 22.92762,-4.88374 0.0176,-3.26561 h -11.23571 -11.23571 v 3.23741 c 0,1.78058 0.0204,3.25781 0.0453,3.28274 0.0249,0.0249 5.07309,0.0376 11.21814,0.0282 l 11.17282,-0.0171 z m -22.58921,-7.43722 v -2.00581 l 0.62641,0.0328 c 0.69507,0.0364 0.94941,0.13261 1.22926,0.46519 0.25115,0.29848 0.32919,0.51097 0.67522,1.83864 0.16735,0.64209 0.35204,1.28164 0.41042,1.42123 l 0.10615,0.25381 h 1.18296 1.18297 l -0.099,-0.25381 c -0.0545,-0.13959 -0.26845,-0.87816 -0.4755,-1.64126 -0.20993,-0.77371 -0.47276,-1.57755 -0.59415,-1.81717 -0.20033,-0.39546 -0.57764,-0.81479 -0.89878,-0.99888 -0.11814,-0.0677 -0.0973,-0.0919 0.21588,-0.25063 1.05824,-0.53625 1.62099,-1.74646 1.38209,-2.9722 -0.35001,-1.79581 -2.02132,-2.46558 -5.55302,-2.22533 -0.61421,0.0418 -1.23095,0.0949 -1.37055,0.11808 l -0.2538,0.0421 v 4.99954 4.99955 h 1.11674 1.11674 z m 0.0508,-3.64879 c -0.0279,-0.0292 -0.0508,-0.66851 -0.0508,-1.42061 v -1.36744 l 0.53568,-0.0467 c 1.41676,-0.12358 2.17391,0.35206 2.17007,1.36326 -0.003,0.70011 -0.29339,1.10912 -0.95408,1.34223 -0.32109,0.11329 -1.62179,0.21216 -1.70091,0.12929 z m 8.50136,5.29928 c 0.0559,-0.19543 0.2161,-0.7741 0.35607,-1.28594 l 0.25448,-0.93061 h 1.46126 1.46125 l 0.37738,1.26902 0.37738,1.26902 1.23572,0.0185 1.23572,0.0185 -0.0421,-0.16778 c -0.0363,-0.14463 -2.03246,-6.59743 -2.82266,-9.12456 l -0.26983,-0.86293 h -1.50324 -1.50324 l -1.51549,4.95763 c -0.83353,2.72671 -1.52985,5.01094 -1.5474,5.07609 -0.0295,0.10951 0.0576,0.11844 1.15562,0.11844 h 1.18751 z m 0.99091,-4.03064 c 0,-0.0299 0.148,-0.58573 0.32889,-1.23518 0.18089,-0.64944 0.41217,-1.54089 0.51394,-1.981 0.10177,-0.44012 0.19419,-0.79037 0.20536,-0.77834 0.0112,0.012 0.132,0.44784 0.26851,0.96846 0.1365,0.52062 0.38339,1.40194 0.54864,1.95849 0.16525,0.55655 0.30045,1.03667 0.30045,1.06693 0,0.0303 -0.4873,0.055 -1.08289,0.055 -0.5956,0 -1.0829,-0.0245 -1.0829,-0.0544 z m 9.40767,2.38015 v -2.00581 l 0.62642,0.0328 c 0.65761,0.0344 0.92458,0.12571 1.17613,0.40226 0.2455,0.2699 0.35027,0.54634 0.69604,1.8365 0.1839,0.68618 0.38067,1.35841 0.43726,1.49385 l 0.10289,0.24626 h 1.18442 1.18442 l -0.0919,-0.21997 c -0.0506,-0.12099 -0.24547,-0.78589 -0.43315,-1.47757 -0.52176,-1.92285 -0.74899,-2.42464 -1.27139,-2.80757 -0.1435,-0.10519 -0.2858,-0.21173 -0.3162,-0.23674 -0.0304,-0.025 0.10665,-0.13701 0.30456,-0.24887 0.96214,-0.54379 1.48402,-1.53106 1.37801,-2.60688 -0.064,-0.64946 -0.25665,-1.12974 -0.61147,-1.52439 -0.80363,-0.89383 -2.21142,-1.1983 -4.81096,-1.04049 -0.74174,0.045 -1.45522,0.10509 -1.5855,0.13346 l -0.23689,0.0516 -0.0174,4.98871 -0.0174,4.98871 h 1.15101 1.15102 z m 0,-5.01487 v -1.42344 l 0.55837,-0.0449 c 1.37284,-0.11047 2.14887,0.38122 2.14887,1.36152 0,0.44671 -0.11683,0.73272 -0.41519,1.01644 -0.32185,0.30606 -0.72597,0.42856 -1.56448,0.47422 l -0.72757,0.0396 z m 3.65478,-6.51358 v -1.69008 l -3.14568,-0.0189 -3.14569,-0.0189 -0.18761,-0.18762 -0.18761,-0.18762 -0.0186,-3.61944 -0.0186,-3.61944 h -7.88312 -7.88313 v 5.51601 5.51601 h 11.23506 11.23506 z"
         id="path4182" />
    </g>
  </g>
</svg>
