<?xml version="1.0" encoding="UTF-8" standalone="no"?>
<!-- Created with Inkscape (http://www.inkscape.org/) -->

<svg
   width="200.23705mm"
   height="53.627754mm"
   viewBox="0 0 200.23705 53.627754"
   version="1.1"
   id="svg5"
   inkscape:version="1.1.1 (3bf5ae0d25, 2021-09-20)"
   sodipodi:docname="CompParImg.svg"
   xmlns:inkscape="http://www.inkscape.org/namespaces/inkscape"
   xmlns:sodipodi="http://sodipodi.sourceforge.net/DTD/sodipodi-0.dtd"
   xmlns="http://www.w3.org/2000/svg"
   xmlns:svg="http://www.w3.org/2000/svg">
  <sodipodi:namedview
     id="namedview7"
     pagecolor="#ffffff"
     bordercolor="#666666"
     borderopacity="1.0"
     inkscape:pageshadow="2"
     inkscape:pageopacity="0.0"
     inkscape:pagecheckerboard="0"
     inkscape:document-units="mm"
     showgrid="false"
     showguides="true"
     inkscape:guide-bbox="true"
     fit-margin-top="1"
     fit-margin-left="1"
     fit-margin-right="1"
     fit-margin-bottom="1"
     lock-margins="true"
     inkscape:zoom="0.74118967"
     inkscape:cx="468.84085"
     inkscape:cy="213.8454"
     inkscape:window-width="1920"
     inkscape:window-height="1017"
     inkscape:window-x="1912"
     inkscape:window-y="-8"
     inkscape:window-maximized="1"
     inkscape:current-layer="layer1">
    <sodipodi:guide
       position="61.654659,2.9683727"
       orientation="0,-1"
       id="guide992" />
    <sodipodi:guide
       position="101.15533,11.591302"
       orientation="0,-1"
       id="guide2027" />
    <sodipodi:guide
       position="1.3265335,-2.8323973"
       orientation="1,0"
       id="guide2116" />
    <sodipodi:guide
       position="66.295282,-9.4363674"
       orientation="1,0"
       id="guide2182" />
    <sodipodi:guide
       position="135.90466,-5.1527173"
       orientation="1,0"
       id="guide2184" />
  </sodipodi:namedview>
  <defs
     id="defs2">
    <clipPath
       id="clipPath3565"
       clipPathUnits="userSpaceOnUse">
      <path
         id="path3567"
         d="M 0,576 H 788 V 0 H 0 Z" />
    </clipPath>
    <clipPath
       id="clipPath3485"
       clipPathUnits="userSpaceOnUse">
      <path
         id="path3487"
         d="M 0,576 H 788 V 0 H 0 Z" />
    </clipPath>
    <clipPath
       id="clipPath3409"
       clipPathUnits="userSpaceOnUse">
      <path
         id="path3411"
         d="M 0,576 H 788 V 0 H 0 Z" />
    </clipPath>
    <clipPath
       id="clipPath3329"
       clipPathUnits="userSpaceOnUse">
      <path
         id="path3331"
         d="M 0,576 H 788 V 0 H 0 Z" />
    </clipPath>
    <clipPath
       id="clipPath3249"
       clipPathUnits="userSpaceOnUse">
      <path
         id="path3251"
         d="M 0,576 H 788 V 0 H 0 Z" />
    </clipPath>
    <clipPath
       id="clipPath3169"
       clipPathUnits="userSpaceOnUse">
      <path
         id="path3171"
         d="M 0,576 H 788 V 0 H 0 Z" />
    </clipPath>
    <clipPath
       id="clipPath3089"
       clipPathUnits="userSpaceOnUse">
      <path
         id="path3091"
         d="M 0,576 H 788 V 0 H 0 Z" />
    </clipPath>
    <clipPath
       id="clipPath3013"
       clipPathUnits="userSpaceOnUse">
      <path
         id="path3015"
         d="M 0,576 H 788 V 0 H 0 Z" />
    </clipPath>
    <clipPath
       id="clipPath2933"
       clipPathUnits="userSpaceOnUse">
      <path
         id="path2935"
         d="M 0,576 H 788 V 0 H 0 Z" />
    </clipPath>
    <clipPath
       id="clipPath2853"
       clipPathUnits="userSpaceOnUse">
      <path
         id="path2855"
         d="M 0,576 H 788 V 0 H 0 Z" />
    </clipPath>
    <clipPath
       id="cp1"
       viewBox="0 0 250 330">
      <rect
         id="cp"
         x="0"
         width="250"
         height="330"
         y="0" />
    </clipPath>
    <filter
       inkscape:collect="always"
       style="color-interpolation-filters:sRGB"
       id="filter5623"
       x="-0.014194053"
       y="-0.017634976"
       width="1.0283881"
       height="1.03527">
      <feGaussianBlur
         inkscape:collect="always"
         stdDeviation="0.36306176"
         id="feGaussianBlur5625" />
    </filter>
  </defs>
  <g
     inkscape:label="Calque 1"
     inkscape:groupmode="layer"
     id="layer1"
     transform="translate(-2.0646923,-84.007988)">
    <g
       id="g5805">
      <rect
         style="opacity:0.578595;mix-blend-mode:normal;fill:#000000;fill-opacity:1;stroke:none;stroke-width:0.575683;stroke-linecap:round;stroke-linejoin:round;stroke-miterlimit:4;stroke-dasharray:none;stroke-opacity:1;paint-order:stroke fill markers;filter:url(#filter5623)"
         id="rect5111"
         width="61.38826"
         height="49.410229"
         x="4.4108672"
         y="86.354164"
         rx="0"
         ry="0" />
      <rect
         style="fill:#f2f2f2;stroke:#000000;stroke-width:0.575683;stroke-linecap:round;stroke-linejoin:round;stroke-miterlimit:4;stroke-dasharray:none;stroke-opacity:1;paint-order:stroke fill markers"
         id="rect1086"
         width="61.38826"
         height="49.410229"
         x="3.3525338"
         y="85.29583"
         rx="0"
         ry="0" />
      <path
         id="path3176"
         sodipodi:nodetypes="cccccccccccc"
         style="fill:#c8b7b7;fill-opacity:1;stroke:#000000;stroke-width:0.276;stroke-linecap:round;stroke-linejoin:round;stroke-miterlimit:4;stroke-dasharray:none"
         d="m 23.39209,90.807578 -8.674787,8.99253 v -4.668174 l -4.839569,-0.346239 0.334005,8.820625 -6.0050826,5.53256 5.0054034,0.17433 v 20.06249 l 27.1922102,-0.52057 -0.165835,-19.54192 4.269658,-0.34624 z" />
      <g
         transform="matrix(-0.05943313,0,0,0.06161007,66.99834,110.94998)"
         id="g844"
         style="fill:#000000">
        <path
           d="m 123,34 c -19,0 -36,14 -37,33 -1,6 -1,13 0,16 2,6 12,19 20,22 9,5 7,9 -9,18 -8,5 -18,11 -22,14 -7,5 -7,5 -9,22 0,9 -2,22 -4,30 -2,7 -2,14 -2,15 1,1 5,3 9,3 4,1 8,3 9,4 2,4 11,-2 11,-7 0,-3 1,-6 2,-7 3,-2 -2,-17 -6,-17 -1,0 -2,-6 -2,-14 v -14 l 11,-5 c 15,-7 15,-6 15,5 0,11 -3,25 -10,39 -3,7 -4,12 -3,20 2,18 -11,31 -35,34 -4,1 -8,3 -9,5 -2,4 3,36 5,39 6,7 32,6 32,-1 0,-2 -2,-5 -4,-7 -13,-11 -15,-16 -6,-17 10,-2 19,-10 26,-22 l 6,-12 7,8 c 13,14 21,37 21,56 v 9 l 7,-2 c 23,-4 53,-29 40,-34 -3,-1 -16,1 -23,4 -2,1 -4,-2 -9,-12 -3,-8 -9,-19 -14,-26 l -8,-13 7,-14 c 5,-10 7,-17 8,-26 0,-6 1,-12 2,-12 0,0 3,2 7,4 l 7,4 8,-7 c 4,-4 9,-7 10,-7 6,0 12,-5 12,-10 0,-5 -5,-19 -10,-26 -3,-4 -3,-5 -9,-2 -3,2 -7,6 -10,10 -4,7 -4,7 -1,11 2,2 2,4 0,6 -2,3 -4,1 -18,-13 -18,-20 -20,-26 -9,-31 33,-13 34,-54 2,-69 -5,-2 -10,-4 -15,-4 z m -1,4 c 21,-1 36,13 36,33 0,6 -2,14 -3,17 -4,8 -15,16 -23,17 -6,2 -6,2 -4,11 0,5 3,14 6,20 8,17 12,35 10,46 -1,10 -12,34 -15,34 -3,0 -2,4 6,14 5,7 17,29 24,44 0,0 5,-1 12,-3 9,-2 13,-3 15,-1 3,3 -11,17 -24,23 -21,9 -21,9 -21,-1 0,-23 -9,-44 -28,-63 -14,-13 -15,-14 -15,-23 0,-5 2,-13 6,-20 6,-12 10,-35 8,-41 -1,-2 0,-4 2,-5 5,-4 -11,0 -22,5 l -11,5 v 15 c 0,12 0,15 -3,17 -3,2 -3,2 2,2 5,-1 6,0 8,4 2,6 2,10 -1,6 -1,-2 -1,-1 -1,5 0,6 0,8 -3,9 -2,0 -4,-1 -5,-5 -1,-3 -2,-5 -6,-5 -2,0 -5,1 -6,2 0,2 1,2 4,1 3,-1 5,0 5,1 0,2 -11,3 -12,0 -1,0 0,-5 1,-10 2,-5 4,-18 5,-28 0,-11 1,-20 2,-21 3,-4 39,-25 44,-25 4,0 5,0 3,-1 -2,-1 -3,-4 -3,-7 0,-3 -3,-5 -7,-7 C 88,95 81,68 94,51 c 7,-9 16,-13 28,-13 z m 56,87 c 1,0 3,2 4,4 4,5 4,6 -1,10 -6,7 -7,6 -10,-1 -2,-6 -1,-9 4,-12 1,0 2,0 3,-1 z m -40,10 c 1,-1 5,4 11,10 10,12 12,13 16,8 4,-4 16,1 13,6 0,1 -2,0 -4,-1 -3,-2 -3,-2 -2,1 1,3 0,5 -3,9 -5,5 -7,5 -15,0 -5,-4 -8,-8 -12,-19 -2,-7 -4,-14 -4,-14 z m 27,3 c 1,-1 3,1 5,4 5,8 4,10 -2,3 -3,-2 -4,-5 -4,-7 1,0 1,0 1,0 z m 20,0 c 2,0 2,1 3,3 1,2 0,5 -3,7 -3,2 -4,4 -2,4 1,0 3,-1 4,-2 2,-2 3,-2 4,1 0,2 0,4 -2,5 -5,3 -7,3 -9,-4 -3,-5 -3,-6 0,-10 3,-2 4,-3 5,-4 z m -84,84 c 2,0 3,1 4,3 3,3 2,5 -2,13 -5,13 -13,19 -24,23 -5,1 -9,2 -9,2 -2,2 5,15 8,16 5,2 10,7 8,9 0,1 -6,2 -13,2 -14,0 -16,-2 -16,-24 l -1,-16 11,-3 c 15,-4 23,-9 27,-17 3,-5 5,-8 7,-8 z"
           id="path842"
           style="fill:#000000" />
      </g>
      <path
         id="path3163"
         sodipodi:nodetypes="ccccc"
         style="fill:#c87137;fill-opacity:0.99219;stroke:#000000;stroke-width:0.237809;stroke-linecap:round;stroke-linejoin:round"
         d="m 23.79383,110.12433 0.0981,17.62187 9.562353,-0.24455 -0.0981,-17.50081 z" />
      <path
         id="path3165"
         sodipodi:nodetypes="ccccc"
         style="fill:#d6e5fe;fill-opacity:1;stroke:#000000;stroke-width:0.237809;stroke-linecap:round;stroke-linejoin:round"
         d="m 12.229783,110.2236 0.334005,9.3654 7.992763,-0.59078 0.235905,-9.11844 z" />
      <path
         id="path3182"
         sodipodi:nodetypes="ccccc"
         style="fill:#c87137;fill-opacity:0.99219;stroke:#000000;stroke-width:0.237809;stroke-linecap:round;stroke-linejoin:round"
         d="m 12.103655,118.89652 0.158828,1.90311 9.137255,-0.41888 0.156492,-1.72877 z" />
      <path
         id="path3188"
         sodipodi:nodetypes="ccccc"
         style="fill:#d6e5fe;fill-opacity:1;stroke:#000000;stroke-width:0.237809;stroke-linecap:round;stroke-linejoin:round"
         d="m 25.473198,112.00564 -0.235906,6.426 h 6.43018 l -0.235906,-6.54222 z" />
      <ellipse
         id="path3190"
         style="fill:#ffffff;fill-opacity:0.99219;stroke:#000000;stroke-width:0.237809;stroke-linecap:round;stroke-linejoin:round"
         cx="30.988916"
         cy="120.84629"
         rx="0.5013752"
         ry="0.51973975" />
      <path
         id="path3200"
         style="fill:#d5e5ff;fill-opacity:0.99219;stroke:#000000;stroke-width:0.237809;stroke-linecap:round;stroke-linejoin:round"
         d="m 21.168504,100.26983 v 4.40426 h 3.891275 v -4.40426 z" />
      <path
         id="path2558"
         style="fill:#aad400;stroke:#000000;stroke-width:0.266667;stroke-linecap:round;stroke-linejoin:round;stroke-miterlimit:4;stroke-dasharray:none;stroke-opacity:1;paint-order:stroke fill markers"
         d="m 225.58398,428.24219 c -0.79709,-10e-4 -1.58232,0.0479 -2.01953,0.14843 -1.52691,0.3515 -2.61943,0.95556 -3.68945,2.03711 -1.39671,1.41177 -2.06714,3.15321 -2.06641,5.375 3.7e-4,1.13061 0.13407,2.12278 0.45118,3.34375 0.25052,0.96454 0.69092,1.65128 1.64062,2.5586 1.12681,1.07656 2.08522,1.61872 3.68359,2.08398 0.79426,0.2312 1.10198,0.43177 1.16797,0.76172 0.0297,0.14854 -0.0217,0.64368 -0.11523,1.125 -0.0919,0.47324 -0.16585,0.98106 -0.16602,1.12695 -1.5e-4,0.14582 -0.11232,0.70486 -0.24804,1.24219 -0.2339,0.92614 -0.45223,1.51219 -1.56446,4.1836 -0.9449,2.26953 -1.64109,4.97496 -1.80078,7 -0.0899,1.13998 -4e-5,2.42331 0.24219,3.45312 0.62499,2.6569 2.591,6.91797 3.19141,6.91797 0.19925,0 0.34765,0.16524 0.34765,0.38672 0,0.30754 -0.63263,1.45577 -1.36328,2.47265 -0.99735,1.38807 -2.21245,3.55828 -4.07031,7.27344 -0.89699,1.79369 -1.64592,3.3069 -1.66406,3.36133 -0.0229,0.0688 -0.58629,-0.0445 -1.84375,-0.36914 -2.84742,-0.73497 -3.58045,-0.84383 -4.04883,-0.60156 -0.32449,0.16796 -0.32435,0.45255 -0.002,1.00976 0.66494,1.14917 2.47292,2.79631 4.25196,3.8711 0.71525,0.43211 3.14018,1.5269 4.12695,1.86328 v 0.002 c 0.73743,0.25096 1.02079,0.26237 1.23438,0.0488 0.19955,-0.19952 0.23981,-0.51132 0.29492,-2.2832 0.0935,-3.00454 0.73424,-5.52668 2.08593,-8.19922 1.24903,-2.46955 2.54631,-4.17055 5.12891,-6.72657 0.72633,-0.71886 1.49858,-1.54737 1.71485,-1.84179 0.52575,-0.7155 0.64648,-1.16392 0.64648,-2.38281 0,-1.53215 -0.25283,-2.54393 -1.10352,-4.39454 -0.86752,-1.88715 -1.43723,-3.78576 -1.85546,-6.19336 -0.20183,-1.16197 -0.26898,-3.25673 -0.12891,-4.0039 0.0731,-0.38975 0.0707,-0.39798 -0.32617,-0.82227 -0.46762,-0.4981 -0.41535,-0.56834 0.37109,-0.48633 1.07172,0.11203 3.09975,0.83703 5.53125,1.97852 l 1.43359,0.67383 0.043,3.31836 c 0.0484,3.75878 0.0388,3.70981 0.72852,4.20508 0.20133,0.14475 0.36719,0.29833 0.36719,0.34179 0,0.0839 -0.41388,0.10849 -1.41016,0.082 -0.59169,-0.0159 -0.61804,-0.009 -0.86719,0.26368 -0.30452,0.33339 -0.54709,0.94414 -0.68164,1.71679 -0.12458,0.71532 -0.0234,0.8512 0.31446,0.42774 0.13277,-0.1663 0.26424,-0.30274 0.29296,-0.30274 0.0289,0 0.0694,0.6406 0.0898,1.42383 0.0402,1.54481 0.10154,1.76888 0.54492,1.9707 0.17786,0.0813 0.26665,0.07 0.51172,-0.0664 0.33257,-0.18539 0.44822,-0.36634 0.71094,-1.09375 0.33306,-0.92232 0.87961,-1.24486 1.78711,-1.05664 0.61875,0.12846 0.98433,0.36439 0.92382,0.5957 -0.0698,0.26646 -0.22331,0.28922 -0.89648,0.13086 -0.65044,-0.15307 -1.06836,-0.0928 -1.06836,0.15625 0,0.18346 0.29348,0.31144 0.88281,0.38477 0.7174,0.0888 1.3759,-0.0263 1.63672,-0.28711 l 0.20899,-0.20899 -0.10938,-0.74219 c -0.0597,-0.40849 -0.21516,-1.15976 -0.3457,-1.66992 -0.57413,-2.24368 -0.89643,-4.53311 -1.05078,-7.46289 -0.0648,-1.22903 -0.16211,-2.53901 -0.2168,-2.91016 -0.092,-0.62426 -0.12544,-0.69952 -0.44727,-1.01171 -0.9322,-0.9041 -5.57442,-3.76065 -8.11914,-4.9961 -1.0166,-0.49364 -1.20939,-0.55973 -1.76562,-0.59375 -0.34325,-0.0219 -0.62305,-0.0616 -0.62305,-0.0918 0,-0.0287 0.12789,-0.15382 0.28516,-0.2793 0.31965,-0.25504 0.55859,-0.83057 0.55859,-1.34961 0,-0.74563 0.44798,-1.23877 1.7207,-1.89063 1.02356,-0.52425 1.67841,-0.99871 2.30079,-1.66406 1.585,-1.69436 2.41208,-4.25197 2.13281,-6.60351 -0.39553,-3.33049 -2.6837,-5.915 -5.81836,-6.57422 -0.48457,-0.10281 -1.29275,-0.15493 -2.08985,-0.15625 z m -12.40429,20.29297 c -0.0543,0.005 -0.11339,0.0335 -0.19336,0.0859 -0.31376,0.20558 -1.25,1.66214 -1.25,1.94532 0,0.18686 0.15799,0.40803 0.6875,0.97265 0.37738,0.40241 0.8027,0.83731 0.94531,0.96485 0.3765,0.33671 0.67576,0.3081 0.93555,-0.0859 0.57165,-0.86713 0.82519,-2.1984 0.52734,-2.77149 -0.1923,-0.37001 -0.88457,-0.95898 -1.12695,-0.95898 -0.11005,0 -0.27178,-0.0449 -0.35938,-0.0996 -0.0633,-0.0395 -0.1117,-0.0576 -0.16601,-0.0527 z m 8.96289,2.27343 c -0.18039,-0.0249 -1.41667,1.22087 -2.71094,2.75977 -1.42167,1.6904 -2.04197,2.20092 -2.53125,2.07812 -0.12078,-0.0303 -0.39829,-0.24088 -0.61719,-0.46679 -0.27685,-0.28573 -0.49271,-0.42855 -0.70703,-0.46875 -1.10848,-0.20796 -2.49791,0.60459 -2.37305,1.38672 0.025,0.15648 0.0637,0.30202 0.0859,0.32422 0.0455,0.0455 0.8159,-0.30998 1.16406,-0.53711 0.12566,-0.0819 0.2511,-0.12586 0.2793,-0.0977 0.0282,0.0282 -0.007,0.25121 -0.0801,0.49609 -0.18151,0.61123 -0.17022,0.73344 0.125,1.32422 0.32606,0.6525 0.90277,1.29843 1.36524,1.52735 0.19721,0.0977 0.44056,0.17769 0.53906,0.17773 0.50031,1.8e-4 1.6511,-0.62051 2.33984,-1.26172 1.11749,-1.04037 1.87018,-2.592 2.67188,-5.50781 0.23238,-0.84515 0.43888,-1.58458 0.45898,-1.64258 0.0202,-0.0583 0.016,-0.0882 -0.01,-0.0918 z m -6.04297,0.66211 c -0.28211,0.015 -0.45458,0.14977 -0.76758,0.57618 -0.36607,0.49866 -0.98047,1.68028 -0.98047,1.88671 0,0.0825 0.0235,0.15039 0.0527,0.15039 0.0292,0 0.39283,-0.33247 0.80859,-0.73828 0.76373,-0.74546 1.01027,-1.10209 1.10547,-1.60156 0.0478,-0.25096 0.0341,-0.27344 -0.16211,-0.27344 -0.0199,0 -0.0378,-9.9e-4 -0.0566,0 z m -4.61914,0.084 c -0.22354,0 -0.497,0.5828 -0.5,1.0625 -0.002,0.41023 0.29757,0.86867 0.82226,1.25586 0.38173,0.2817 0.64885,0.66775 0.56055,0.81054 -0.10561,0.17088 -0.63228,0.007 -1.09375,-0.34179 -0.24861,-0.1877 -0.50426,-0.3418 -0.56836,-0.3418 -0.27284,0 -0.4152,0.863 -0.21484,1.30273 0.10426,0.22883 0.51731,0.50778 0.99805,0.67579 0.61633,0.21539 0.6968,0.12825 1.42968,-1.52344 0.39013,-0.87923 0.40594,-1.02574 0.16406,-1.52539 -0.20105,-0.41534 -1.31633,-1.375 -1.59765,-1.375 z m 18.96484,19.52343 c -0.0264,0.002 -0.0518,0.007 -0.0781,0.0137 -0.29343,0.0722 -0.3941,0.16862 -0.76172,0.73437 -0.20154,0.31017 -0.32908,0.6055 -0.32813,0.76367 0.003,0.45837 1.23978,3.22277 1.88086,4.20508 1.15632,1.77182 2.95866,2.96722 5.25391,3.48438 0.55089,0.12412 1.0574,0.27619 1.125,0.33789 0.18417,0.16796 0.004,0.90441 -0.45117,1.83593 -0.58673,1.20159 -0.94576,1.64236 -1.64453,2.0254 -0.98876,0.542 -1.68835,1.33041 -1.57618,1.77734 0.054,0.21516 0.31013,0.32622 1.06055,0.45508 v -0.002 c 0.25508,0.0438 1.18522,0.0744 2.06641,0.0664 1.57305,-0.0147 1.61173,-0.0201 2.08789,-0.25391 0.87483,-0.42959 1.11904,-1.0973 1.24023,-3.38867 0.17115,-3.2363 0.27039,-5.53514 0.24219,-5.55664 -0.0162,-0.0124 -0.80706,-0.24184 -1.75781,-0.50976 -1.98719,-0.56 -2.95529,-0.91308 -3.94922,-1.44141 -1.36023,-0.72303 -2.03652,-1.39467 -2.88086,-2.86328 -0.72311,-1.25777 -1.13405,-1.7165 -1.5293,-1.6836 z"
         transform="scale(0.26458333)" />
    </g>
    <g
       id="g5819"
       transform="translate(2.3212237)">
      <rect
         style="opacity:0.578595;mix-blend-mode:normal;fill:#000000;fill-opacity:1;stroke:none;stroke-width:0.575683;stroke-linecap:round;stroke-linejoin:round;stroke-miterlimit:4;stroke-dasharray:none;stroke-opacity:1;paint-order:stroke fill markers;filter:url(#filter5623)"
         id="rect5113"
         width="61.38826"
         height="49.410229"
         x="69.405273"
         y="86.354164"
         rx="0"
         ry="0" />
      <rect
         style="fill:#f2f2f2;stroke:#000000;stroke-width:0.575683;stroke-linecap:round;stroke-linejoin:round;stroke-miterlimit:4;stroke-dasharray:none;stroke-opacity:1;paint-order:stroke fill markers"
         id="rect2078"
         width="61.38826"
         height="49.410229"
         x="68.346939"
         y="85.29583"
         rx="0"
         ry="0" />
      <g
         id="g820"
         transform="matrix(-0.06548808,0,0,0.0678868,124.64841,108.8869)"
         style="fill:#000000">
        <path
           d="m 115,31 h -6 c -35,5 -44,50 -15,68 11,7 12,10 9,17 -4,7 -10,44 -11,59 0,7 -1,16 -3,21 -2,6 -2,10 0,15 4,10 3,23 -1,23 -3,0 -3,2 -1,9 3,7 -2,27 -11,46 -5,13 -5,14 3,16 8,1 37,0 44,-3 5,-2 6,-3 4,-6 -3,-5 -14,-10 -20,-10 -5,0 -6,0 -4,-5 1,-8 1,-8 8,-3 3,2 7,4 8,4 3,0 3,-9 -1,-17 -1,-4 -3,-8 -3,-8 0,0 3,0 7,1 6,2 15,1 17,-1 1,0 0,-7 -2,-15 -1,-8 -2,-17 -3,-20 0,-3 -1,-7 -3,-9 -2,-2 -1,-5 3,-16 4,-8 5,-17 5,-24 0,-10 -1,-16 -8,-43 -1,-5 -4,-10 -6,-12 -5,-5 -3,-13 3,-15 13,-4 25,-20 25,-35 0,-20 -17,-37 -38,-37 z m -1,3 c 7,0 14,1 17,3 3,2 8,6 11,9 16,19 6,51 -18,55 -6,2 -6,2 -5,9 1,4 4,13 7,20 12,27 14,44 7,63 -7,17 -10,17 -19,-4 l -7,-16 6,-16 c 8,-23 7,-22 5,-20 -2,1 -5,10 -8,19 l -6,17 7,17 c 7,15 8,17 5,20 -4,3 -2,3 4,0 3,-2 5,-1 8,1 4,4 5,8 1,6 -3,-2 -2,1 2,6 2,4 2,6 0,8 -2,3 -3,3 -6,0 -2,-2 -3,-2 -4,-1 0,1 -4,3 -7,3 -7,2 -7,2 -7,-7 0,-4 -3,-18 -7,-29 l -7,-22 5,-25 c 2,-14 5,-28 7,-31 4,-12 3,-15 -8,-21 C 90,94 86,90 83,84 75,67 82,45 97,37 c 4,-2 11,-3 17,-3 z M 94,188 c 2,0 9,28 11,42 3,15 2,29 -4,49 l -3,9 9,1 c 10,1 20,7 17,10 -3,2 -43,4 -48,2 -2,-1 -1,-4 2,-11 12,-22 19,-66 14,-79 -2,-5 -2,-9 -1,-15 2,-4 3,-8 3,-8 z m 30,34 c -1,0 -4,2 -8,5 -3,3 -5,5 -4,5 1,0 3,-1 4,-2 1,-1 4,-3 6,-5 3,-1 4,-3 2,-3 z m 2,13 h 1 c 6,0 6,1 8,10 l 2,10 c 0,2 -13,1 -19,-1 -3,-1 -6,-1 -6,-1 -1,1 1,5 2,10 2,5 3,10 3,12 -1,3 -1,3 -6,-1 -5,-3 -5,-5 -3,-11 1,-4 1,-11 1,-15 0,-6 1,-6 6,-5 6,0 6,0 6,-4 0,-3 1,-4 5,-4 z m -12,1 c 2,0 4,1 4,2 1,1 0,2 -1,2 -2,0 -4,-1 -5,-2 0,-1 1,-2 2,-2 z"
           id="path818"
           style="fill:#000000" />
      </g>
      <path
         id="path2066"
         sodipodi:nodetypes="cccccccccccc"
         style="fill:#c8b7b7;stroke:#000000;stroke-width:0.276;stroke-linecap:round;stroke-linejoin:round;stroke-miterlimit:4;stroke-dasharray:none"
         d="m 88.360838,90.807578 -8.674787,8.99253 v -4.668174 l -4.839569,-0.346239 0.334005,8.820625 -6.005083,5.53256 5.005404,0.17433 v 20.06249 l 27.192212,-0.52057 -0.16584,-19.54192 4.26966,-0.34624 z" />
      <path
         id="path2062"
         sodipodi:nodetypes="ccccc"
         style="fill:#c87137;fill-opacity:0.99219;stroke:#000000;stroke-width:0.237809;stroke-linecap:round;stroke-linejoin:round"
         d="m 88.762578,110.12433 0.0981,17.62187 9.562353,-0.24455 -0.0981,-17.50081 z" />
      <path
         id="path2064"
         sodipodi:nodetypes="ccccc"
         style="fill:#d6e5fe;fill-opacity:1;stroke:#000000;stroke-width:0.237809;stroke-linecap:round;stroke-linejoin:round"
         d="m 77.198531,110.2236 0.334005,9.3654 7.992763,-0.59078 0.235905,-9.11844 z" />
      <path
         id="path2068"
         sodipodi:nodetypes="ccccc"
         style="fill:#c87137;fill-opacity:0.99219;stroke:#000000;stroke-width:0.237809;stroke-linecap:round;stroke-linejoin:round"
         d="m 77.072403,118.89652 0.158828,1.90311 9.137255,-0.41888 0.156492,-1.72877 z" />
      <path
         id="path2070"
         sodipodi:nodetypes="ccccc"
         style="fill:#d6e5fe;fill-opacity:1;stroke:#000000;stroke-width:0.237809;stroke-linecap:round;stroke-linejoin:round"
         d="m 90.441946,112.00564 -0.235906,6.426 h 6.43018 l -0.235906,-6.54222 z" />
      <ellipse
         id="circle2072"
         style="fill:#ffffff;fill-opacity:0.99219;stroke:#000000;stroke-width:0.237809;stroke-linecap:round;stroke-linejoin:round"
         cx="95.957664"
         cy="120.84629"
         rx="0.5013752"
         ry="0.51973975" />
      <path
         id="path2074"
         style="fill:#d5e5ff;fill-opacity:0.99219;stroke:#000000;stroke-width:0.237809;stroke-linecap:round;stroke-linejoin:round"
         d="m 86.137252,100.26983 v 4.40426 h 3.891275 v -4.40426 z" />
      <path
         id="path2792"
         style="fill:#aad400;fill-opacity:1;stroke:#000000;stroke-width:0.266667;stroke-linecap:round;stroke-linejoin:round;stroke-miterlimit:4;stroke-dasharray:none;stroke-opacity:1;paint-order:stroke fill markers"
         d="m 442.49023,420.36523 c -1.4121,0.0142 -2.75199,0.19808 -3.46093,0.5625 -0.59755,0.30717 -1.73873,1.22655 -2.64453,2.12891 -3.06739,3.05582 -3.02876,8.73283 0.084,12.13867 1.01647,1.11217 2.03311,1.67858 4.06445,2.26758 0.36945,0.10715 0.81777,0.31139 0.99805,0.45313 0.31748,0.24975 0.32578,0.28449 0.25586,1.10937 -0.0901,1.0656 -0.87229,3.52753 -2.10547,6.61914 -1.07573,2.69685 -1.51581,4.03624 -1.98047,6.02344 -0.30463,1.31119 -0.33606,1.62913 -0.33984,3.81445 -0.004,2.20222 0.0212,2.48172 0.3164,3.64453 0.70636,2.7823 1.84351,5.00196 2.56446,5.00196 0.68938,0 1.38161,-1.19948 3.24023,-5.625 l 1.08399,-2.58008 -0.94922,-2.63086 c -1.14104,-3.16645 -2.18087,-6.55108 -2.08789,-6.79297 0.0544,-0.14173 0.12548,-0.1196 0.37304,0.11133 0.48118,0.44912 0.66282,0.89088 2.14258,5.23828 l 1.39063,4.08594 -0.8086,2.03906 c -0.44489,1.12169 -1.09942,2.70245 -1.45507,3.51172 -1.25863,2.86288 -1.3352,3.29149 -0.6875,3.90234 0.43124,0.40664 0.53056,0.64844 0.26562,0.64844 -0.0838,0 -0.54442,-0.18855 -1.02344,-0.41797 -0.47898,-0.22957 -0.9953,-0.41797 -1.14648,-0.41797 -0.45509,0 -1.3859,0.72271 -1.72266,1.33594 -0.37402,0.68077 -0.26163,0.89208 0.32227,0.60937 0.67744,-0.32821 0.65558,-0.0172 -0.0762,1.11524 -0.48227,0.74627 -0.73243,1.34906 -0.73243,1.76367 0,0.35467 0.68718,1.25781 0.95703,1.25781 0.12152,0 0.46837,-0.21426 0.77149,-0.47656 0.61818,-0.53518 0.79,-0.57441 1.09766,-0.25391 0.32133,0.33487 0.72364,0.51498 1.64453,0.74024 1.2277,0.30009 1.47419,0.28931 1.61328,-0.0762 0.0643,-0.16823 0.11523,-0.69581 0.11523,-1.17188 0,-1.82422 0.63432,-4.5147 2.37305,-10.08398 l 1.0957,-3.51367 -0.59765,-3.10547 c -0.32856,-1.70824 -0.70725,-3.80359 -0.8418,-4.65625 -0.44054,-2.79474 -0.84853,-4.62448 -1.39649,-6.25977 -0.68099,-2.03225 -0.78843,-3.06367 -0.40039,-3.86523 0.30229,-0.62446 0.6938,-0.9564 2.27149,-1.92774 2.12632,-1.30919 3.38395,-2.9055 3.95508,-5.02343 0.19464,-0.72091 0.25195,-1.27911 0.25195,-2.48047 0,-1.86834 -0.24343,-2.92616 -1.03906,-4.53125 -0.7928,-1.59931 -1.75676,-2.66944 -3.13281,-3.47852 -0.86862,-0.51064 -2.80358,-0.77219 -4.61915,-0.75391 z m 5.25586,39.74415 c -0.36898,0.12298 -1.67138,5.2696 -2.46679,9.74414 -0.51894,2.91927 -0.60333,5.66513 -0.24805,8.10937 0.25938,1.78442 0.96766,4.75747 1.50195,6.31055 0.16754,0.487 0.30469,0.95321 0.30469,1.03711 0,0.1623 -0.0504,0.17442 -2.10156,0.44922 -1.65392,0.22158 -3.0276,0.72816 -3.78906,1.39843 -0.71115,0.62598 -0.74341,0.99869 -0.10157,1.16797 0.56,0.14769 2.46151,0.34849 4.56055,0.48242 1.84263,0.11754 6.51414,0.0829 6.82617,-0.0508 0.3362,-0.14402 0.25903,-0.94854 -0.19531,-2.03125 -0.22018,-0.52471 -0.59989,-1.40928 -0.8457,-1.96679 -2.58335,-5.85924 -4.02622,-15.53893 -2.86133,-19.19922 0.39381,-1.23744 0.4479,-2.93544 0.12109,-3.81641 -0.1095,-0.29515 -0.28793,-0.79275 -0.39453,-1.10547 -0.1066,-0.31271 -0.24645,-0.55069 -0.31055,-0.52929 z m -7.31054,8.40039 c 0.023,-2.2e-4 0.0481,9.7e-4 0.0742,0.004 0.5904,0.0661 2.97876,2.06773 2.98632,2.50195 h -0.002 c 0.005,0.34757 -0.60034,0.0292 -1.71484,-0.90039 -0.53065,-0.44262 -1.11634,-0.90041 -1.30078,-1.01757 -0.38087,-0.24293 -0.38792,-0.5847 -0.043,-0.58789 z m -0.72266,3.37695 c -0.39635,0.003 -0.79677,0.0527 -0.98437,0.14648 -0.45661,0.22815 -0.64811,0.74225 -1.07422,2.89063 -0.28757,1.45004 -0.35687,2.01227 -0.25977,2.10937 0.30376,0.30375 3.00954,0.0558 4.78711,-0.43945 0.94212,-0.26243 1.31641,-0.24269 1.31641,0.0703 0,0.2737 -0.48042,2.12338 -0.84571,3.25586 -0.3646,1.13033 -0.51018,2.14919 -0.34961,2.44922 0.13443,0.25123 0.14411,0.25188 0.47461,0.041 0.82489,-0.52629 1.66484,-1.24535 1.74414,-1.49414 0.12766,-0.40049 0.0826,-0.95955 -0.13867,-1.72071 -0.13243,-0.45556 -0.22254,-1.38576 -0.27343,-2.8457 -0.0525,-1.50805 -0.12259,-2.22548 -0.23047,-2.35547 -0.12895,-0.15536 -0.34769,-0.17399 -1.29883,-0.11719 -1.33449,0.0796 -1.46575,-0.002 -1.46875,-0.91601 -0.002,-0.61152 -0.0649,-0.74724 -0.4375,-0.94336 -0.17268,-0.0909 -0.56459,-0.134 -0.96094,-0.13086 z"
         transform="scale(0.26458333)" />
    </g>
    <g
       id="g5833">
      <rect
         style="opacity:0.578595;mix-blend-mode:normal;fill:#000000;fill-opacity:1;stroke:none;stroke-width:0.575683;stroke-linecap:round;stroke-linejoin:round;stroke-miterlimit:4;stroke-dasharray:none;stroke-opacity:1;paint-order:stroke fill markers;filter:url(#filter5623)"
         id="rect5115"
         width="61.38826"
         height="49.410229"
         x="139.04213"
         y="86.354164"
         rx="0"
         ry="0" />
      <rect
         style="fill:#f2f2f2;stroke:#000000;stroke-width:0.575683;stroke-linecap:round;stroke-linejoin:round;stroke-miterlimit:4;stroke-dasharray:none;stroke-opacity:1;paint-order:stroke fill markers"
         id="rect2096"
         width="61.38826"
         height="49.410229"
         x="137.9838"
         y="85.29583"
         rx="0"
         ry="0" />
      <g
         transform="matrix(-0.05943313,0,0,0.06161007,187.75346,110.82676)"
         id="g824"
         style="fill:#000000">
        <path
           d="m 124,20 c -17,0 -29,8 -36,23 -7,17 0,36 16,46 5,3 9,7 9,8 0,5 -5,16 -10,21 -3,3 -9,10 -12,15 l -7,10 2,17 c 1,13 1,17 -1,21 -2,2 -4,7 -4,10 -2,6 -1,7 5,10 4,2 7,5 7,6 0,4 -17,38 -27,55 -12,19 -12,22 -1,36 l 5,7 19,-1 c 23,-1 26,-4 17,-12 -4,-4 -9,-6 -12,-6 -12,0 -12,-3 2,-35 7,-17 13,-32 14,-34 2,-5 13,-7 23,-4 12,4 10,6 -11,11 -2,0 9,16 15,23 8,8 20,15 26,15 4,0 2,-10 -5,-20 l -5,-8 7,-3 c 14,-6 14,-8 -3,-24 l -16,-15 4,-10 c 2,-6 4,-10 5,-9 11,4 32,9 34,9 3,-2 8,-26 6,-30 0,-1 -3,-2 -5,-2 -3,0 -6,-1 -7,-2 -2,-2 -15,3 -15,7 0,2 -1,2 -8,1 -5,-2 -8,-3 -8,-6 0,-4 -9,-32 -12,-39 -5,-10 -5,-16 2,-19 17,-7 25,-20 24,-38 -1,-20 -17,-34 -37,-34 z m -1,3 c 14,-1 28,8 34,21 8,18 -3,40 -24,46 -6,2 -7,3 -6,8 0,3 3,10 6,15 2,6 6,18 7,26 l 2,16 10,3 c 6,1 11,3 11,4 2,5 4,2 3,-3 -1,-4 0,-5 4,-7 7,-2 8,-2 6,0 -1,2 1,2 5,1 5,-1 7,0 8,2 1,2 0,5 -2,6 -1,1 -2,4 -2,6 0,2 0,3 -1,3 -1,0 -3,-3 -3,-6 -1,-4 -2,-6 -2,-6 -2,2 2,15 4,15 3,-1 3,4 1,6 -1,1 -14,-3 -28,-7 l -26,-9 -2,-16 c -3,-17 -4,-22 -6,-20 0,0 5,32 6,36 1,2 5,4 9,5 10,3 10,3 1,22 -6,12 -13,19 -21,18 -5,-1 -6,0 -13,17 -4,10 -11,27 -16,37 -8,18 -8,19 -5,23 2,2 6,3 9,3 5,0 17,9 15,11 -1,1 -9,2 -18,3 -19,1 -20,0 -27,-15 l -4,-7 10,-17 c 18,-28 31,-58 31,-69 0,-7 2,-15 7,-24 6,-14 6,-17 7,-38 0,-12 1,-27 1,-32 2,-9 2,-9 -7,-13 -28,-13 -24,-54 6,-63 3,-1 7,-1 10,-1 z m -15,95 c 1,-1 2,2 2,7 2,9 1,10 -5,15 l -6,6 2,12 c 1,10 1,13 -2,20 -4,8 -7,10 -10,7 -3,-3 -2,-5 3,-5 4,0 4,0 1,-2 -2,-2 -4,-8 -5,-19 l -1,-17 7,-9 c 4,-6 9,-11 11,-13 1,-2 2,-2 3,-2 z m 2,22 c 1,1 1,4 -1,12 -2,12 -5,13 -6,3 -1,-6 0,-9 3,-12 2,-2 3,-3 4,-3 z m -24,48 c 2,0 3,2 3,6 0,7 0,7 -3,4 -4,-4 -3,-10 0,-10 z m 8,1 c 1,0 2,2 2,5 1,5 -1,9 -3,7 -2,-2 -2,-10 0,-12 0,0 1,0 1,0 z m 46,7 c 2,0 27,24 27,27 0,1 -8,5 -16,8 -4,1 -4,1 0,6 4,5 10,16 10,19 0,9 -26,-11 -33,-25 -2,-4 -2,-5 7,-8 6,-2 10,-4 10,-6 0,-1 -3,-4 -7,-6 l -8,-3 4,-6 c 2,-3 5,-6 6,-6 z"
           id="path822"
           style="fill:#000000" />
      </g>
      <path
         id="path2084"
         sodipodi:nodetypes="cccccccccccc"
         style="fill:#c8b7b7;fill-opacity:1;stroke:#000000;stroke-width:0.276;stroke-linecap:round;stroke-linejoin:round;stroke-miterlimit:4;stroke-dasharray:none"
         d="m 157.97021,90.807577 -8.67478,8.99253 v -4.668174 l -4.83957,-0.346239 0.334,8.820626 -6.00508,5.53256 5.0054,0.17433 v 20.06249 l 27.19221,-0.52057 -0.16583,-19.54192 4.26966,-0.34624 z" />
      <path
         id="path2080"
         sodipodi:nodetypes="ccccc"
         style="fill:#c87137;fill-opacity:0.99219;stroke:#000000;stroke-width:0.237809;stroke-linecap:round;stroke-linejoin:round"
         d="m 158.37195,110.12433 0.0981,17.62187 9.56236,-0.24455 -0.0981,-17.50081 z" />
      <path
         id="path2082"
         sodipodi:nodetypes="ccccc"
         style="fill:#d6e5fe;fill-opacity:1;stroke:#000000;stroke-width:0.237809;stroke-linecap:round;stroke-linejoin:round"
         d="m 146.80791,110.2236 0.334,9.3654 7.99277,-0.59078 0.2359,-9.11844 z" />
      <path
         id="path2086"
         sodipodi:nodetypes="ccccc"
         style="fill:#c87137;fill-opacity:0.99219;stroke:#000000;stroke-width:0.237809;stroke-linecap:round;stroke-linejoin:round"
         d="m 146.68178,118.89652 0.15883,1.90311 9.13725,-0.41888 0.15649,-1.72877 z" />
      <path
         id="path2088"
         sodipodi:nodetypes="ccccc"
         style="fill:#d6e5fe;fill-opacity:1;stroke:#000000;stroke-width:0.237809;stroke-linecap:round;stroke-linejoin:round"
         d="m 160.05132,112.00564 -0.2359,6.426 h 6.43018 l -0.23591,-6.54222 z" />
      <ellipse
         id="circle2090"
         style="fill:#ffffff;fill-opacity:0.99219;stroke:#000000;stroke-width:0.237809;stroke-linecap:round;stroke-linejoin:round"
         cx="165.56705"
         cy="120.84629"
         rx="0.5013752"
         ry="0.51973975" />
      <path
         id="path2092"
         style="fill:#d5e5ff;fill-opacity:0.99219;stroke:#000000;stroke-width:0.237809;stroke-linecap:round;stroke-linejoin:round"
         d="m 155.74663,100.26983 v 4.40426 h 3.89127 v -4.40426 z" />
      <path
         id="path2870"
         style="fill:#aad400;stroke:#000000;stroke-width:0.266667;stroke-linecap:round;stroke-linejoin:round;stroke-miterlimit:4;stroke-dasharray:none;stroke-opacity:1;paint-order:stroke fill markers"
         d="m 681.70703,424.31055 c -1.48033,0.004 -2.33886,0.22441 -3.57812,0.86133 -1.11035,0.57069 -2.61904,1.99544 -3.25196,3.07226 -1.72051,2.92724 -1.27715,6.49901 1.13867,9.17578 0.84254,0.93351 2.07771,1.73379 3.52149,2.28125 1.53377,0.58156 1.63281,0.6734 1.63281,1.52735 0,0.86286 -0.24616,1.686 -0.92383,3.10351 -1.00252,2.09707 -1.79861,5.16417 -2.21289,8.51563 l -0.26562,2.13672 -0.83399,0.28515 c -0.45857,0.15659 -1.18109,0.3638 -1.60742,0.46094 -1.43947,0.3281 -2.11579,0.63531 -2.37695,1.07812 -0.48764,0.82659 -0.79635,0.4003 -0.66406,-0.91797 0.0816,-0.8116 0.0786,-0.8319 -0.2793,-1.16601 -0.20704,-0.1934 -0.66647,-0.42366 -1.06445,-0.53516 -0.88834,-0.24945 -0.87996,-0.25113 -0.79493,0.0879 0.10504,0.4184 -0.0972,0.47408 -1.1289,0.30664 -1.1297,-0.18338 -1.49929,-0.10588 -1.7461,0.3711 -0.15269,0.29514 -0.16234,0.44122 -0.0527,0.77344 0.0741,0.2251 0.2044,0.44853 0.28906,0.49804 0.26325,0.1547 0.51627,0.77756 0.60547,1.49219 0.0472,0.37716 0.13119,0.68555 0.1875,0.68555 0.1872,0 0.46247,-0.54094 0.57813,-1.13868 0.15193,-0.78545 0.39789,-1.46705 0.54492,-1.50976 0.19502,-0.0571 0.19874,0.52798 0.01,1.43359 -0.2352,1.12793 -0.65487,1.96089 -1.0332,2.05274 -0.25436,0.0618 -0.28686,0.13631 -0.2793,0.57617 0.006,0.27708 0.0656,0.55974 0.13477,0.62891 0.17238,0.17238 1.0063,-0.0102 3.88672,-0.85743 1.93274,-0.56844 8.00608,-2.65394 8.17578,-2.80664 0.0253,-0.0227 0.16787,-0.99383 0.31641,-2.16015 0.49001,-3.85202 1.02306,-6.29493 1.37304,-6.29493 0.25025,0 0.1955,0.6277 -0.35351,4.08204 -0.78403,4.9313 -0.68486,4.53283 -1.22461,4.92382 -0.25913,0.1877 -0.96667,0.50521 -1.57227,0.70704 -0.60559,0.20167 -1.22539,0.45434 -1.37695,0.56054 -0.45362,0.31775 -0.30547,1.11591 0.58008,3.1211 1.311,2.96855 2.45028,4.56319 3.72851,5.21875 0.45396,0.23282 0.7429,0.28711 1.49805,0.28711 0.86687,0 0.95916,0.0242 1.24414,0.32812 0.44757,0.47713 0.72624,1.09338 2.48047,5.45703 0.87008,2.16439 1.87481,4.57819 2.23047,5.36524 1.21897,2.69718 2.07675,4.93367 2.14062,5.57421 0.0522,0.526 0.0179,0.69475 -0.21679,1.03907 -0.39058,0.57301 -0.86665,0.81498 -1.88282,0.95898 -0.57316,0.0813 -1.12278,0.25685 -1.59375,0.50781 -0.74804,0.39874 -2.10937,1.59424 -2.10937,1.85352 0,0.2256 0.39753,0.33472 2.02734,0.55469 0.81944,0.11036 1.57166,0.22146 1.66992,0.24414 0.0984,0.0227 0.98494,0.0309 1.96875,0.0195 2.61249,-0.0338 2.78652,-0.15733 4.16797,-2.94141 0.37425,-0.75424 0.78228,-1.53488 0.90625,-1.73633 l 0.22461,-0.36718 -1.50781,-2.61524 c -0.82991,-1.4383 -1.84946,-3.2043 -2.26563,-3.92578 -1.00535,-1.74285 -2.4841,-4.67093 -3.25195,-6.43945 -1.46502,-3.37425 -2.0311,-5.31146 -2.24805,-7.69336 -0.14645,-1.60713 -0.42012,-2.57122 -1.2207,-4.30859 -0.74982,-1.62732 -1.24588,-3.1162 -1.47266,-4.41602 -0.20979,-1.20378 -0.3878,-4.37425 -0.49023,-8.74414 -0.0401,-1.70529 -0.14845,-3.5957 -0.24219,-4.19922 -0.18066,-1.16636 -0.11766,-1.59941 0.2793,-1.89648 0.11221,-0.084 0.7148,-0.40972 1.33789,-0.72266 3.95044,-1.98535 5.41594,-6.54618 3.40625,-10.59375 -0.88025,-1.77286 -2.19172,-3.00385 -4.03711,-3.79102 -0.78383,-0.33437 -1.00268,-0.37148 -2.44922,-0.41796 -0.23971,-0.008 -0.4643,-0.0123 -0.67578,-0.0117 z m 3.68164,22.0625 c -0.19617,-0.0338 -0.28029,0.18333 -0.33398,0.61523 -0.0345,0.27722 -0.12613,0.96793 -0.20313,1.5332 -0.077,0.56526 -0.10178,1.17973 -0.0547,1.36719 0.0511,0.20364 0.59609,0.86029 1.35351,1.62891 l 1.26758,1.28515 -0.26367,1.81641 c -0.304,2.0938 -0.33332,3.68565 -0.0859,4.61524 0.23844,0.89597 0.80217,2.0042 1.29297,2.53906 0.2257,0.24596 0.51845,0.44726 0.65039,0.44726 0.22601,0 0.98047,-0.72577 0.98047,-0.94336 0,-0.21571 -0.33158,-0.35289 -1.04492,-0.43359 -0.40928,-0.0463 -0.74415,-0.0994 -0.74415,-0.11719 0,-0.0178 0.18308,-0.21433 0.40626,-0.4375 0.70279,-0.7028 1.06956,-2.42432 1.27929,-6.00586 l 0.13477,-2.30273 -1.0293,-1.41016 c -0.56589,-0.77468 -1.52595,-2.0093 -2.13281,-2.74414 -0.78543,-0.95107 -1.22044,-1.40971 -1.47266,-1.45312 z m 4.90821,16.29492 c -0.26327,-2.3e-4 -0.45506,0.18213 -0.5586,0.53125 -0.12732,0.42945 -0.13896,2.01739 -0.0156,2.16601 0.0515,0.062 0.0625,0.059 0.19726,-0.0391 0.30527,-0.22212 0.68729,-0.71627 0.82031,-1.0625 0.29986,-0.78051 0.0739,-1.59525 -0.44335,-1.5957 z m -1.80665,0.24219 c -0.0751,0.002 -0.0981,0.0254 -0.16601,0.10742 -0.12723,0.1538 -0.20844,0.43399 -0.24414,0.8418 -0.0165,0.18754 -0.035,0.35058 -0.043,0.36328 -0.0361,0.0584 -0.0131,0.77013 0.0312,0.96484 0.0621,0.27278 0.19785,0.51231 0.32226,0.56641 0.1181,0.0513 0.098,0.0513 0.19727,0 0.19589,-0.10131 0.3212,-0.34752 0.4082,-0.81055 0.0388,-0.20725 0.0448,-0.37523 0.0332,-0.78516 -0.0159,-0.56159 -0.0722,-0.86837 -0.20703,-1.11328 -0.0658,-0.11952 -0.0738,-0.12381 -0.23633,-0.13281 -0.0405,-0.002 -0.0707,-0.003 -0.0957,-0.002 z m -10.36328,1.69531 c -0.24533,0 -5.09068,4.82847 -5.59179,5.57226 -0.1866,0.27699 -0.30899,0.58395 -0.27149,0.68165 0.0775,0.20186 2.42661,1.38189 3.41797,1.71679 0.39962,0.135 0.67151,0.29993 0.69531,0.42188 0.0215,0.11008 -0.22443,0.56073 -0.54687,1.00195 -1.50544,2.06003 -2.60044,4.45035 -2.21485,4.83594 0.64686,0.64686 4.25792,-2.05667 6.18555,-4.63086 0.64644,-0.86327 1.24805,-1.94763 1.24805,-2.25196 0,-0.29756 -0.53677,-0.61892 -1.99414,-1.18945 -1.29779,-0.50806 -2.06055,-0.98175 -2.06055,-1.28125 0,-0.50141 0.90785,-1.20895 2.27148,-1.77148 l 1.05665,-0.4375 -0.56836,-0.88672 c -0.68214,-1.06223 -1.33889,-1.78125 -1.62696,-1.78125 z"
         transform="scale(0.26458333)" />
    </g>
  </g>
</svg>
