<?xml version="1.0" encoding="UTF-8" standalone="no"?>
<!-- Created with Inkscape (http://www.inkscape.org/) -->

<svg
   width="166.27399mm"
   height="35.170883mm"
   viewBox="0 0 166.27399 35.170883"
   version="1.1"
   id="svg5"
   inkscape:version="1.1.1 (3bf5ae0d25, 2021-09-20)"
   sodipodi:docname="jpeg_mp3_divx.svg"
   xmlns:inkscape="http://www.inkscape.org/namespaces/inkscape"
   xmlns:sodipodi="http://sodipodi.sourceforge.net/DTD/sodipodi-0.dtd"
   xmlns="http://www.w3.org/2000/svg"
   xmlns:svg="http://www.w3.org/2000/svg">
  <sodipodi:namedview
     id="namedview7"
     pagecolor="#ffffff"
     bordercolor="#666666"
     borderopacity="1.0"
     inkscape:pageshadow="2"
     inkscape:pageopacity="0.0"
     inkscape:pagecheckerboard="0"
     inkscape:document-units="mm"
     showgrid="false"
     lock-margins="true"
     fit-margin-top="2"
     fit-margin-left="2"
     fit-margin-right="2"
     fit-margin-bottom="2"
     inkscape:zoom="1.0482005"
     inkscape:cx="351.55488"
     inkscape:cy="-37.683631"
     inkscape:window-width="1920"
     inkscape:window-height="1017"
     inkscape:window-x="1672"
     inkscape:window-y="-8"
     inkscape:window-maximized="1"
     inkscape:current-layer="layer1" />
  <defs
     id="defs2">
    <inkscape:perspective
       sodipodi:type="inkscape:persp3d"
       inkscape:vp_x="0 : 264.35196 : 1"
       inkscape:vp_y="0 : 999.99997 : 0"
       inkscape:vp_z="744.09449 : 264.35196 : 1"
       inkscape:persp3d-origin="372.04724 : 88.958263 : 1"
       id="perspective2517" />
  </defs>
  <g
     inkscape:label="Calque 1"
     inkscape:groupmode="layer"
     id="layer1"
     transform="translate(-38.188693,-145.00223)">
    <g
       id="g2154"
       transform="matrix(0.94700056,0,0,0.94700056,6.7841113,7.4218626)">
      <path
         d="m 204.87615,154.38473 c -1.57339,-1.52153 -20.68407,-3.09456 -22.87623,-3.09456 l -12.66289,-0.0519 c -2.83711,0 -21.43178,1.6764 -22.95356,3.14642 l -0.0773,0.0773 v 18.72393 l 0.0773,0.0773 c 1.52178,1.52174 20.03916,3.198 22.85037,3.198 h 12.76608 c 2.83704,0 21.3547,-1.67626 22.87623,-3.198 l 0.0773,-0.0773 v -18.72393 l -0.0773,-0.0773"
         style="fill:#231f20;fill-opacity:1;fill-rule:evenodd;stroke:none;stroke-width:0.0352778"
         id="path16" />
      <path
         d="m 145.22301,153.19834 -0.0774,0.0773 c -0.33528,0.30974 -0.5158,0.74789 -0.5158,1.18639 v 18.72393 c 0,0.46426 0.18052,0.87686 0.49003,1.18636 l 0.1032,0.10322 c 2.50158,2.45015 23.80453,3.66211 24.01083,3.66211 h 12.76608 c 0.20637,0 21.53497,-1.21196 24.03651,-3.66211 l 0.10337,-0.10322 c 0.30938,-0.3095 0.49001,-0.7221 0.49001,-1.18636 v -18.72393 c 0,-0.4385 -0.18063,-0.87665 -0.51577,-1.18639 l -0.0776,-0.0773 v 0 c -2.45004,-2.42429 -23.83014,-3.58457 -24.03651,-3.58457 l -12.66289,-0.0519 c -0.20641,0 -21.61244,1.21214 -24.11402,3.63643 z m 24.11402,-0.28363 12.66289,0.0257 c 2.42429,0 17.74366,1.41852 21.27708,2.5273 0,1.6764 0,15.06171 0,16.73811 -3.45581,1.10903 -18.36279,2.57912 -21.27708,2.57912 h -12.76608 c -2.9143,0 -17.82106,-1.47009 -21.2513,-2.57912 0,-1.6764 0,-15.0356 0,-16.73811 3.45599,-1.08303 18.41433,-2.55305 21.35449,-2.55305"
         style="fill:#231f20;fill-opacity:1;fill-rule:evenodd;stroke:none;stroke-width:0.0352778"
         id="path18" />
      <path
         d="m 204.87615,154.38473 c -1.57339,-1.52153 -20.68407,-3.09456 -22.87623,-3.09456 l -12.66289,-0.0519 c -2.83711,0 -21.43178,1.6764 -22.95356,3.14642 l -0.0773,0.0773 v 18.72393 l 0.0773,0.0773 c 1.52178,1.52174 20.03916,3.198 22.85037,3.198 h 12.76608 c 2.83704,0 21.3547,-1.67626 22.87623,-3.198 l 0.0773,-0.0773 v -18.72393 l -0.0773,-0.0773"
         style="fill:#231f20;fill-opacity:1;fill-rule:evenodd;stroke:none;stroke-width:0.0352778"
         id="path20" />
      <path
         d="m 145.89343,153.89472 -0.0773,0.0773 c -0.12897,0.12912 -0.2063,0.30974 -0.2063,0.49001 v 18.72393 c 0,0.18052 0.0773,0.36107 0.2063,0.49004 l 0.0773,0.10309 c 1.85691,1.83112 21.17397,3.37865 23.34041,3.37865 h 12.76608 c 2.16641,0 21.50921,-1.54753 23.36624,-3.37865 l 0.0772,-0.10309 c 0.12912,-0.12897 0.20638,-0.30952 0.20638,-0.49004 v -18.72393 c 0,-0.18027 -0.0773,-0.36089 -0.20638,-0.49001 l -0.0772,-0.0773 c -2.01154,-1.96003 -22.48924,-3.30129 -23.36624,-3.30129 l -12.66289,-0.0515 c -2.19216,0 -21.58669,1.54764 -23.4436,3.3528 z m 23.4436,-1.96003 12.66289,0.0515 c 2.81128,0 20.32282,1.62489 22.2571,2.83704 0,0.67063 0,17.35684 0,18.0274 -1.88277,1.18636 -18.8528,2.9143 -22.2571,2.9143 h -12.76608 c -3.4043,0 -20.34868,-1.72794 -22.23135,-2.9143 0,-0.67056 0,-17.35677 0,-18.0274 1.88267,-1.16064 18.90434,-2.88855 22.33454,-2.88855 z m 36.02913,1.96003 v 0 0"
         style="fill:#ffffff;fill-opacity:1;fill-rule:evenodd;stroke:none;stroke-width:0.0352778"
         id="path22" />
      <path
         d="m 171.50333,157.94391 c 0,0 2.42422,0 2.7595,0 0.0259,0 3.14639,5.02909 3.50763,5.59643 0,0.0258 3.17218,-4.9258 3.50732,-5.59643 0,0 2.37278,0 2.75978,0 0,0 -3.22368,5.18372 -3.43006,5.51914 -1.62489,2.63052 -4.04925,2.63052 -5.72565,-0.0259 -0.20631,-0.30949 -2.88851,-4.74532 -3.37852,-5.49321"
         style="fill:#ffffff;fill-opacity:1;fill-rule:evenodd;stroke:none;stroke-width:0.0352778"
         id="path24" />
      <path
         d="m 168.20221,157.94391 h 2.68224 v 7.40181 h -2.68224 v -7.40181"
         style="fill:#ffffff;fill-opacity:1;fill-rule:evenodd;stroke:none;stroke-width:0.0352778"
         id="path26" />
      <path
         d="m 151.90264,156.44813 c 1.18636,0 11.03825,0 11.45096,0 2.83683,0 3.50753,1.88242 3.50753,2.68217 0,1.34091 -0.0258,2.24367 0,3.48153 0.0257,0.85122 -0.69646,2.73389 -3.53328,2.73389 -3.1206,0 -10.10987,0 -11.42521,0 z m 2.45015,6.93745 c 0.43836,0 7.45342,0 8.3045,0 1.46995,0 1.80534,-1.21222 1.80534,-1.83099 0,-0.23213 0,0.0515 0,-1.34126 0,-0.59302 -0.33539,-1.77941 -1.83113,-1.77941 -0.79954,0 -7.63404,0 -8.27871,0 v 4.95166"
         style="fill:#ffffff;fill-opacity:1;fill-rule:evenodd;stroke:none;stroke-width:0.0352778"
         id="path28" />
      <path
         d="m 187.10638,157.94391 4.64255,3.71369 -9.54264,5.64822 -0.77364,0.0256 6.91198,-5.69962 -5.00345,-3.68794 h 3.7652"
         style="fill:#87bee9;fill-opacity:1;fill-rule:evenodd;stroke:none;stroke-width:0.0352778"
         id="path30" />
      <path
         d="m 193.01258,165.34572 -4.69406,-3.71387 11.08992,-6.75711 h 0.77365 l -8.43316,6.78286 5.0031,3.68812 h -3.73945"
         style="fill:#2f97da;fill-opacity:1;fill-rule:evenodd;stroke:none;stroke-width:0.0352778"
         id="path32" />
      <path
         d="m 154.50756,168.72413 h 1.03159 l -1.08328,3.73969 h -1.57317 l -1.05735,-3.73969 h 1.03159 l 0.7994,2.88851 h 0.0259 l 0.82529,-2.88851"
         style="fill:#ffffff;fill-opacity:1;fill-rule:evenodd;stroke:none;stroke-width:0.0352778"
         id="path34" />
      <path
         d="m 163.53412,168.72413 h 1.00584 v 3.73969 h -1.00584 v -3.73969"
         style="fill:#ffffff;fill-opacity:1;fill-rule:evenodd;stroke:none;stroke-width:0.0352778"
         id="path36" />
      <path
         d="m 172.8702,168.72413 h 1.88267 c 1.05738,0 1.52178,0.38692 1.52178,1.4443 v 0.79954 c 0,1.00584 -0.33528,1.49585 -1.3928,1.49585 h -2.01165 z m 0.98006,2.86286 h 0.87683 c 0.38696,0 0.51583,-0.2322 0.51583,-0.61902 v -0.79954 c 0,-0.4899 -0.15477,-0.59309 -0.51583,-0.59309 h -0.87683 v 2.01165"
         style="fill:#ffffff;fill-opacity:1;fill-rule:evenodd;stroke:none;stroke-width:0.0352778"
         id="path38" />
      <path
         d="m 185.55909,170.22012 h 1.59914 v 0.69631 h -1.59914 v 0.7221 h 1.72791 v 0.82529 h -2.73368 v -3.73969 h 2.70793 v 0.79953 h -1.70216 v 0.69646"
         style="fill:#ffffff;fill-opacity:1;fill-rule:evenodd;stroke:none;stroke-width:0.0352778"
         id="path40" />
      <path
         d="m 195.53988,171.12273 v -1.05752 c 0,-1.16043 0.72214,-1.39262 1.72791,-1.39262 1.03187,0 1.75401,0.23219 1.75401,1.39262 v 1.05752 c 0,1.16057 -0.72214,1.36688 -1.75401,1.36688 -1.00577,0 -1.72791,-0.20631 -1.72791,-1.36688 z m 2.45004,-0.10322 v -0.85108 c 0,-0.56733 -0.20602,-0.61901 -0.72213,-0.61901 -0.51576,0 -0.67028,0.0517 -0.69603,0.61901 v 0.85108 c 0.0257,0.56748 0.18027,0.61902 0.69603,0.61902 0.51611,0 0.72213,-0.0515 0.72213,-0.61902"
         style="fill:#ffffff;fill-opacity:1;fill-rule:evenodd;stroke:none;stroke-width:0.0352778"
         id="path42" />
      <path
         d="m 195.46262,161.50308 c 0,-1.05762 0.8509,-1.90888 1.90853,-1.90888 1.05728,0 1.90853,0.85126 1.90853,1.90888 0,1.05728 -0.85125,1.90828 -1.90853,1.90828 -1.05763,0 -1.90853,-0.851 -1.90853,-1.90828 z m 3.37856,0 c 0,-0.8255 -0.64488,-1.47037 -1.47003,-1.47037 -0.82515,0 -1.47038,0.64487 -1.47038,1.47037 0,0.82515 0.64523,1.46992 1.47038,1.46992 0.82515,0 1.47003,-0.64477 1.47003,-1.46992 z m -0.51576,1.05728 h -0.49001 l -0.46426,-0.85125 h -0.387 v 0.85125 H 196.546 v -2.0634 h 1.05728 c 0.4639,0 0.79939,0.0776 0.79939,0.61913 0,0.38699 -0.20637,0.54151 -0.56726,0.56726 z m -0.72214,-1.18639 c 0.23213,0 0.36089,-0.0515 0.36089,-0.30939 0,-0.25788 -0.25788,-0.25788 -0.46425,-0.25788 h -0.51577 v 0.56727 h 0.61913"
         style="fill:#ffffff;fill-opacity:1;fill-rule:evenodd;stroke:none;stroke-width:0.0352778"
         id="path44" />
    </g>
    <path
       style="fill:#000000;stroke-width:0.0590349"
       d="m 90.49411,176.09278 c -0.568215,-0.0234 -1.258919,-0.0732 -1.53491,-0.11064 -2.032442,-0.27565 -4.135407,-1.18146 -5.731072,-2.46854 -0.246094,-0.19851 -0.751729,-0.67653 -1.123632,-1.06227 -1.663985,-1.72591 -2.729799,-3.97236 -3.005005,-6.33375 -0.09187,-0.78825 -0.04652,-2.70423 0.08289,-3.50255 0.414336,-2.5559 1.49956,-5.01805 3.086381,-7.00236 2.83434,-3.54431 7.543937,-6.00839 12.40832,-6.49209 4.312059,-0.42877 8.269068,1.24653 10.355978,4.38446 0.5588,0.84023 1.2036,2.24519 1.1328,2.46826 -0.072,0.22674 -0.24866,0.12831 -0.35596,-0.19828 -0.36455,-1.10955 -1.12989,-2.32842 -2.01079,-3.2023 -1.11373,-1.10487 -2.87292,-1.99505 -4.606919,-2.33118 -2.150483,-0.41688 -4.337706,-0.25405 -6.868002,0.51127 -2.875345,0.86968 -5.231599,2.23918 -7.143228,4.15175 -2.036782,2.03779 -3.280974,4.42353 -3.817486,7.32003 -0.150638,0.81325 -0.151671,3.01644 -0.0017,3.7118 0.374215,1.73558 1.134086,3.11642 2.367981,4.30311 1.301189,1.25141 2.986269,2.10836 4.911959,2.49798 0.792147,0.16028 2.76672,0.22381 3.666745,0.11798 2.515287,-0.29578 4.574907,-1.2548 6.025795,-2.80581 0.783396,-0.83744 1.164846,-1.50284 1.947685,-3.39744 0.26161,-0.63315 0.73302,-1.73563 1.04759,-2.44995 1.27442,-2.89408 1.26481,-2.86517 1.03015,-3.09983 -0.11287,-0.11288 -0.17433,-0.1273 -0.41893,-0.0983 -0.48251,0.0571 -0.89114,0.42311 -1.23091,1.10242 -0.0893,0.17858 -0.715439,1.56664 -1.391379,3.08457 l -1.228975,2.75989 H 95.88576 c -2.059323,0 -2.203745,-0.007 -2.204017,-0.10332 -1.58e-4,-0.0568 0.610858,-1.47365 1.357805,-3.14852 1.145705,-2.569 1.358089,-3.08854 1.358089,-3.32218 0,-0.24761 -0.01721,-0.28359 -0.162343,-0.33955 -0.414364,-0.15977 -0.941757,0.10264 -1.31816,0.65586 -0.121508,0.17858 -0.806903,1.63753 -1.523109,3.24211 -0.716205,1.60457 -1.322963,2.93693 -1.348338,2.9608 -0.02538,0.0239 -1.012889,0.0526 -2.194461,0.0639 -1.861209,0.0177 -2.155508,0.009 -2.202195,-0.0681 -0.04936,-0.0811 0.830082,-2.10626 3.377857,-7.77858 l 0.431215,-0.96004 2.129525,0.0155 c 2.076914,0.0151 2.13005,0.0184 2.150805,0.13356 0.0367,0.20364 0.09796,0.21336 0.427387,0.0678 0.668791,-0.2955 1.316585,-0.41868 2.209491,-0.42017 0.68981,-0.001 0.89496,0.0201 1.24054,0.12868 0.476879,0.14979 0.894079,0.40856 1.056699,0.65542 l 0.11294,0.17144 0.47742,-0.22347 c 1.61026,-0.75379 3.44089,-0.95958 4.61802,-0.51916 0.42433,0.15875 0.92569,0.62141 1.06519,0.98295 0.15637,0.40523 0.13393,1.04698 -0.0562,1.60645 -0.36384,1.07079 -2.73511,6.22459 -3.45668,7.51288 -1.73604,3.09951 -3.675479,4.93147 -6.323616,5.97318 -1.112111,0.43748 -2.728252,0.76835 -4.061935,0.8316 -1.312674,0.0623 -1.545819,0.0644 -2.553564,0.0229 z m 13.48971,-3.59575 c -0.0199,-0.0323 0.45904,-1.16796 1.06441,-2.52375 2.10285,-4.70954 2.45081,-5.49041 3.62392,-8.13242 l 1.17956,-2.65657 h 2.32006 2.32005 l 0.0187,0.16234 c 0.0228,0.19832 0.0352,0.19873 0.437,0.0147 0.63496,-0.29069 1.18908,-0.39912 2.05331,-0.40176 1.80645,-0.006 2.8639,0.53197 3.19569,1.62436 0.53008,1.74515 -1.07427,4.94779 -3.18041,6.34882 -1.21496,0.8082 -2.33931,1.16915 -3.85256,1.2368 -0.8316,0.0372 -1.22912,-0.0345 -1.85329,-0.33405 -0.19713,-0.0946 -0.36309,-0.16712 -0.3688,-0.16114 -0.006,0.006 -0.45423,1.00711 -0.99672,2.22471 -0.54248,1.21759 -1.03693,2.31342 -1.09877,2.43519 l -0.11243,0.22138 h -2.35672 c -1.49785,0 -2.36993,-0.0214 -2.39298,-0.0587 z m 9.08949,-6.10598 c 0.64325,-0.26876 1.45044,-1.47771 2.18473,-3.27213 0.36201,-0.88465 0.51923,-1.53644 0.49142,-2.03719 -0.0173,-0.31275 -0.048,-0.42362 -0.13479,-0.48704 -0.41393,-0.30267 -1.27907,0.27597 -1.95145,1.30521 -0.57487,0.87996 -1.27601,2.42927 -1.47513,3.25962 -0.12271,0.51166 -0.0972,1.02333 0.0596,1.1966 0.13048,0.14418 0.5243,0.16084 0.82564,0.0349 z m 8.99587,1.7062 c -0.78925,-0.10768 -1.22871,-0.23499 -1.87693,-0.54375 -0.4421,-0.21058 -0.64791,-0.35432 -0.99575,-0.69547 -0.24116,-0.2365 -0.42871,-0.45809 -0.4168,-0.49239 0.0371,-0.10668 2.23436,-1.72068 2.34112,-1.71964 0.0556,4.4e-4 0.27366,0.0645 0.48472,0.14206 0.33347,0.12261 0.38191,0.15921 0.36988,0.27944 -0.0817,0.81657 -0.0849,1.06334 -0.0161,1.22939 0.17701,0.42735 0.80794,0.60757 1.57763,0.45064 0.71205,-0.14517 1.14778,-0.3911 1.73046,-0.97667 0.74808,-0.7518 1.15571,-1.60734 1.10974,-2.3292 -0.0284,-0.44527 -0.1776,-0.68231 -0.54012,-0.8578 -0.22766,-0.11021 -0.36109,-0.12313 -1.27069,-0.12313 -0.86261,0 -1.02163,-0.0138 -1.05137,-0.0913 -0.0313,-0.0815 0.38996,-1.12469 0.52927,-1.31076 0.0387,-0.0516 0.26182,-0.0738 0.74404,-0.0738 0.79031,0 1.18695,-0.0839 1.82941,-0.38691 0.90346,-0.42614 1.74658,-1.50911 1.90785,-2.4506 0.0569,-0.33202 0.0516,-0.40956 -0.041,-0.6047 -0.14568,-0.30702 -0.44784,-0.45409 -0.93291,-0.45409 -0.64235,0 -1.27444,0.24029 -1.72533,0.65592 -0.30628,0.28232 -0.45642,0.57274 -0.49916,0.96557 l -0.0319,0.29321 -0.53131,0.16479 c -0.29223,0.0906 -0.56136,0.15334 -0.59809,0.13934 -0.0828,-0.0316 -1.08441,-1.62519 -1.08441,-1.72536 0,-0.0928 0.84171,-0.65068 1.40968,-0.9344 1.45318,-0.72591 3.54528,-1.10797 5.3282,-0.97301 1.95176,0.14774 3.01366,0.82049 3.10575,1.9676 0.11759,1.465 -1.15566,2.90065 -3.2022,3.61066 -0.25975,0.0901 -0.49465,0.18337 -0.522,0.20721 -0.0273,0.0239 0.1166,0.13201 0.3199,0.24036 1.1807,0.62931 1.5277,1.70437 0.96457,2.98844 -0.42103,0.96005 -1.39039,1.89885 -2.58592,2.50441 -0.5427,0.27489 -1.64553,0.65236 -2.27948,0.78022 -1.12202,0.22629 -2.45791,0.27285 -3.55073,0.12374 z"
       id="path2521" />
    <g
       id="g1943"
       transform="matrix(0.24824853,0,0,0.24824853,18.732022,110.62944)">
      <path
         style="fill:#ffffff;fill-opacity:1;stroke:#ffffff;stroke-width:3.77953;stroke-linecap:round;stroke-miterlimit:4;stroke-dasharray:none;stroke-opacity:1"
         d="m 390.48815,574.75167 c 0.0669,61.63214 -0.13347,123.375 0.10013,184.93811 99.85904,-0.0668 199.82869,0.1335 299.61861,-0.10014 -0.0616,-39.44804 0.12296,-78.99214 -0.0922,-118.38021 -17.20187,-2.1772 -37.67779,0.57629 -50.89738,-13.18878 -9.81419,-7.95306 -12.92082,-20.6408 -12.47873,-32.7717 -1.03743,-6.38611 0.42981,-15.03742 -1.89586,-20.29438 -78.10233,-0.45122 -156.31989,-0.35207 -234.35454,-0.2029 z m 192.91199,64.41028 c -0.76306,3.13052 1.62815,10.71487 -3.99222,9.67353 -44.89274,1.79294 -89.93153,3.0716 -134.83294,1.13802 -10.59922,2.07394 -4.28953,-11.57917 -5.99059,-17.78145 48.27895,-0.2314 96.55789,-0.46417 144.83682,-0.69831 -0.007,2.55607 -0.014,5.11214 -0.0211,7.66821 z m 58.03591,34.18016 c -0.15557,6.26834 0.14589,12.57941 1.66541,18.68828 -68.39723,0 -136.79445,0 -205.19166,0 0.91891,-5.30296 -1.56499,-12.69541 1.61796,-17.20471 30.54128,-2.6649 61.43566,-0.88347 92.10805,-1.47974 36.60007,-0.009 73.20017,-0.001 109.80024,-0.004 z m -101.08853,41.82465 c 34.1459,0 68.29181,0 102.43772,0 -1.48138,6.48817 4.52317,20.07138 -6.73623,17.29207 -61.4347,2.12028 -122.95991,1.51489 -184.42219,0.86474 -4.04333,-1.26704 -13.1624,2.30607 -13.24534,-4.45154 -0.14526,-4.31111 -1.97125,-11.66356 0.8775,-13.70527 33.69618,0 67.39236,0 101.08854,0 z"
         id="path1496"
         transform="scale(0.26458333)" />
      <path
         style="fill:#ffffff;fill-opacity:1;stroke:#ffffff;stroke-width:3.77953;stroke-linecap:round;stroke-miterlimit:4;stroke-dasharray:none;stroke-opacity:1"
         d="m 390.48815,960.61781 c 0.0666,15.31035 -0.13329,30.73108 0.10013,45.97229 99.85904,-0.067 199.82869,0.1335 299.61861,-0.1001 -0.0666,-15.31035 0.13329,-30.73108 -0.10014,-45.97233 -99.859,0.0667 -199.82874,-0.13348 -299.6186,0.10014 z"
         id="path1535"
         transform="scale(0.26458333)" />
      <path
         style="fill:#ffffff;fill-opacity:1;stroke:#ffffff;stroke-width:3.77953;stroke-linecap:round;stroke-miterlimit:4;stroke-dasharray:none;stroke-opacity:1"
         d="m 420.56542,816.24739 c -2.99293,23.18916 -0.21318,46.76979 -2.8512,69.89661 -4.9431,8.49896 -20.61888,4.85736 -20.81067,-5.39035 0.36753,-7.81078 -8.31892,-3.36254 -13.07963,-3.13427 -5.56863,2.9115 -1.17075,10.96872 0.64297,15.15458 4.86372,11.6077 18.8035,13.54153 29.77424,11.46015 12.69979,-1.07059 22.19955,-13.19596 20.72886,-25.79688 0.39925,-20.74396 0.27642,-41.60384 0.14131,-62.28206 -4.83246,0.0687 -9.7735,-0.12913 -14.54588,0.0922 z"
         id="path1574"
         transform="scale(0.26458333)" />
      <path
         style="fill:#ffffff;fill-opacity:1;stroke:#ffffff;stroke-width:3.77953;stroke-linecap:round;stroke-miterlimit:4;stroke-dasharray:none;stroke-opacity:1"
         d="m 456.59808,815.83105 c 0.0671,29.39312 -0.13357,58.89713 0.10013,88.22124 7.2994,-0.80626 20.24824,3.91536 16.29033,-8.19523 0.896,-7.60057 -1.79757,-18.53709 1.34556,-24.04931 14.44728,-2.04689 33.33424,0.66968 43.43306,-12.34172 10.48538,-13.65588 3.88036,-39.41685 -14.70925,-41.22385 -15.41642,-1.60103 -31.05039,-1.94431 -46.45983,-2.41113 z m 27.41317,14.63019 c 7.7603,0.61636 20.11464,0.7519 20.98347,11.07805 2.24041,9.04864 -7.30584,15.33497 -15.46025,14.76986 -5.12722,-0.68239 -15.92141,3.31059 -16.54593,-2.37688 0,-8.11969 0,-16.23938 0,-24.35906 3.67423,0.29601 7.34847,0.59202 11.02271,0.88803 z"
         id="path1613"
         transform="scale(0.26458333)" />
      <path
         style="fill:#ffffff;fill-opacity:1;stroke:#ffffff;stroke-width:3.77953;stroke-linecap:round;stroke-miterlimit:4;stroke-dasharray:none;stroke-opacity:1"
         d="m 538.8982,816.2553 c 0.0672,29.25165 -0.13356,58.6143 0.10013,87.79699 22.05592,-0.0674 44.22308,0.13369 66.21007,-0.10014 1.34993,-9.44724 0.60474,-16.97645 -10.89359,-13.59196 -13.00872,0 -26.01744,0 -39.02615,0 0,-8.47806 0,-16.95613 0,-25.43419 14.82663,-0.0681 29.76519,0.13407 44.52301,-0.10014 1.34993,-9.44724 0.60474,-16.97644 -10.89359,-13.59195 -11.20981,0 -22.41962,0 -33.62942,0 2.04178,-6.12897 -4.43746,-19.69342 4.01025,-20.23254 14.31806,-1.77443 28.89372,-0.83315 43.21113,-1.25425 1.34993,-9.44724 0.60474,-16.97645 -10.8936,-13.59195 -17.5584,0.0673 -35.22908,-0.13401 -52.71824,0.10013 z"
         id="path1652"
         transform="scale(0.26458333)" />
      <path
         style="fill:#ffffff;fill-opacity:1;stroke:#ffffff;stroke-width:3.77953;stroke-linecap:round;stroke-miterlimit:4;stroke-dasharray:none;stroke-opacity:1"
         d="m 658.38516,815.49111 c -22.71283,-0.18708 -40.52684,21.56394 -39.6902,43.53485 -1.07145,19.08905 9.89928,39.81033 29.56079,44.29376 17.55112,4.58917 36.61592,-0.2446 51.39541,-10.27434 -0.0667,-11.67471 0.13337,-23.45993 -0.10013,-35.06556 -12.61202,0.0665 -25.33431,-0.13319 -37.87724,0.10013 -1.34993,9.44724 -0.60474,16.97645 10.89359,13.59196 8.3348,-1.58769 12.90068,0.54486 10.18211,9.22029 -1.36899,6.81761 -10.40844,8.13669 -16.1085,9.61819 -13.16968,2.62743 -27.57188,-5.75409 -29.4343,-19.58949 -2.64294,-14.2013 -1.20422,-34.02036 14.75668,-39.62432 10.63295,-3.64673 24.36112,-1.0802 29.55816,9.87116 3.69303,3.98294 9.66366,-0.65792 14.17695,-0.59554 6.07254,-1.09637 -0.75037,-7.96923 -1.71019,-10.71704 -7.09595,-11.87402 -22.89714,-14.57536 -35.60313,-14.36405 z"
         id="path1691"
         transform="scale(0.26458333)" />
      <path
         style="fill:#000000;stroke-width:0.264583"
         d="m 98.978808,271.85438 c -0.30265,-0.14755 -0.74914,-0.60492 -0.99219,-1.01636 -0.38689,-0.65496 -0.4419,-1.75591 -0.4419,-8.84321 v -8.09511 h -5.14438 c -5.01611,0 -5.15464,-0.0147 -5.55625,-0.58804 -0.36578,-0.52223 -0.41187,-3.40731 -0.41187,-25.77767 v -25.18964 l 0.69714,-0.54837 c 0.64779,-0.50956 1.04105,-0.54837 5.55625,-0.54837 h 4.85911 v -26.45416 -26.45416 l 0.77201,-0.86407 0.77202,-0.86407 34.086842,-0.076 c 18.74776,-0.0418 34.47572,-0.006 34.95103,0.0789 0.69961,0.12546 2.65352,1.94705 10.25906,9.56435 5.16718,5.17515 9.51102,9.62641 9.65299,9.89168 0.16025,0.29943 0.25813,7.06019 0.25813,17.82991 v 17.34761 h 5.02708 c 4.67431,0 5.06422,0.0371 5.55625,0.52916 0.5218,0.52181 0.52917,0.88195 0.52917,25.88817 0,24.1023 -0.0237,25.38039 -0.4772,25.79084 -0.39943,0.36149 -1.29408,0.44362 -5.4901,0.50403 l -5.01291,0.0722 -0.0698,8.20235 -0.0698,8.20235 -0.63268,0.79348 -0.63269,0.79349 -43.74749,0.0495 c -29.12835,0.033 -43.931382,-0.0401 -44.297772,-0.21877 z M 182.74055,260.2497 v -6.35 h -39.8198 -39.81978 v 6.35 6.35 h 39.81978 39.8198 z m -71.66749,-21.04202 c 1.46651,-0.49969 3.04438,-1.98857 3.77725,-3.56423 0.52876,-1.13683 0.55378,-1.60903 0.55378,-10.45105 v -9.26042 h -2.24896 -2.24896 l -0.13229,9.21752 -0.13229,9.21752 -0.74236,0.63822 c -0.54785,0.47099 -1.05579,0.63821 -1.93858,0.63821 -1.5992,0 -2.61834,-0.97228 -2.88532,-2.75267 l -0.18763,-1.2512 -1.75326,0.17112 c -2.77126,0.27048 -2.7326,0.24492 -2.52872,1.67187 0.39979,2.79792 1.89264,4.95174 3.95552,5.70682 1.41605,0.51831 5.01467,0.52842 6.51182,0.0183 z m 68.66305,-0.15446 c 2.07977,-0.64094 3.55923,-1.33979 4.79037,-2.26283 l 0.8599,-0.6447 v -4.61675 -4.61674 h -5.15938 -5.15937 v 1.85208 1.85208 h 2.79075 2.79075 l -0.0788,1.65365 -0.0788,1.65365 -1.57841,0.78832 c -3.86521,1.93045 -7.95023,0.85583 -9.68686,-2.54826 -0.75149,-1.47303 -1.0978,-4.41071 -0.76531,-6.49199 0.64314,-4.02589 2.75395,-5.98856 6.47433,-6.01995 2.71364,-0.0229 3.80587,0.62787 5.2967,3.15588 0.25282,0.42871 0.40765,0.43117 2.48381,0.0396 1.21781,-0.22969 2.24528,-0.45084 2.28328,-0.49144 0.038,-0.0406 -0.17458,-0.72378 -0.4724,-1.51816 -1.16328,-3.10288 -4.13398,-4.95063 -8.40077,-5.22523 -2.70009,-0.17376 -4.69635,0.1966 -6.84391,1.26975 -7.34721,3.67145 -7.81925,16.40052 -0.78138,21.07131 2.56677,1.70348 7.65902,2.20192 11.23544,1.09974 z m -54.41015,-4.07123 v -4.36563 l 1.91823,-0.005 c 6.48877,-0.0159 9.21613,-1.09344 10.58177,-4.18072 1.59991,-3.61687 0.3164,-8.02425 -2.80215,-9.62217 -0.89513,-0.45865 -1.84693,-0.60619 -5.13321,-0.79566 -2.21888,-0.12792 -5.19544,-0.19852 -6.61459,-0.15686 l -2.58025,0.0757 -0.0689,11.70782 -0.0689,11.70781 h 2.384 2.384 z m 0,-11.7988 v -3.46441 l 2.92642,0.16975 c 1.60953,0.0934 3.20124,0.27424 3.53713,0.40195 1.0747,0.4086 1.73854,1.53465 1.73854,2.94905 0,2.4996 -1.70061,3.4025 -6.41615,3.40655 l -1.78594,0.002 z m 34.925,14.18005 v -1.98438 h -6.61458 -6.61458 v -3.175 -3.175 h 5.95312 5.95313 v -1.98437 -1.98439 h -5.96271 -5.9627 l 0.0757,-2.57968 0.0757,-2.57969 6.28385,-0.0709 6.28386,-0.0709 v -1.97959 -1.97958 h -8.59896 -8.59896 v 11.77397 11.77395 h 8.86354 8.86354 z m 22.48959,-52.12293 v -16.00729 h -3.27118 c -3.96169,0 -5.61274,-0.28309 -7.75102,-1.32899 -2.10542,-1.02984 -4.32301,-3.38771 -5.14916,-5.47488 -0.52622,-1.32943 -0.61899,-2.11272 -0.70619,-5.96227 l -0.10039,-4.43177 h -31.33082 -31.33082 v 24.60625 24.60625 h 39.81978 39.8198 z m -66.23129,8.64571 c -0.37336,-0.072 -0.44371,-0.43907 -0.44371,-2.31511 v -2.22955 h 26.8552 26.85521 v 2.24643 2.24643 l -26.41149,0.0687 c -14.52632,0.0378 -26.61117,0.0302 -26.85521,-0.0169 z m -0.38787,-13.20977 0.0764,-2.3151 h 26.72291 26.72292 l 0.0765,2.3151 0.0764,2.31511 H 142.9207 116.0449 Z m 0.1223,-8.70745 c -0.098,-0.098 -0.17814,-1.17033 -0.17814,-2.383 v -2.20486 h 19.0603 19.0603 l -0.0764,2.3151 -0.0765,2.31511 -18.80571,0.0679 c -10.34314,0.0374 -18.88588,-0.0123 -18.98385,-0.11024 z"
         id="path1280" />
    </g>
  </g>
</svg>
