<?xml version="1.0" encoding="UTF-8" standalone="no"?>
<!-- Created with Inkscape (http://www.inkscape.org/) -->

<svg
   width="201.23705mm"
   height="61.557766mm"
   viewBox="0 0 201.23705 61.557766"
   version="1.1"
   id="svg5"
   inkscape:version="1.1.1 (3bf5ae0d25, 2021-09-20)"
   sodipodi:docname="PreIntImg.svg"
   xmlns:inkscape="http://www.inkscape.org/namespaces/inkscape"
   xmlns:sodipodi="http://sodipodi.sourceforge.net/DTD/sodipodi-0.dtd"
   xmlns="http://www.w3.org/2000/svg"
   xmlns:svg="http://www.w3.org/2000/svg">
  <sodipodi:namedview
     id="namedview7"
     pagecolor="#ffffff"
     bordercolor="#666666"
     borderopacity="1.0"
     inkscape:pageshadow="2"
     inkscape:pageopacity="0.0"
     inkscape:pagecheckerboard="0"
     inkscape:document-units="mm"
     showgrid="false"
     showguides="true"
     inkscape:guide-bbox="true"
     fit-margin-top="1.8"
     fit-margin-left="1.5"
     fit-margin-right="1.5"
     fit-margin-bottom="1.5"
     lock-margins="false"
     inkscape:zoom="0.74118968"
     inkscape:cx="619.94927"
     inkscape:cy="-35.753331"
     inkscape:window-width="1920"
     inkscape:window-height="1017"
     inkscape:window-x="1912"
     inkscape:window-y="-8"
     inkscape:window-maximized="1"
     inkscape:current-layer="layer1">
    <sodipodi:guide
       position="62.154659,3.4683744"
       orientation="0,-1"
       id="guide992" />
    <sodipodi:guide
       position="101.65533,12.091304"
       orientation="0,-1"
       id="guide2027" />
    <sodipodi:guide
       position="1.8265334,-2.3323956"
       orientation="1,0"
       id="guide2116" />
    <sodipodi:guide
       position="66.795282,-8.9363657"
       orientation="1,0"
       id="guide2182" />
    <sodipodi:guide
       position="136.40466,-4.6527156"
       orientation="1,0"
       id="guide2184" />
    <sodipodi:guide
       position="156.40553,47.328167"
       orientation="0,-1"
       id="guide17559" />
    <sodipodi:guide
       position="156.40553,47.328167"
       orientation="1,0"
       id="guide17561" />
    <sodipodi:guide
       position="197.80736,52.839913"
       orientation="1,0"
       id="guide5066" />
    <sodipodi:guide
       position="198.8657,51.781579"
       orientation="1,0"
       id="guide5070" />
  </sodipodi:namedview>
  <defs
     id="defs2">
    <inkscape:path-effect
       effect="powerstroke"
       id="path-effect5146"
       is_visible="true"
       lpeversion="1"
       offset_points="0,4.99214"
       not_jump="false"
       sort_points="true"
       interpolator_type="CubicBezierJohan"
       interpolator_beta="0.2"
       start_linecap_type="zerowidth"
       linejoin_type="extrp_arc"
       miter_limit="4"
       scale_width="1"
       end_linecap_type="zerowidth" />
    <inkscape:path-effect
       effect="spiro"
       id="path-effect5144"
       is_visible="true"
       lpeversion="1" />
    <clipPath
       id="clipPath3565"
       clipPathUnits="userSpaceOnUse">
      <path
         id="path3567"
         d="M 0,576 H 788 V 0 H 0 Z" />
    </clipPath>
    <clipPath
       id="clipPath3485"
       clipPathUnits="userSpaceOnUse">
      <path
         id="path3487"
         d="M 0,576 H 788 V 0 H 0 Z" />
    </clipPath>
    <clipPath
       id="clipPath3409"
       clipPathUnits="userSpaceOnUse">
      <path
         id="path3411"
         d="M 0,576 H 788 V 0 H 0 Z" />
    </clipPath>
    <clipPath
       id="clipPath3329"
       clipPathUnits="userSpaceOnUse">
      <path
         id="path3331"
         d="M 0,576 H 788 V 0 H 0 Z" />
    </clipPath>
    <clipPath
       id="clipPath3249"
       clipPathUnits="userSpaceOnUse">
      <path
         id="path3251"
         d="M 0,576 H 788 V 0 H 0 Z" />
    </clipPath>
    <clipPath
       id="clipPath3169"
       clipPathUnits="userSpaceOnUse">
      <path
         id="path3171"
         d="M 0,576 H 788 V 0 H 0 Z" />
    </clipPath>
    <clipPath
       id="clipPath3089"
       clipPathUnits="userSpaceOnUse">
      <path
         id="path3091"
         d="M 0,576 H 788 V 0 H 0 Z" />
    </clipPath>
    <clipPath
       id="clipPath3013"
       clipPathUnits="userSpaceOnUse">
      <path
         id="path3015"
         d="M 0,576 H 788 V 0 H 0 Z" />
    </clipPath>
    <clipPath
       id="clipPath2933"
       clipPathUnits="userSpaceOnUse">
      <path
         id="path2935"
         d="M 0,576 H 788 V 0 H 0 Z" />
    </clipPath>
    <clipPath
       id="clipPath2853"
       clipPathUnits="userSpaceOnUse">
      <path
         id="path2855"
         d="M 0,576 H 788 V 0 H 0 Z" />
    </clipPath>
    <clipPath
       id="cp1"
       viewBox="0 0 250 330">
      <rect
         id="cp"
         x="0"
         width="250"
         height="330"
         y="0" />
    </clipPath>
    <filter
       inkscape:collect="always"
       style="color-interpolation-filters:sRGB"
       id="filter5623"
       x="-0.014194053"
       y="-0.017634976"
       width="1.0283881"
       height="1.03527">
      <feGaussianBlur
         inkscape:collect="always"
         stdDeviation="0.36306176"
         id="feGaussianBlur5625" />
    </filter>
  </defs>
  <g
     inkscape:label="Calque 1"
     inkscape:groupmode="layer"
     id="layer1"
     transform="translate(-1.5646923,-76.577978)">
    <g
       id="g5805">
      <rect
         style="opacity:0.578595;mix-blend-mode:normal;fill:#000000;fill-opacity:1;stroke:none;stroke-width:0.575683;stroke-linecap:round;stroke-linejoin:round;stroke-miterlimit:4;stroke-dasharray:none;stroke-opacity:1;paint-order:stroke fill markers;filter:url(#filter5623)"
         id="rect5111"
         width="61.38826"
         height="49.410229"
         x="4.4108672"
         y="86.354164"
         rx="0"
         ry="0" />
      <rect
         style="fill:#f2f2f2;stroke:#000000;stroke-width:0.575683;stroke-linecap:round;stroke-linejoin:round;stroke-miterlimit:4;stroke-dasharray:none;stroke-opacity:1;paint-order:stroke fill markers"
         id="rect1086"
         width="61.38826"
         height="49.410229"
         x="3.3525338"
         y="85.29583"
         rx="0"
         ry="0" />
      <path
         id="path3176"
         sodipodi:nodetypes="cccccccccccc"
         style="fill:#c8b7b7;fill-opacity:1;stroke:#000000;stroke-width:0.276;stroke-linecap:round;stroke-linejoin:round;stroke-miterlimit:4;stroke-dasharray:none"
         d="m 23.39209,90.807578 -8.674787,8.99253 v -4.668174 l -4.839569,-0.346239 0.334005,8.820625 -6.0050826,5.53256 5.0054034,0.17433 v 20.06249 l 27.1922102,-0.52057 -0.165835,-19.54192 4.269658,-0.34624 z" />
      <g
         transform="matrix(-0.05943313,0,0,0.06161007,66.99834,110.94998)"
         id="g844"
         style="fill:#000000">
        <path
           d="m 123,34 c -19,0 -36,14 -37,33 -1,6 -1,13 0,16 2,6 12,19 20,22 9,5 7,9 -9,18 -8,5 -18,11 -22,14 -7,5 -7,5 -9,22 0,9 -2,22 -4,30 -2,7 -2,14 -2,15 1,1 5,3 9,3 4,1 8,3 9,4 2,4 11,-2 11,-7 0,-3 1,-6 2,-7 3,-2 -2,-17 -6,-17 -1,0 -2,-6 -2,-14 v -14 l 11,-5 c 15,-7 15,-6 15,5 0,11 -3,25 -10,39 -3,7 -4,12 -3,20 2,18 -11,31 -35,34 -4,1 -8,3 -9,5 -2,4 3,36 5,39 6,7 32,6 32,-1 0,-2 -2,-5 -4,-7 -13,-11 -15,-16 -6,-17 10,-2 19,-10 26,-22 l 6,-12 7,8 c 13,14 21,37 21,56 v 9 l 7,-2 c 23,-4 53,-29 40,-34 -3,-1 -16,1 -23,4 -2,1 -4,-2 -9,-12 -3,-8 -9,-19 -14,-26 l -8,-13 7,-14 c 5,-10 7,-17 8,-26 0,-6 1,-12 2,-12 0,0 3,2 7,4 l 7,4 8,-7 c 4,-4 9,-7 10,-7 6,0 12,-5 12,-10 0,-5 -5,-19 -10,-26 -3,-4 -3,-5 -9,-2 -3,2 -7,6 -10,10 -4,7 -4,7 -1,11 2,2 2,4 0,6 -2,3 -4,1 -18,-13 -18,-20 -20,-26 -9,-31 33,-13 34,-54 2,-69 -5,-2 -10,-4 -15,-4 z m -1,4 c 21,-1 36,13 36,33 0,6 -2,14 -3,17 -4,8 -15,16 -23,17 -6,2 -6,2 -4,11 0,5 3,14 6,20 8,17 12,35 10,46 -1,10 -12,34 -15,34 -3,0 -2,4 6,14 5,7 17,29 24,44 0,0 5,-1 12,-3 9,-2 13,-3 15,-1 3,3 -11,17 -24,23 -21,9 -21,9 -21,-1 0,-23 -9,-44 -28,-63 -14,-13 -15,-14 -15,-23 0,-5 2,-13 6,-20 6,-12 10,-35 8,-41 -1,-2 0,-4 2,-5 5,-4 -11,0 -22,5 l -11,5 v 15 c 0,12 0,15 -3,17 -3,2 -3,2 2,2 5,-1 6,0 8,4 2,6 2,10 -1,6 -1,-2 -1,-1 -1,5 0,6 0,8 -3,9 -2,0 -4,-1 -5,-5 -1,-3 -2,-5 -6,-5 -2,0 -5,1 -6,2 0,2 1,2 4,1 3,-1 5,0 5,1 0,2 -11,3 -12,0 -1,0 0,-5 1,-10 2,-5 4,-18 5,-28 0,-11 1,-20 2,-21 3,-4 39,-25 44,-25 4,0 5,0 3,-1 -2,-1 -3,-4 -3,-7 0,-3 -3,-5 -7,-7 C 88,95 81,68 94,51 c 7,-9 16,-13 28,-13 z m 56,87 c 1,0 3,2 4,4 4,5 4,6 -1,10 -6,7 -7,6 -10,-1 -2,-6 -1,-9 4,-12 1,0 2,0 3,-1 z m -40,10 c 1,-1 5,4 11,10 10,12 12,13 16,8 4,-4 16,1 13,6 0,1 -2,0 -4,-1 -3,-2 -3,-2 -2,1 1,3 0,5 -3,9 -5,5 -7,5 -15,0 -5,-4 -8,-8 -12,-19 -2,-7 -4,-14 -4,-14 z m 27,3 c 1,-1 3,1 5,4 5,8 4,10 -2,3 -3,-2 -4,-5 -4,-7 1,0 1,0 1,0 z m 20,0 c 2,0 2,1 3,3 1,2 0,5 -3,7 -3,2 -4,4 -2,4 1,0 3,-1 4,-2 2,-2 3,-2 4,1 0,2 0,4 -2,5 -5,3 -7,3 -9,-4 -3,-5 -3,-6 0,-10 3,-2 4,-3 5,-4 z m -84,84 c 2,0 3,1 4,3 3,3 2,5 -2,13 -5,13 -13,19 -24,23 -5,1 -9,2 -9,2 -2,2 5,15 8,16 5,2 10,7 8,9 0,1 -6,2 -13,2 -14,0 -16,-2 -16,-24 l -1,-16 11,-3 c 15,-4 23,-9 27,-17 3,-5 5,-8 7,-8 z"
           id="path842"
           style="fill:#000000" />
      </g>
      <path
         id="path3163"
         sodipodi:nodetypes="ccccc"
         style="fill:#c87137;fill-opacity:0.99219;stroke:#000000;stroke-width:0.237809;stroke-linecap:round;stroke-linejoin:round"
         d="m 23.79383,110.12433 0.0981,17.62187 9.562353,-0.24455 -0.0981,-17.50081 z" />
      <path
         id="path3165"
         sodipodi:nodetypes="ccccc"
         style="fill:#d6e5fe;fill-opacity:1;stroke:#000000;stroke-width:0.237809;stroke-linecap:round;stroke-linejoin:round"
         d="m 12.229783,110.2236 0.334005,9.3654 7.992763,-0.59078 0.235905,-9.11844 z" />
      <path
         id="path3182"
         sodipodi:nodetypes="ccccc"
         style="fill:#c87137;fill-opacity:0.99219;stroke:#000000;stroke-width:0.237809;stroke-linecap:round;stroke-linejoin:round"
         d="m 12.103655,118.89652 0.158828,1.90311 9.137255,-0.41888 0.156492,-1.72877 z" />
      <path
         id="path3188"
         sodipodi:nodetypes="ccccc"
         style="fill:#d6e5fe;fill-opacity:1;stroke:#000000;stroke-width:0.237809;stroke-linecap:round;stroke-linejoin:round"
         d="m 25.473198,112.00564 -0.235906,6.426 h 6.43018 l -0.235906,-6.54222 z" />
      <ellipse
         id="path3190"
         style="fill:#ffffff;fill-opacity:0.99219;stroke:#000000;stroke-width:0.237809;stroke-linecap:round;stroke-linejoin:round"
         cx="30.988916"
         cy="120.84629"
         rx="0.5013752"
         ry="0.51973975" />
      <path
         id="path3200"
         style="fill:#d5e5ff;fill-opacity:0.99219;stroke:#000000;stroke-width:0.237809;stroke-linecap:round;stroke-linejoin:round"
         d="m 21.168504,100.26983 v 4.40426 h 3.891275 v -4.40426 z" />
      <path
         id="path2558"
         style="fill:#aad400;stroke:#000000;stroke-width:0.266667;stroke-linecap:round;stroke-linejoin:round;stroke-miterlimit:4;stroke-dasharray:none;stroke-opacity:1;paint-order:stroke fill markers"
         d="m 225.58398,428.24219 c -0.79709,-10e-4 -1.58232,0.0479 -2.01953,0.14843 -1.52691,0.3515 -2.61943,0.95556 -3.68945,2.03711 -1.39671,1.41177 -2.06714,3.15321 -2.06641,5.375 3.7e-4,1.13061 0.13407,2.12278 0.45118,3.34375 0.25052,0.96454 0.69092,1.65128 1.64062,2.5586 1.12681,1.07656 2.08522,1.61872 3.68359,2.08398 0.79426,0.2312 1.10198,0.43177 1.16797,0.76172 0.0297,0.14854 -0.0217,0.64368 -0.11523,1.125 -0.0919,0.47324 -0.16585,0.98106 -0.16602,1.12695 -1.5e-4,0.14582 -0.11232,0.70486 -0.24804,1.24219 -0.2339,0.92614 -0.45223,1.51219 -1.56446,4.1836 -0.9449,2.26953 -1.64109,4.97496 -1.80078,7 -0.0899,1.13998 -4e-5,2.42331 0.24219,3.45312 0.62499,2.6569 2.591,6.91797 3.19141,6.91797 0.19925,0 0.34765,0.16524 0.34765,0.38672 0,0.30754 -0.63263,1.45577 -1.36328,2.47265 -0.99735,1.38807 -2.21245,3.55828 -4.07031,7.27344 -0.89699,1.79369 -1.64592,3.3069 -1.66406,3.36133 -0.0229,0.0688 -0.58629,-0.0445 -1.84375,-0.36914 -2.84742,-0.73497 -3.58045,-0.84383 -4.04883,-0.60156 -0.32449,0.16796 -0.32435,0.45255 -0.002,1.00976 0.66494,1.14917 2.47292,2.79631 4.25196,3.8711 0.71525,0.43211 3.14018,1.5269 4.12695,1.86328 v 0.002 c 0.73743,0.25096 1.02079,0.26237 1.23438,0.0488 0.19955,-0.19952 0.23981,-0.51132 0.29492,-2.2832 0.0935,-3.00454 0.73424,-5.52668 2.08593,-8.19922 1.24903,-2.46955 2.54631,-4.17055 5.12891,-6.72657 0.72633,-0.71886 1.49858,-1.54737 1.71485,-1.84179 0.52575,-0.7155 0.64648,-1.16392 0.64648,-2.38281 0,-1.53215 -0.25283,-2.54393 -1.10352,-4.39454 -0.86752,-1.88715 -1.43723,-3.78576 -1.85546,-6.19336 -0.20183,-1.16197 -0.26898,-3.25673 -0.12891,-4.0039 0.0731,-0.38975 0.0707,-0.39798 -0.32617,-0.82227 -0.46762,-0.4981 -0.41535,-0.56834 0.37109,-0.48633 1.07172,0.11203 3.09975,0.83703 5.53125,1.97852 l 1.43359,0.67383 0.043,3.31836 c 0.0484,3.75878 0.0388,3.70981 0.72852,4.20508 0.20133,0.14475 0.36719,0.29833 0.36719,0.34179 0,0.0839 -0.41388,0.10849 -1.41016,0.082 -0.59169,-0.0159 -0.61804,-0.009 -0.86719,0.26368 -0.30452,0.33339 -0.54709,0.94414 -0.68164,1.71679 -0.12458,0.71532 -0.0234,0.8512 0.31446,0.42774 0.13277,-0.1663 0.26424,-0.30274 0.29296,-0.30274 0.0289,0 0.0694,0.6406 0.0898,1.42383 0.0402,1.54481 0.10154,1.76888 0.54492,1.9707 0.17786,0.0813 0.26665,0.07 0.51172,-0.0664 0.33257,-0.18539 0.44822,-0.36634 0.71094,-1.09375 0.33306,-0.92232 0.87961,-1.24486 1.78711,-1.05664 0.61875,0.12846 0.98433,0.36439 0.92382,0.5957 -0.0698,0.26646 -0.22331,0.28922 -0.89648,0.13086 -0.65044,-0.15307 -1.06836,-0.0928 -1.06836,0.15625 0,0.18346 0.29348,0.31144 0.88281,0.38477 0.7174,0.0888 1.3759,-0.0263 1.63672,-0.28711 l 0.20899,-0.20899 -0.10938,-0.74219 c -0.0597,-0.40849 -0.21516,-1.15976 -0.3457,-1.66992 -0.57413,-2.24368 -0.89643,-4.53311 -1.05078,-7.46289 -0.0648,-1.22903 -0.16211,-2.53901 -0.2168,-2.91016 -0.092,-0.62426 -0.12544,-0.69952 -0.44727,-1.01171 -0.9322,-0.9041 -5.57442,-3.76065 -8.11914,-4.9961 -1.0166,-0.49364 -1.20939,-0.55973 -1.76562,-0.59375 -0.34325,-0.0219 -0.62305,-0.0616 -0.62305,-0.0918 0,-0.0287 0.12789,-0.15382 0.28516,-0.2793 0.31965,-0.25504 0.55859,-0.83057 0.55859,-1.34961 0,-0.74563 0.44798,-1.23877 1.7207,-1.89063 1.02356,-0.52425 1.67841,-0.99871 2.30079,-1.66406 1.585,-1.69436 2.41208,-4.25197 2.13281,-6.60351 -0.39553,-3.33049 -2.6837,-5.915 -5.81836,-6.57422 -0.48457,-0.10281 -1.29275,-0.15493 -2.08985,-0.15625 z m -12.40429,20.29297 c -0.0543,0.005 -0.11339,0.0335 -0.19336,0.0859 -0.31376,0.20558 -1.25,1.66214 -1.25,1.94532 0,0.18686 0.15799,0.40803 0.6875,0.97265 0.37738,0.40241 0.8027,0.83731 0.94531,0.96485 0.3765,0.33671 0.67576,0.3081 0.93555,-0.0859 0.57165,-0.86713 0.82519,-2.1984 0.52734,-2.77149 -0.1923,-0.37001 -0.88457,-0.95898 -1.12695,-0.95898 -0.11005,0 -0.27178,-0.0449 -0.35938,-0.0996 -0.0633,-0.0395 -0.1117,-0.0576 -0.16601,-0.0527 z m 8.96289,2.27343 c -0.18039,-0.0249 -1.41667,1.22087 -2.71094,2.75977 -1.42167,1.6904 -2.04197,2.20092 -2.53125,2.07812 -0.12078,-0.0303 -0.39829,-0.24088 -0.61719,-0.46679 -0.27685,-0.28573 -0.49271,-0.42855 -0.70703,-0.46875 -1.10848,-0.20796 -2.49791,0.60459 -2.37305,1.38672 0.025,0.15648 0.0637,0.30202 0.0859,0.32422 0.0455,0.0455 0.8159,-0.30998 1.16406,-0.53711 0.12566,-0.0819 0.2511,-0.12586 0.2793,-0.0977 0.0282,0.0282 -0.007,0.25121 -0.0801,0.49609 -0.18151,0.61123 -0.17022,0.73344 0.125,1.32422 0.32606,0.6525 0.90277,1.29843 1.36524,1.52735 0.19721,0.0977 0.44056,0.17769 0.53906,0.17773 0.50031,1.8e-4 1.6511,-0.62051 2.33984,-1.26172 1.11749,-1.04037 1.87018,-2.592 2.67188,-5.50781 0.23238,-0.84515 0.43888,-1.58458 0.45898,-1.64258 0.0202,-0.0583 0.016,-0.0882 -0.01,-0.0918 z m -6.04297,0.66211 c -0.28211,0.015 -0.45458,0.14977 -0.76758,0.57618 -0.36607,0.49866 -0.98047,1.68028 -0.98047,1.88671 0,0.0825 0.0235,0.15039 0.0527,0.15039 0.0292,0 0.39283,-0.33247 0.80859,-0.73828 0.76373,-0.74546 1.01027,-1.10209 1.10547,-1.60156 0.0478,-0.25096 0.0341,-0.27344 -0.16211,-0.27344 -0.0199,0 -0.0378,-9.9e-4 -0.0566,0 z m -4.61914,0.084 c -0.22354,0 -0.497,0.5828 -0.5,1.0625 -0.002,0.41023 0.29757,0.86867 0.82226,1.25586 0.38173,0.2817 0.64885,0.66775 0.56055,0.81054 -0.10561,0.17088 -0.63228,0.007 -1.09375,-0.34179 -0.24861,-0.1877 -0.50426,-0.3418 -0.56836,-0.3418 -0.27284,0 -0.4152,0.863 -0.21484,1.30273 0.10426,0.22883 0.51731,0.50778 0.99805,0.67579 0.61633,0.21539 0.6968,0.12825 1.42968,-1.52344 0.39013,-0.87923 0.40594,-1.02574 0.16406,-1.52539 -0.20105,-0.41534 -1.31633,-1.375 -1.59765,-1.375 z m 18.96484,19.52343 c -0.0264,0.002 -0.0518,0.007 -0.0781,0.0137 -0.29343,0.0722 -0.3941,0.16862 -0.76172,0.73437 -0.20154,0.31017 -0.32908,0.6055 -0.32813,0.76367 0.003,0.45837 1.23978,3.22277 1.88086,4.20508 1.15632,1.77182 2.95866,2.96722 5.25391,3.48438 0.55089,0.12412 1.0574,0.27619 1.125,0.33789 0.18417,0.16796 0.004,0.90441 -0.45117,1.83593 -0.58673,1.20159 -0.94576,1.64236 -1.64453,2.0254 -0.98876,0.542 -1.68835,1.33041 -1.57618,1.77734 0.054,0.21516 0.31013,0.32622 1.06055,0.45508 v -0.002 c 0.25508,0.0438 1.18522,0.0744 2.06641,0.0664 1.57305,-0.0147 1.61173,-0.0201 2.08789,-0.25391 0.87483,-0.42959 1.11904,-1.0973 1.24023,-3.38867 0.17115,-3.2363 0.27039,-5.53514 0.24219,-5.55664 -0.0162,-0.0124 -0.80706,-0.24184 -1.75781,-0.50976 -1.98719,-0.56 -2.95529,-0.91308 -3.94922,-1.44141 -1.36023,-0.72303 -2.03652,-1.39467 -2.88086,-2.86328 -0.72311,-1.25777 -1.13405,-1.7165 -1.5293,-1.6836 z"
         transform="scale(0.26458333)" />
    </g>
    <rect
       style="opacity:0.578595;mix-blend-mode:normal;fill:#000000;fill-opacity:1;stroke:none;stroke-width:0.575683;stroke-linecap:round;stroke-linejoin:round;stroke-miterlimit:4;stroke-dasharray:none;stroke-opacity:1;paint-order:stroke fill markers;filter:url(#filter5623)"
       id="rect5113"
       width="61.38826"
       height="49.410229"
       x="71.726494"
       y="86.354164"
       rx="0"
       ry="0" />
    <rect
       style="fill:#f2f2f2;stroke:#000000;stroke-width:0.575683;stroke-linecap:round;stroke-linejoin:round;stroke-miterlimit:4;stroke-dasharray:none;stroke-opacity:1;paint-order:stroke fill markers"
       id="rect2078"
       width="61.38826"
       height="49.410229"
       x="70.668159"
       y="85.29583"
       rx="0"
       ry="0" />
    <g
       id="g820"
       transform="matrix(-0.06548808,0,0,0.0678868,126.96963,108.8869)"
       style="fill:#000000">
      <path
         d="m 115,31 h -6 c -35,5 -44,50 -15,68 11,7 12,10 9,17 -4,7 -10,44 -11,59 0,7 -1,16 -3,21 -2,6 -2,10 0,15 4,10 3,23 -1,23 -3,0 -3,2 -1,9 3,7 -2,27 -11,46 -5,13 -5,14 3,16 8,1 37,0 44,-3 5,-2 6,-3 4,-6 -3,-5 -14,-10 -20,-10 -5,0 -6,0 -4,-5 1,-8 1,-8 8,-3 3,2 7,4 8,4 3,0 3,-9 -1,-17 -1,-4 -3,-8 -3,-8 0,0 3,0 7,1 6,2 15,1 17,-1 1,0 0,-7 -2,-15 -1,-8 -2,-17 -3,-20 0,-3 -1,-7 -3,-9 -2,-2 -1,-5 3,-16 4,-8 5,-17 5,-24 0,-10 -1,-16 -8,-43 -1,-5 -4,-10 -6,-12 -5,-5 -3,-13 3,-15 13,-4 25,-20 25,-35 0,-20 -17,-37 -38,-37 z m -1,3 c 7,0 14,1 17,3 3,2 8,6 11,9 16,19 6,51 -18,55 -6,2 -6,2 -5,9 1,4 4,13 7,20 12,27 14,44 7,63 -7,17 -10,17 -19,-4 l -7,-16 6,-16 c 8,-23 7,-22 5,-20 -2,1 -5,10 -8,19 l -6,17 7,17 c 7,15 8,17 5,20 -4,3 -2,3 4,0 3,-2 5,-1 8,1 4,4 5,8 1,6 -3,-2 -2,1 2,6 2,4 2,6 0,8 -2,3 -3,3 -6,0 -2,-2 -3,-2 -4,-1 0,1 -4,3 -7,3 -7,2 -7,2 -7,-7 0,-4 -3,-18 -7,-29 l -7,-22 5,-25 c 2,-14 5,-28 7,-31 4,-12 3,-15 -8,-21 C 90,94 86,90 83,84 75,67 82,45 97,37 c 4,-2 11,-3 17,-3 z M 94,188 c 2,0 9,28 11,42 3,15 2,29 -4,49 l -3,9 9,1 c 10,1 20,7 17,10 -3,2 -43,4 -48,2 -2,-1 -1,-4 2,-11 12,-22 19,-66 14,-79 -2,-5 -2,-9 -1,-15 2,-4 3,-8 3,-8 z m 30,34 c -1,0 -4,2 -8,5 -3,3 -5,5 -4,5 1,0 3,-1 4,-2 1,-1 4,-3 6,-5 3,-1 4,-3 2,-3 z m 2,13 h 1 c 6,0 6,1 8,10 l 2,10 c 0,2 -13,1 -19,-1 -3,-1 -6,-1 -6,-1 -1,1 1,5 2,10 2,5 3,10 3,12 -1,3 -1,3 -6,-1 -5,-3 -5,-5 -3,-11 1,-4 1,-11 1,-15 0,-6 1,-6 6,-5 6,0 6,0 6,-4 0,-3 1,-4 5,-4 z m -12,1 c 2,0 4,1 4,2 1,1 0,2 -1,2 -2,0 -4,-1 -5,-2 0,-1 1,-2 2,-2 z"
         id="path818"
         style="fill:#000000" />
    </g>
    <g
       id="g17946"
       style="font-variation-settings:normal;opacity:1;vector-effect:none;fill:none;fill-opacity:0.99219;stroke:#aa8800;stroke-width:0.529167;stroke-linecap:round;stroke-linejoin:round;stroke-miterlimit:4;stroke-dasharray:0.529167, 1.05833;stroke-dashoffset:0;stroke-opacity:1;-inkscape-stroke:none;stop-color:#000000;stop-opacity:1">
      <path
         id="path2066"
         sodipodi:nodetypes="cccccccccccc"
         style="font-variation-settings:normal;vector-effect:none;fill:none;fill-opacity:0.99219;stroke:#aa8800;stroke-width:0.529167;stroke-linecap:round;stroke-linejoin:round;stroke-miterlimit:4;stroke-dasharray:0.529167, 1.05833;stroke-dashoffset:0;stroke-opacity:1;-inkscape-stroke:none;stop-color:#000000;stop-opacity:1"
         d="m 90.682062,90.807578 -8.674787,8.99253 v -4.668174 l -4.839569,-0.346239 0.334005,8.820625 -6.005083,5.53256 5.005404,0.17433 v 20.06249 l 27.192208,-0.52057 -0.16584,-19.54192 4.26966,-0.34624 z" />
      <path
         id="path2062"
         sodipodi:nodetypes="ccccc"
         style="font-variation-settings:normal;vector-effect:none;fill:none;fill-opacity:0.99219;stroke:#aa8800;stroke-width:0.529167;stroke-linecap:round;stroke-linejoin:round;stroke-miterlimit:4;stroke-dasharray:0.529167, 1.05833;stroke-dashoffset:0;stroke-opacity:1;-inkscape-stroke:none;stop-color:#000000;stop-opacity:1"
         d="m 91.083802,110.12433 0.0981,17.62187 9.562348,-0.24455 -0.0981,-17.50081 z" />
      <path
         id="path2064"
         sodipodi:nodetypes="ccccc"
         style="font-variation-settings:normal;vector-effect:none;fill:none;fill-opacity:0.99219;stroke:#aa8800;stroke-width:0.529167;stroke-linecap:round;stroke-linejoin:round;stroke-miterlimit:4;stroke-dasharray:0.529167, 1.05833;stroke-dashoffset:0;stroke-opacity:1;-inkscape-stroke:none;stop-color:#000000;stop-opacity:1"
         d="m 79.519755,110.2236 0.334005,9.3654 7.992763,-0.59078 0.235905,-9.11844 z" />
      <path
         id="path2068"
         sodipodi:nodetypes="ccccc"
         style="font-variation-settings:normal;vector-effect:none;fill:none;fill-opacity:0.99219;stroke:#aa8800;stroke-width:0.529167;stroke-linecap:round;stroke-linejoin:round;stroke-miterlimit:4;stroke-dasharray:0.529167, 1.05833;stroke-dashoffset:0;stroke-opacity:1;-inkscape-stroke:none;stop-color:#000000;stop-opacity:1"
         d="m 79.393627,118.89652 0.158828,1.90311 9.137255,-0.41888 0.156492,-1.72877 z" />
      <path
         id="path2070"
         sodipodi:nodetypes="ccccc"
         style="font-variation-settings:normal;vector-effect:none;fill:none;fill-opacity:0.99219;stroke:#aa8800;stroke-width:0.529167;stroke-linecap:round;stroke-linejoin:round;stroke-miterlimit:4;stroke-dasharray:0.529167, 1.05833;stroke-dashoffset:0;stroke-opacity:1;-inkscape-stroke:none;stop-color:#000000;stop-opacity:1"
         d="m 92.76317,112.00564 -0.235906,6.426 h 6.43018 l -0.235906,-6.54222 z" />
      <ellipse
         id="circle2072"
         style="font-variation-settings:normal;vector-effect:none;fill:none;fill-opacity:0.99219;stroke:#aa8800;stroke-width:0.529167;stroke-linecap:round;stroke-linejoin:round;stroke-miterlimit:4;stroke-dasharray:0.529167, 1.05833;stroke-dashoffset:0;stroke-opacity:1;-inkscape-stroke:none;stop-color:#000000;stop-opacity:1"
         cx="98.278885"
         cy="120.84629"
         rx="0.5013752"
         ry="0.51973975" />
      <path
         id="path2074"
         style="font-variation-settings:normal;vector-effect:none;fill:none;fill-opacity:0.99219;stroke:#aa8800;stroke-width:0.529167;stroke-linecap:round;stroke-linejoin:round;stroke-miterlimit:4;stroke-dasharray:0.529167, 1.05833;stroke-dashoffset:0;stroke-opacity:1;-inkscape-stroke:none;stop-color:#000000;stop-opacity:1"
         d="m 88.458476,100.26983 v 4.40426 h 3.891275 v -4.40426 z" />
    </g>
    <path
       id="path2792"
       style="fill:#aad400;fill-opacity:1;stroke:#000000;stroke-width:0.0705556;stroke-linecap:round;stroke-linejoin:round;stroke-miterlimit:4;stroke-dasharray:none;stroke-opacity:1;paint-order:stroke fill markers"
       d="m 119.39676,111.22163 c -0.37362,0.004 -0.72813,0.0524 -0.9157,0.14883 -0.1581,0.0813 -0.46004,0.32453 -0.6997,0.56327 -0.81158,0.80852 -0.80136,2.31057 0.0222,3.21169 0.26895,0.29427 0.53793,0.44413 1.07539,0.59997 0.0978,0.0284 0.21637,0.0824 0.26407,0.11989 0.084,0.0661 0.0862,0.0753 0.0677,0.29352 -0.0238,0.28194 -0.23079,0.93333 -0.55707,1.75131 -0.28462,0.71355 -0.40106,1.06793 -0.524,1.59371 -0.0806,0.34691 -0.0889,0.43104 -0.0899,1.00924 -0.001,0.58267 0.006,0.65662 0.0837,0.96428 0.18689,0.73615 0.48776,1.32343 0.67851,1.32343 0.1824,0 0.36555,-0.31736 0.85731,-1.48828 l 0.28681,-0.68264 -0.25115,-0.69609 c -0.3019,-0.83779 -0.57702,-1.7333 -0.55242,-1.7973 0.0144,-0.0375 0.0332,-0.0316 0.0987,0.0294 0.12731,0.11883 0.17537,0.23571 0.56689,1.38596 l 0.36794,1.08108 -0.21394,0.5395 c -0.11771,0.29678 -0.29089,0.71502 -0.38499,0.92914 -0.33301,0.75747 -0.35327,0.87087 -0.1819,1.03249 0.1141,0.10759 0.14038,0.17157 0.0703,0.17157 -0.0222,0 -0.14405,-0.0499 -0.27079,-0.11059 -0.12673,-0.0607 -0.26334,-0.11059 -0.30334,-0.11059 -0.12041,0 -0.36668,0.19122 -0.45578,0.35347 -0.099,0.18012 -0.0692,0.23603 0.0853,0.16123 0.17924,-0.0868 0.17346,-0.005 -0.0202,0.29508 -0.1276,0.19745 -0.19379,0.35693 -0.19379,0.46663 0,0.0938 0.18182,0.3328 0.25322,0.3328 0.0322,0 0.12392,-0.0567 0.20412,-0.12609 0.16356,-0.1416 0.20902,-0.15198 0.29042,-0.0672 0.085,0.0886 0.19147,0.13625 0.43512,0.19585 0.32483,0.0794 0.39005,0.0766 0.42685,-0.0202 0.017,-0.0445 0.0305,-0.1841 0.0305,-0.31006 0,-0.48266 0.16783,-1.19451 0.62787,-2.66805 l 0.28991,-0.92966 -0.15813,-0.82165 c -0.0869,-0.45198 -0.18713,-1.00637 -0.22273,-1.23197 -0.11656,-0.73944 -0.2245,-1.22356 -0.36948,-1.65623 -0.18018,-0.5377 -0.20861,-0.8106 -0.10594,-1.02268 0.08,-0.16522 0.18357,-0.25304 0.601,-0.51005 0.56259,-0.34638 0.89533,-0.76874 1.04645,-1.32911 0.0515,-0.19074 0.0667,-0.33843 0.0667,-0.65629 0,-0.49433 -0.0644,-0.77422 -0.27492,-1.1989 -0.20976,-0.42315 -0.46481,-0.70628 -0.82889,-0.92035 -0.22982,-0.13511 -0.74178,-0.20431 -1.22215,-0.19948 z m 1.39062,10.51564 c -0.0976,0.0325 -0.44222,1.39425 -0.65268,2.57814 -0.1373,0.77239 -0.15963,1.4989 -0.0656,2.1456 0.0686,0.47213 0.25603,1.25875 0.39739,1.66967 0.0443,0.12885 0.0806,0.2522 0.0806,0.2744 0,0.0429 -0.0133,0.0462 -0.55604,0.11886 -0.4376,0.0586 -0.80105,0.19266 -1.00252,0.37 -0.18816,0.16562 -0.19669,0.26424 -0.0269,0.30902 0.14816,0.0391 0.65127,0.0922 1.20664,0.12764 0.48753,0.0311 1.72354,0.0219 1.80609,-0.0134 0.089,-0.0381 0.0685,-0.25096 -0.0517,-0.53743 -0.0583,-0.13883 -0.15872,-0.37287 -0.22376,-0.52038 -0.68351,-1.55026 -1.06527,-4.11134 -0.75706,-5.07979 0.10419,-0.32741 0.11851,-0.77667 0.032,-1.00976 -0.029,-0.0781 -0.0762,-0.20975 -0.10439,-0.29249 -0.0282,-0.0827 -0.0652,-0.14571 -0.0822,-0.14004 z m -1.93425,2.22261 c 0.006,-6e-5 0.0127,2.5e-4 0.0196,0.001 0.15621,0.0175 0.78813,0.54709 0.79013,0.66198 h -5.3e-4 c 0.001,0.092 -0.15884,0.008 -0.45372,-0.23823 -0.1404,-0.11711 -0.29536,-0.23823 -0.34416,-0.26923 -0.10077,-0.0643 -0.10264,-0.1547 -0.0114,-0.15555 z m -0.19121,0.89348 c -0.10486,7.9e-4 -0.21081,0.0139 -0.26044,0.0388 -0.12081,0.0604 -0.17148,0.19638 -0.28422,0.76481 -0.0761,0.38365 -0.0944,0.53241 -0.0687,0.5581 0.0804,0.0804 0.79628,0.0148 1.26659,-0.11627 0.24927,-0.0694 0.3483,-0.0642 0.3483,0.0186 0,0.0724 -0.12711,0.56181 -0.22376,0.86145 -0.0965,0.29906 -0.13498,0.56864 -0.0925,0.64802 0.0356,0.0665 0.0381,0.0666 0.12558,0.0109 0.21825,-0.13925 0.44049,-0.3295 0.46147,-0.39533 0.0338,-0.10596 0.0219,-0.25388 -0.0367,-0.45527 -0.035,-0.12053 -0.0589,-0.36665 -0.0724,-0.75292 -0.0139,-0.39901 -0.0324,-0.58883 -0.061,-0.62322 -0.0341,-0.0411 -0.092,-0.046 -0.34364,-0.031 -0.35309,0.0211 -0.38782,-5.3e-4 -0.38861,-0.24236 -5.3e-4,-0.1618 -0.0172,-0.1977 -0.11576,-0.24959 -0.0457,-0.0241 -0.14938,-0.0355 -0.25425,-0.0346 z" />
    <rect
       style="opacity:0.578595;mix-blend-mode:normal;fill:#000000;fill-opacity:1;stroke:none;stroke-width:0.575683;stroke-linecap:round;stroke-linejoin:round;stroke-miterlimit:4;stroke-dasharray:none;stroke-opacity:1;paint-order:stroke fill markers;filter:url(#filter5623)"
       id="rect5115"
       width="61.38826"
       height="49.410229"
       x="139.04213"
       y="86.354164"
       rx="0"
       ry="0" />
    <rect
       style="fill:#f2f2f2;stroke:#000000;stroke-width:0.575683;stroke-linecap:round;stroke-linejoin:round;stroke-miterlimit:4;stroke-dasharray:none;stroke-opacity:1;paint-order:stroke fill markers"
       id="rect2096"
       width="61.38826"
       height="49.410229"
       x="137.9838"
       y="85.29583"
       rx="0"
       ry="0" />
    <g
       transform="matrix(-0.05943313,0,0,0.06161007,187.75346,110.82676)"
       id="g824"
       style="fill:#000000">
      <path
         d="m 124,20 c -17,0 -29,8 -36,23 -7,17 0,36 16,46 5,3 9,7 9,8 0,5 -5,16 -10,21 -3,3 -9,10 -12,15 l -7,10 2,17 c 1,13 1,17 -1,21 -2,2 -4,7 -4,10 -2,6 -1,7 5,10 4,2 7,5 7,6 0,4 -17,38 -27,55 -12,19 -12,22 -1,36 l 5,7 19,-1 c 23,-1 26,-4 17,-12 -4,-4 -9,-6 -12,-6 -12,0 -12,-3 2,-35 7,-17 13,-32 14,-34 2,-5 13,-7 23,-4 12,4 10,6 -11,11 -2,0 9,16 15,23 8,8 20,15 26,15 4,0 2,-10 -5,-20 l -5,-8 7,-3 c 14,-6 14,-8 -3,-24 l -16,-15 4,-10 c 2,-6 4,-10 5,-9 11,4 32,9 34,9 3,-2 8,-26 6,-30 0,-1 -3,-2 -5,-2 -3,0 -6,-1 -7,-2 -2,-2 -15,3 -15,7 0,2 -1,2 -8,1 -5,-2 -8,-3 -8,-6 0,-4 -9,-32 -12,-39 -5,-10 -5,-16 2,-19 17,-7 25,-20 24,-38 -1,-20 -17,-34 -37,-34 z m -1,3 c 14,-1 28,8 34,21 8,18 -3,40 -24,46 -6,2 -7,3 -6,8 0,3 3,10 6,15 2,6 6,18 7,26 l 2,16 10,3 c 6,1 11,3 11,4 2,5 4,2 3,-3 -1,-4 0,-5 4,-7 7,-2 8,-2 6,0 -1,2 1,2 5,1 5,-1 7,0 8,2 1,2 0,5 -2,6 -1,1 -2,4 -2,6 0,2 0,3 -1,3 -1,0 -3,-3 -3,-6 -1,-4 -2,-6 -2,-6 -2,2 2,15 4,15 3,-1 3,4 1,6 -1,1 -14,-3 -28,-7 l -26,-9 -2,-16 c -3,-17 -4,-22 -6,-20 0,0 5,32 6,36 1,2 5,4 9,5 10,3 10,3 1,22 -6,12 -13,19 -21,18 -5,-1 -6,0 -13,17 -4,10 -11,27 -16,37 -8,18 -8,19 -5,23 2,2 6,3 9,3 5,0 17,9 15,11 -1,1 -9,2 -18,3 -19,1 -20,0 -27,-15 l -4,-7 10,-17 c 18,-28 31,-58 31,-69 0,-7 2,-15 7,-24 6,-14 6,-17 7,-38 0,-12 1,-27 1,-32 2,-9 2,-9 -7,-13 -28,-13 -24,-54 6,-63 3,-1 7,-1 10,-1 z m -15,95 c 1,-1 2,2 2,7 2,9 1,10 -5,15 l -6,6 2,12 c 1,10 1,13 -2,20 -4,8 -7,10 -10,7 -3,-3 -2,-5 3,-5 4,0 4,0 1,-2 -2,-2 -4,-8 -5,-19 l -1,-17 7,-9 c 4,-6 9,-11 11,-13 1,-2 2,-2 3,-2 z m 2,22 c 1,1 1,4 -1,12 -2,12 -5,13 -6,3 -1,-6 0,-9 3,-12 2,-2 3,-3 4,-3 z m -24,48 c 2,0 3,2 3,6 0,7 0,7 -3,4 -4,-4 -3,-10 0,-10 z m 8,1 c 1,0 2,2 2,5 1,5 -1,9 -3,7 -2,-2 -2,-10 0,-12 0,0 1,0 1,0 z m 46,7 c 2,0 27,24 27,27 0,1 -8,5 -16,8 -4,1 -4,1 0,6 4,5 10,16 10,19 0,9 -26,-11 -33,-25 -2,-4 -2,-5 7,-8 6,-2 10,-4 10,-6 0,-1 -3,-4 -7,-6 l -8,-3 4,-6 c 2,-3 5,-6 6,-6 z"
         id="path822"
         style="fill:#000000" />
    </g>
    <path
       id="path2870"
       style="fill:#aad400;stroke:#000000;stroke-width:0.0705556;stroke-linecap:round;stroke-linejoin:round;stroke-miterlimit:4;stroke-dasharray:none;stroke-opacity:1;paint-order:stroke fill markers"
       d="m 180.36832,112.2655 c -0.39167,10e-4 -0.61883,0.0594 -0.94671,0.22789 -0.29378,0.151 -0.69296,0.52796 -0.86042,0.81287 -0.45522,0.7745 -0.33791,1.71953 0.30127,2.42776 0.22293,0.24699 0.54973,0.45873 0.93173,0.60358 0.40581,0.15387 0.43202,0.17817 0.43202,0.40411 0,0.2283 -0.0651,0.44609 -0.24443,0.82114 -0.26525,0.55485 -0.47589,1.36635 -0.5855,2.25309 l -0.0703,0.56534 -0.22066,0.0754 c -0.12133,0.0414 -0.31249,0.0963 -0.42529,0.12196 -0.38086,0.0868 -0.55981,0.16809 -0.6289,0.28525 -0.12903,0.2187 -0.21071,0.10591 -0.1757,-0.24288 0.0216,-0.21474 0.0208,-0.22011 -0.0739,-0.30851 -0.0548,-0.0512 -0.17634,-0.11209 -0.28164,-0.14159 -0.23504,-0.066 -0.23282,-0.0664 -0.21032,0.0233 0.0278,0.11071 -0.0257,0.12544 -0.29869,0.0811 -0.2989,-0.0485 -0.39669,-0.028 -0.46199,0.0982 -0.0404,0.0781 -0.043,0.11674 -0.0139,0.20464 0.0196,0.0596 0.0541,0.11868 0.0765,0.13178 0.0696,0.0409 0.13659,0.20572 0.16019,0.3948 0.0125,0.0998 0.0347,0.18139 0.0496,0.18139 0.0495,0 0.12237,-0.14312 0.15297,-0.30128 0.0402,-0.20781 0.10527,-0.38815 0.14417,-0.39945 0.0516,-0.0151 0.0526,0.13969 0.003,0.3793 -0.0622,0.29843 -0.17327,0.51882 -0.27337,0.54312 -0.0673,0.0164 -0.0759,0.0361 -0.0739,0.15245 0.002,0.0733 0.0174,0.14809 0.0357,0.16639 0.0456,0.0456 0.26625,-0.003 1.02836,-0.22686 0.51137,-0.1504 2.11828,-0.70219 2.16318,-0.74259 0.007,-0.006 0.0444,-0.26295 0.0837,-0.57154 0.12964,-1.01918 0.27068,-1.66553 0.36328,-1.66553 0.0662,0 0.0517,0.16608 -0.0935,1.08004 -0.20745,1.30474 -0.18121,1.19931 -0.32402,1.30276 -0.0686,0.0497 -0.25576,0.13367 -0.41599,0.18707 -0.16023,0.0534 -0.32422,0.12021 -0.36432,0.14831 -0.12002,0.0841 -0.0808,0.29525 0.15348,0.82579 0.34687,0.78543 0.6483,1.20735 0.9865,1.3808 0.12011,0.0616 0.19656,0.076 0.39636,0.076 0.22936,0 0.25378,0.006 0.32918,0.0868 0.11842,0.12624 0.19215,0.28929 0.65629,1.44383 0.23021,0.57267 0.49604,1.21132 0.59015,1.41956 0.32251,0.71363 0.54947,1.30536 0.56637,1.47484 0.0138,0.13917 0.005,0.18382 -0.0574,0.27492 -0.10334,0.15161 -0.2293,0.21563 -0.49816,0.25373 -0.15165,0.0215 -0.29707,0.068 -0.42168,0.13436 -0.19792,0.1055 -0.55811,0.42181 -0.55811,0.49041 0,0.0597 0.10518,0.0886 0.5364,0.14676 0.21681,0.0292 0.41584,0.0586 0.44184,0.0646 0.026,0.006 0.26059,0.008 0.52089,0.005 0.69123,-0.009 0.73727,-0.0416 1.10278,-0.77825 0.099,-0.19956 0.20698,-0.40611 0.23978,-0.45941 l 0.0594,-0.0971 -0.39895,-0.69194 c -0.21958,-0.38055 -0.48933,-0.84781 -0.59944,-1.0387 -0.266,-0.46113 -0.65725,-1.23585 -0.86042,-1.70377 -0.38762,-0.89277 -0.53739,-1.40533 -0.59479,-2.03554 -0.0388,-0.42522 -0.11116,-0.6803 -0.32298,-1.13998 -0.19839,-0.43056 -0.32964,-0.82449 -0.38964,-1.1684 -0.0555,-0.3185 -0.10261,-1.15736 -0.12971,-2.31356 -0.0106,-0.45119 -0.0393,-0.95136 -0.0641,-1.11104 -0.0478,-0.3086 -0.0311,-0.42318 0.0739,-0.50178 0.0297,-0.0222 0.18913,-0.1084 0.35399,-0.1912 1.04522,-0.52529 1.43296,-1.73201 0.90123,-2.80293 -0.2329,-0.46907 -0.57989,-0.79477 -1.06815,-1.00304 -0.20739,-0.0885 -0.26529,-0.0983 -0.64802,-0.11059 -0.0634,-0.002 -0.12285,-0.003 -0.1788,-0.003 z m 0.9741,5.83737 c -0.0519,-0.009 -0.0742,0.0485 -0.0884,0.16278 -0.009,0.0734 -0.0334,0.2561 -0.0537,0.40566 -0.0204,0.14956 -0.0269,0.31213 -0.0145,0.36173 0.0135,0.0539 0.15772,0.22762 0.35812,0.43098 l 0.33538,0.34003 -0.0698,0.4806 c -0.0804,0.55398 -0.0882,0.97516 -0.0227,1.22111 0.0631,0.23706 0.21224,0.53028 0.3421,0.67179 0.0597,0.0651 0.13717,0.11834 0.17208,0.11834 0.0598,0 0.25942,-0.19202 0.25942,-0.2496 0,-0.0571 -0.0877,-0.0934 -0.27647,-0.11472 -0.10829,-0.0122 -0.19689,-0.0263 -0.19689,-0.031 0,-0.005 0.0484,-0.0567 0.10749,-0.11576 0.18594,-0.18595 0.28299,-0.64143 0.33848,-1.58905 l 0.0357,-0.60926 -0.27233,-0.37311 c -0.14973,-0.20496 -0.40374,-0.53162 -0.56431,-0.72605 -0.20781,-0.25164 -0.3229,-0.37299 -0.38964,-0.38447 z m 1.29863,4.31136 c -0.0697,-6e-5 -0.1204,0.0482 -0.1478,0.14056 -0.0337,0.11363 -0.0368,0.53377 -0.004,0.57309 0.0136,0.0164 0.0165,0.0156 0.0522,-0.0103 0.0808,-0.0588 0.18184,-0.18952 0.21704,-0.28112 0.0793,-0.20651 0.0195,-0.42208 -0.11731,-0.4222 z m -0.47801,0.0641 c -0.0199,5.3e-4 -0.026,0.007 -0.0439,0.0284 -0.0337,0.0407 -0.0551,0.11483 -0.0646,0.22273 -0.004,0.0496 -0.009,0.0928 -0.0114,0.0961 -0.01,0.0155 -0.003,0.20376 0.008,0.25528 0.0164,0.0722 0.0523,0.13555 0.0853,0.14986 0.0312,0.0136 0.0259,0.0136 0.0522,0 0.0518,-0.0268 0.085,-0.092 0.108,-0.21446 0.0103,-0.0548 0.0118,-0.0993 0.009,-0.20774 -0.004,-0.14859 -0.0191,-0.22975 -0.0548,-0.29455 -0.0174,-0.0316 -0.0195,-0.0328 -0.0625,-0.0351 -0.0107,-5.3e-4 -0.0187,-8e-4 -0.0253,-5.3e-4 z m -2.74195,0.44855 c -0.0649,0 -1.34691,1.27754 -1.4795,1.47433 -0.0494,0.0733 -0.0817,0.1545 -0.0718,0.18035 0.0205,0.0534 0.64204,0.36563 0.90434,0.45424 0.10573,0.0357 0.17767,0.0793 0.18397,0.11162 0.006,0.0291 -0.0594,0.14836 -0.1447,0.2651 -0.39831,0.54505 -0.68803,1.17749 -0.58601,1.27951 0.17115,0.17115 1.12658,-0.54416 1.63659,-1.22525 0.17104,-0.22841 0.33022,-0.51531 0.33022,-0.59583 0,-0.0787 -0.14202,-0.16376 -0.52762,-0.31471 -0.34337,-0.13442 -0.54519,-0.25976 -0.54519,-0.339 0,-0.13266 0.24021,-0.31987 0.601,-0.4687 l 0.27957,-0.11576 -0.15038,-0.23461 c -0.18048,-0.28105 -0.35424,-0.47129 -0.43046,-0.47129 z" />
    <g
       id="g17962"
       transform="translate(67.288152)"
       style="font-variation-settings:normal;opacity:1;vector-effect:none;fill:none;fill-opacity:0.99219;stroke:#aa8800;stroke-width:0.529167;stroke-linecap:round;stroke-linejoin:round;stroke-miterlimit:4;stroke-dasharray:0.529167, 1.05833;stroke-dashoffset:0;stroke-opacity:1;-inkscape-stroke:none;stop-color:#000000;stop-opacity:1">
      <path
         id="path17948"
         sodipodi:nodetypes="cccccccccccc"
         style="font-variation-settings:normal;vector-effect:none;fill:none;fill-opacity:0.99219;stroke:#aa8800;stroke-width:0.529167;stroke-linecap:round;stroke-linejoin:round;stroke-miterlimit:4;stroke-dasharray:0.529167, 1.05833;stroke-dashoffset:0;stroke-opacity:1;-inkscape-stroke:none;stop-color:#000000;stop-opacity:1"
         d="m 90.682062,90.807578 -8.674787,8.99253 v -4.668174 l -4.839569,-0.346239 0.334005,8.820625 -6.005083,5.53256 5.005404,0.17433 v 20.06249 l 27.192208,-0.52057 -0.16584,-19.54192 4.26966,-0.34624 z" />
      <path
         id="path17950"
         sodipodi:nodetypes="ccccc"
         style="font-variation-settings:normal;vector-effect:none;fill:none;fill-opacity:0.99219;stroke:#aa8800;stroke-width:0.529167;stroke-linecap:round;stroke-linejoin:round;stroke-miterlimit:4;stroke-dasharray:0.529167, 1.05833;stroke-dashoffset:0;stroke-opacity:1;-inkscape-stroke:none;stop-color:#000000;stop-opacity:1"
         d="m 91.083802,110.12433 0.0981,17.62187 9.562348,-0.24455 -0.0981,-17.50081 z" />
      <path
         id="path17952"
         sodipodi:nodetypes="ccccc"
         style="font-variation-settings:normal;vector-effect:none;fill:none;fill-opacity:0.99219;stroke:#aa8800;stroke-width:0.529167;stroke-linecap:round;stroke-linejoin:round;stroke-miterlimit:4;stroke-dasharray:0.529167, 1.05833;stroke-dashoffset:0;stroke-opacity:1;-inkscape-stroke:none;stop-color:#000000;stop-opacity:1"
         d="m 79.519755,110.2236 0.334005,9.3654 7.992763,-0.59078 0.235905,-9.11844 z" />
      <path
         id="path17954"
         sodipodi:nodetypes="ccccc"
         style="font-variation-settings:normal;vector-effect:none;fill:none;fill-opacity:0.99219;stroke:#aa8800;stroke-width:0.529167;stroke-linecap:round;stroke-linejoin:round;stroke-miterlimit:4;stroke-dasharray:0.529167, 1.05833;stroke-dashoffset:0;stroke-opacity:1;-inkscape-stroke:none;stop-color:#000000;stop-opacity:1"
         d="m 79.393627,118.89652 0.158828,1.90311 9.137255,-0.41888 0.156492,-1.72877 z" />
      <path
         id="path17956"
         sodipodi:nodetypes="ccccc"
         style="font-variation-settings:normal;vector-effect:none;fill:none;fill-opacity:0.99219;stroke:#aa8800;stroke-width:0.529167;stroke-linecap:round;stroke-linejoin:round;stroke-miterlimit:4;stroke-dasharray:0.529167, 1.05833;stroke-dashoffset:0;stroke-opacity:1;-inkscape-stroke:none;stop-color:#000000;stop-opacity:1"
         d="m 92.76317,112.00564 -0.235906,6.426 h 6.43018 l -0.235906,-6.54222 z" />
      <ellipse
         id="ellipse17958"
         style="font-variation-settings:normal;vector-effect:none;fill:none;fill-opacity:0.99219;stroke:#aa8800;stroke-width:0.529167;stroke-linecap:round;stroke-linejoin:round;stroke-miterlimit:4;stroke-dasharray:0.529167, 1.05833;stroke-dashoffset:0;stroke-opacity:1;-inkscape-stroke:none;stop-color:#000000;stop-opacity:1"
         cx="98.278885"
         cy="120.84629"
         rx="0.5013752"
         ry="0.51973975" />
      <path
         id="path17960"
         style="font-variation-settings:normal;vector-effect:none;fill:none;fill-opacity:0.99219;stroke:#aa8800;stroke-width:0.529167;stroke-linecap:round;stroke-linejoin:round;stroke-miterlimit:4;stroke-dasharray:0.529167, 1.05833;stroke-dashoffset:0;stroke-opacity:1;-inkscape-stroke:none;stop-color:#000000;stop-opacity:1"
         d="m 88.458476,100.26983 v 4.40426 h 3.891275 v -4.40426 z" />
    </g>
    <text
       xml:space="preserve"
       style="font-style:normal;font-variant:normal;font-weight:normal;font-stretch:normal;font-size:4.95281px;line-height:1.25;font-family:Bahnschrift;-inkscape-font-specification:'Bahnschrift, Normal';font-variant-ligatures:normal;font-variant-caps:normal;font-variant-numeric:normal;font-variant-east-asian:normal;letter-spacing:0px;word-spacing:0px;fill:#000000;fill-opacity:1;stroke:none;stroke-width:0.12382"
       x="70.659904"
       y="81.894279"
       id="text2690"><tspan
         sodipodi:role="line"
         id="tspan2688"
         style="font-style:normal;font-variant:normal;font-weight:normal;font-stretch:normal;font-size:4.95281px;font-family:Bahnschrift;-inkscape-font-specification:'Bahnschrift, Normal';font-variant-ligatures:normal;font-variant-caps:normal;font-variant-numeric:normal;font-variant-east-asian:normal;stroke-width:0.12382"
         x="70.659904"
         y="81.894279">Non transmis</tspan></text>
    <path
       style="font-variation-settings:normal;opacity:1;fill:none;fill-opacity:0.99219;stroke:#aa8800;stroke-width:0.529167;stroke-linecap:round;stroke-linejoin:round;stroke-miterlimit:4;stroke-dasharray:0.529167, 1.05833;stroke-dashoffset:0;stroke-opacity:1;stop-color:#000000;stop-opacity:1"
       d="m 103.41049,80.855355 h 10.72939"
       id="path5181" />
  </g>
</svg>
