<?xml version="1.0" encoding="UTF-8" standalone="no"?>
<!-- Created with Inkscape (http://www.inkscape.org/) -->

<svg
   width="137.61443mm"
   height="54.968079mm"
   viewBox="0 0 137.61443 54.968079"
   version="1.1"
   id="svg5"
   inkscape:version="1.1.1 (3bf5ae0d25, 2021-09-20)"
   sodipodi:docname="médias.svg"
   xmlns:inkscape="http://www.inkscape.org/namespaces/inkscape"
   xmlns:sodipodi="http://sodipodi.sourceforge.net/DTD/sodipodi-0.dtd"
   xmlns:xlink="http://www.w3.org/1999/xlink"
   xmlns="http://www.w3.org/2000/svg"
   xmlns:svg="http://www.w3.org/2000/svg">
  <sodipodi:namedview
     id="namedview7"
     pagecolor="#ffffff"
     bordercolor="#666666"
     borderopacity="1.0"
     inkscape:pageshadow="2"
     inkscape:pageopacity="0.0"
     inkscape:pagecheckerboard="0"
     inkscape:document-units="mm"
     showgrid="false"
     inkscape:zoom="0.74118967"
     inkscape:cx="26.309055"
     inkscape:cy="-136.942"
     inkscape:window-width="1920"
     inkscape:window-height="1017"
     inkscape:window-x="1672"
     inkscape:window-y="-8"
     inkscape:window-maximized="1"
     inkscape:current-layer="layer1"
     fit-margin-top="3.7"
     fit-margin-left="3.5"
     fit-margin-right="0.6"
     fit-margin-bottom="1" />
  <defs
     id="defs2">
    <linearGradient
       inkscape:collect="always"
       id="linearGradient15119">
      <stop
         style="stop-color:#1a1a1a;stop-opacity:1;"
         offset="0"
         id="stop15115" />
      <stop
         style="stop-color:#1a1a1a;stop-opacity:0"
         offset="1"
         id="stop15117" />
    </linearGradient>
    <linearGradient
       id="linearGradient14985">
      <stop
         id="stop14979"
         style="stop-color:#c6c6c6"
         offset="0" />
      <stop
         id="stop14981"
         style="stop-color:#f1f1f1"
         offset=".34923" />
      <stop
         id="stop14983"
         style="stop-color:#f0f0f0;stop-opacity:0"
         offset="1" />
    </linearGradient>
    <linearGradient
       inkscape:collect="always"
       id="linearGradient4688">
      <stop
         style="stop-color:#000000;stop-opacity:1;"
         offset="0"
         id="stop4684" />
      <stop
         style="stop-color:#000000;stop-opacity:0;"
         offset="1"
         id="stop4686" />
    </linearGradient>
    <linearGradient
       id="linearGradient6724"
       y2="-436.82999"
       xlink:href="#linearGradient6538"
       gradientUnits="userSpaceOnUse"
       x2="288.89999"
       y1="-441.23001"
       x1="284.79999" />
    <linearGradient
       id="linearGradient6722"
       y2="-436.70999"
       gradientUnits="userSpaceOnUse"
       y1="-439.48001"
       x2="289.76999"
       x1="286.67001">
      <stop
         id="stop6551"
         stop-color="#fff"
         offset="0" />
      <stop
         id="stop6553"
         stop-color="#fff"
         stop-opacity="0"
         offset="1" />
    </linearGradient>
    <linearGradient
       id="linearGradient6720"
       y2="-431.92001"
       gradientUnits="userSpaceOnUse"
       y1="-437.10999"
       x2="279.98001"
       x1="275.94">
      <stop
         id="stop6530"
         stop-color="#fff"
         offset="0" />
      <stop
         id="stop6532"
         stop-color="#fff"
         stop-opacity="0"
         offset="1" />
    </linearGradient>
    <linearGradient
       id="linearGradient6538">
      <stop
         id="stop6540"
         stop-color="#fff"
         offset="0" />
      <stop
         id="stop6542"
         stop-color="#fff"
         stop-opacity="0"
         offset="1" />
    </linearGradient>
    <linearGradient
       id="linearGradient6718"
       y2="-436.44"
       xlink:href="#linearGradient6538"
       gradientUnits="userSpaceOnUse"
       x2="289.39001"
       y1="-439.94"
       x1="285.94" />
    <linearGradient
       id="linearGradient6716"
       y2="-436.14001"
       gradientUnits="userSpaceOnUse"
       y1="-441.29001"
       x2="289.85001"
       x1="286.51001">
      <stop
         id="stop6515"
         stop-color="#fff"
         offset="0" />
      <stop
         id="stop6517"
         stop-color="#fff"
         stop-opacity="0"
         offset="1" />
    </linearGradient>
    <linearGradient
       id="linearGradient6714"
       y2="-436.32001"
       gradientUnits="userSpaceOnUse"
       y1="-439.75"
       x2="289.67999"
       x1="287.51999">
      <stop
         id="stop6499"
         stop-color="#fff"
         offset="0" />
      <stop
         id="stop6501"
         stop-color="#fff"
         stop-opacity="0"
         offset="1" />
    </linearGradient>
    <linearGradient
       id="linearGradient6712"
       y2="-431.97"
       gradientUnits="userSpaceOnUse"
       y1="-441.04999"
       x2="285.03"
       x1="271.01999">
      <stop
         id="stop6472"
         stop-color="#fff"
         offset="0" />
      <stop
         id="stop6474"
         stop-color="#fff"
         stop-opacity="0"
         offset="1" />
    </linearGradient>
    <linearGradient
       id="linearGradient6019"
       y2="21.336"
       xlink:href="#linearGradient6538"
       gradientUnits="userSpaceOnUse"
       x2="-21.962"
       y1="15.649"
       x1="-21.659" />
    <linearGradient
       id="linearGradient6015"
       y2="22.662001"
       xlink:href="#linearGradient6538"
       gradientUnits="userSpaceOnUse"
       x2="-22.114"
       y1="28.337999"
       x1="-22.823" />
    <linearGradient
       id="linearGradient6011"
       y2="22.662001"
       xlink:href="#linearGradient6538"
       gradientUnits="userSpaceOnUse"
       x2="-22.114"
       y1="30.056999"
       x1="-25.176001" />
    <linearGradient
       id="linearGradient6007"
       y2="21.042"
       xlink:href="#linearGradient6538"
       gradientUnits="userSpaceOnUse"
       x2="-22.252001"
       y1="30.056999"
       x1="-25.176001" />
    <radialGradient
       id="radialGradient5989"
       cx="12.071"
       xlink:href="#linearGradient6538"
       gradientUnits="userSpaceOnUse"
       cy="12.493"
       r="6.7175002" />
    <radialGradient
       id="radialGradient4132"
       gradientUnits="userSpaceOnUse"
       cy="12.142"
       cx="15.601"
       gradientTransform="scale(0.99999,1)"
       r="43.527">
      <stop
         id="stop4128"
         stop-color="#fff"
         offset="0" />
      <stop
         id="stop4130"
         stop-color="#fff"
         stop-opacity=".16495"
         offset="1" />
    </radialGradient>
    <radialGradient
       id="radialGradient3968"
       gradientUnits="userSpaceOnUse"
       cy="15.716"
       cx="18.247999"
       gradientTransform="scale(0.99999,1)"
       r="29.993">
      <stop
         id="stop3964"
         stop-color="#d3e9ff"
         offset="0" />
      <stop
         id="stop4134"
         stop-color="#d3e9ff"
         offset=".15517" />
      <stop
         id="stop4346"
         stop-color="#4074ae"
         offset=".75" />
      <stop
         id="stop3966"
         stop-color="#36486c"
         offset="1" />
    </radialGradient>
    <linearGradient
       id="linearGradient1400">
      <stop
         id="stop1401"
         style="stop-color:#000000;stop-opacity:.67843"
         offset="0" />
      <stop
         id="stop1403"
         style="stop-color:#000000;stop-opacity:.32941"
         offset="0.57" />
      <stop
         id="stop1402"
         style="stop-color:#000000;stop-opacity:0"
         offset="1" />
    </linearGradient>
    <linearGradient
       id="linearGradient1530"
       y2="187.89426"
       xlink:href="#linearGradient6538"
       y1="160.02081"
       x2="38.555462"
       x1="35.654163"
       gradientTransform="matrix(1.128399,0,0,0.48774542,38.914827,91.403244)"
       gradientUnits="userSpaceOnUse" />
    <linearGradient
       id="linearGradient848"
       y2="145.51202"
       y1="98.667084"
       x2="41.234962"
       x1="40.913803"
       gradientTransform="scale(1.0773422,0.92821016)"
       gradientUnits="userSpaceOnUse">
      <stop
         id="stop900"
         style="stop-color:#ffffff;stop-opacity:0"
         offset="0" />
      <stop
         id="stop901"
         style="stop-color:#ffffff"
         offset="1" />
    </linearGradient>
    <linearGradient
       id="linearGradient850"
       y2="82.710251"
       y1="78.664162"
       x2="70.006035"
       x1="136.49356"
       gradientTransform="scale(0.96465637,1.0366386)"
       gradientUnits="userSpaceOnUse">
      <stop
         id="stop884"
         style="stop-color:#1f1f1f;stop-opacity:.55372"
         offset="0" />
      <stop
         id="stop885"
         style="stop-color:#000000;stop-opacity:0"
         offset="1" />
    </linearGradient>
    <linearGradient
       id="linearGradient849"
       y2="64.023026"
       y1="106.60653"
       x2="52.037716"
       x1="85.394325"
       gradientTransform="scale(0.94095957,1.0627449)"
       gradientUnits="userSpaceOnUse">
      <stop
         id="stop840"
         style="stop-color:#4f4f4f"
         offset="0" />
      <stop
         id="stop843"
         style="stop-color:#bebebe"
         offset=".27444" />
      <stop
         id="stop841"
         style="stop-color:#fff"
         offset="1" />
    </linearGradient>
    <linearGradient
       id="linearGradient842"
       y2="89.600288"
       xlink:href="#linearGradient1400"
       y1="484.18198"
       x2="-126.91989"
       x1="-82.432411"
       gradientTransform="scale(0.8311678,1.2031265)"
       gradientUnits="userSpaceOnUse" />
    <linearGradient
       id="linearGradient860"
       y2="89.432655"
       xlink:href="#linearGradient1400"
       y1="484.03326"
       gradientTransform="scale(0.82976239,1.2051643)"
       x2="-127.22374"
       x1="-82.734184"
       gradientUnits="userSpaceOnUse" />
    <linearGradient
       id="linearGradient882"
       y2="89.232178"
       xlink:href="#linearGradient1400"
       y1="483.83347"
       gradientTransform="scale(0.82806106,1.2076404)"
       x2="-127.5829"
       x1="-83.090057"
       gradientUnits="userSpaceOnUse" />
    <linearGradient
       id="linearGradient1011"
       y2="24.17486"
       xlink:href="#linearGradient6538"
       y1="180.92873"
       x2="53.211418"
       x1="77.292015"
       gradientUnits="userSpaceOnUse" />
    <linearGradient
       id="linearGradient1010"
       y2="40.053776"
       xlink:href="#linearGradient6538"
       y1="-53.391037"
       x2="38.977409"
       x1="43.397602"
       gradientUnits="userSpaceOnUse" />
    <linearGradient
       id="linearGradient864"
       y2="46.947357"
       xlink:href="#linearGradient6538"
       y1="25.611267"
       x2="82.34359"
       x1="105.80659"
       gradientTransform="scale(1.1085051,0.90211584)"
       gradientUnits="userSpaceOnUse" />
    <linearGradient
       id="linearGradient870"
       y2="112.48898"
       xlink:href="#linearGradient6538"
       y1="199.49707"
       x2="61.944889"
       x1="152.01207"
       gradientTransform="scale(1.0693477,0.93514953)"
       gradientUnits="userSpaceOnUse" />
    <radialGradient
       id="radialGradient852"
       fx="240.38577"
       fy="325.76556"
       cy="477.83218"
       cx="227.00473"
       r="200.7332"
       gradientUnits="userSpaceOnUse">
      <stop
         id="stop854"
         style="stop-color:#e3f9ff"
         offset="0" />
      <stop
         id="stop867"
         style="stop-color:#73bee7"
         offset=".36195" />
      <stop
         id="stop856"
         style="stop-color:#438ec5"
         offset=".62535" />
      <stop
         id="stop1185"
         style="stop-color:#477daf"
         offset=".72607" />
      <stop
         id="stop855"
         style="stop-color:#2b5798"
         offset="1" />
    </radialGradient>
    <radialGradient
       id="radialGradient858"
       xlink:href="#linearGradient1400"
       cx="79.895966"
       cy="77.944687"
       fx="79.895966"
       fy="77.944687"
       r="68.379425"
       gradientUnits="userSpaceOnUse" />
    <linearGradient
       id="linearGradient1492">
      <stop
         id="stop1493"
         style="stop-color:#c6c6c6"
         offset="0" />
      <stop
         id="stop1496"
         style="stop-color:#f1f1f1"
         offset=".34923" />
      <stop
         id="stop1494"
         style="stop-color:#f0f0f0"
         offset="1" />
    </linearGradient>
    <linearGradient
       id="linearGradient1495"
       y2="510.07428"
       xlink:href="#linearGradient14985"
       y1="519.94214"
       x2="802.80231"
       x1="354.27808"
       gradientTransform="matrix(0.12037994,0,0,0.01928988,36.851514,125.07083)"
       gradientUnits="userSpaceOnUse" />
    <linearGradient
       id="linearGradient1497"
       y2="287.7261"
       xlink:href="#linearGradient1492"
       y1="169.43735"
       x2="622.35168"
       x1="741.65417"
       gradientTransform="matrix(0.21026023,0,0,0.06999086,87.833416,184.77208)"
       gradientUnits="userSpaceOnUse" />
    <linearGradient
       id="linearGradient1499"
       y2="419.5322"
       xlink:href="#linearGradient6538"
       y1="-72.09063"
       x2="330.22855"
       x1="727.89429"
       gradientTransform="matrix(0.21820403,0,0,0.2220235,198.49448,1.8818203)"
       gradientUnits="userSpaceOnUse" />
    <linearGradient
       id="linearGradient1506"
       y2="0.0078125"
       y1="0.97656"
       x2="0.78261"
       x1="0.052173998">
      <stop
         id="stop1508"
         style="stop-color:#000000;stop-opacity:.095506"
         offset="0" />
      <stop
         id="stop1510"
         style="stop-color:#000000;stop-opacity:0"
         offset="1" />
    </linearGradient>
    <linearGradient
       inkscape:collect="always"
       xlink:href="#linearGradient4688"
       id="linearGradient4690"
       x1="97.988579"
       y1="219.0018"
       x2="170.27524"
       y2="219.0018"
       gradientUnits="userSpaceOnUse"
       gradientTransform="matrix(0.60172845,0,0,0.60172845,23.758967,-0.00856112)" />
    <linearGradient
       id="linearGradient4905"
       y2="-15.057"
       xlink:href="#linearGradient4688"
       gradientUnits="userSpaceOnUse"
       x2="406.56"
       y1="-23.048"
       x1="397.76999"
       inkscape:collect="always"
       gradientTransform="matrix(0.03607858,0,0,0.03607858,124.4917,191.02445)" />
    <linearGradient
       id="linearGradient4907"
       y2="-15.548"
       xlink:href="#linearGradient6538"
       gradientUnits="userSpaceOnUse"
       x2="402.45999"
       y1="-7.9137001"
       x1="409.54999"
       inkscape:collect="always"
       gradientTransform="matrix(0.03607858,0,0,0.03607858,124.49514,191.02419)" />
    <linearGradient
       inkscape:collect="always"
       xlink:href="#linearGradient4688"
       id="linearGradient6524"
       gradientUnits="userSpaceOnUse"
       x1="397.76999"
       y1="-23.048"
       x2="406.56"
       y2="-15.057"
       gradientTransform="matrix(0.07056967,0,0,0.07056967,116.82831,191.53563)" />
    <linearGradient
       inkscape:collect="always"
       xlink:href="#linearGradient6538"
       id="linearGradient6608"
       gradientUnits="userSpaceOnUse"
       x1="409.54999"
       y1="-7.9137001"
       x2="402.45999"
       y2="-15.548"
       gradientTransform="matrix(0.07056967,0,0,0.07056967,116.82831,191.52319)" />
    <linearGradient
       inkscape:collect="always"
       xlink:href="#linearGradient15119"
       id="linearGradient15121"
       x1="74.212677"
       y1="132.1058"
       x2="133.50209"
       y2="132.7112"
       gradientUnits="userSpaceOnUse" />
    <linearGradient
       id="a"
       x1="160.08"
       x2="100.08"
       y1="40.079998"
       y2="180"
       gradientUnits="userSpaceOnUse">
      <stop
         offset="0"
         stop-color="#37aee2"
         id="stop16049" />
      <stop
         offset="1"
         stop-color="#1e96c8"
         id="stop16051" />
    </linearGradient>
    <linearGradient
       id="b"
       x1="123.67709"
       x2="146.50331"
       y1="131.03925"
       y2="174.66003"
       gradientTransform="scale(1.0919068,0.9158291)"
       gradientUnits="userSpaceOnUse">
      <stop
         offset="0"
         stop-color="#eff7fc"
         id="stop16054" />
      <stop
         offset="1"
         stop-color="#fff"
         id="stop16056" />
    </linearGradient>
    <radialGradient
       id="0"
       cx="217.75999"
       cy="3290.99"
       r="4271.9199"
       gradientUnits="userSpaceOnUse">
      <stop
         offset=".09"
         stop-color="#fa8f21"
         id="stop16134" />
      <stop
         offset=".78"
         stop-color="#d82d7e"
         id="stop16136" />
    </radialGradient>
    <radialGradient
       id="1"
       cx="2330.6101"
       cy="3182.95"
       r="3759.3301"
       gradientUnits="userSpaceOnUse">
      <stop
         offset=".64"
         stop-color="#8c3aaa"
         stop-opacity="0"
         id="stop16139" />
      <stop
         offset="1"
         stop-color="#8c3aaa"
         id="stop16141" />
    </radialGradient>
  </defs>
  <g
     inkscape:label="Calque 1"
     inkscape:groupmode="layer"
     id="layer1"
     transform="translate(-45.897433,-134.18698)">
    <g
       id="g6142"
       transform="matrix(0.58964623,0,0,0.58964623,96.512265,73.167997)">
      <g
         id="g1251"
         transform="matrix(0.74187023,0,0,0.74187023,6.5566732,202.55024)">
        <circle
           id="path1399"
           style="fill:url(#radialGradient858);fill-rule:evenodd;stroke-width:1pt"
           transform="matrix(0.83931,0,0,0.81857,61.805,-129.94)"
           cx="79.895966"
           cy="77.944687"
           r="68.379425" />
        <circle
           id="path825"
           style="fill:url(#radialGradient852);fill-rule:evenodd;stroke-width:1pt"
           transform="matrix(0.28232,0,0,0.28232,67.472,-204.34)"
           cx="224.57243"
           cy="453.50235"
           r="172.74803" />
        <path
           id="path846"
           sodipodi:nodetypes="ccczcccczzzcccccccccczzccccczccccccccccc"
           style="fill:#0e7a0c;fill-opacity:0.59375;fill-rule:evenodd;stroke-width:1pt"
           d="m 90.988,117.04 c -7.659,-0.89 -7.736,-13.86 -0.126,-14.91 4.781,2.69 9.218,-8.658 11.658,-4.129 -2.01,8.579 8.93,6.639 11.03,0.047 3.1,-5.319 1.55,4.592 2.74,6.702 2.78,6.83 -5.83,16.38 -12.18,10.6 -4.541,-4.03 -8.708,0.26 -13.122,1.69 z m 16.022,4.71 c 0.77,2.97 2.33,3.24 3.35,0.11 1.02,-2.96 -2.81,-2.41 -3.35,-0.11 z M 49.027,49.898 c -6.328,6.269 -8.198,15.319 -10.302,23.635 1.563,5.868 6.278,11.846 0.847,17.207 -3.471,7.544 -14.646,2.797 -11.862,-4.876 -0.141,-9.089 -1.253,-18.716 3.115,-27.084 2.392,-5.321 6.921,-11.725 13.46,-11.116 1.726,0.383 3.257,1.314 4.742,2.234 z M 63.014,70.879 C 62.565,63.586 70.53,64.21 68.733,55.498 68.427,48.105 53.001,51.788 57.519,42.97 c 4.206,-6.591 3.705,-9.974 14.233,-11.675 10.529,-2.167 21.793,-4.701 39.498,8.361 17.25,13.061 -14.337,2.703 -18.124,7.496 -6.082,5.123 -3.341,16.336 -10.434,18.689 -6.131,3.93 -5.643,12.055 -6.667,18.423 1.22,5.219 17.368,1.513 9.817,8.673 C 78.165,94.885 73.018,87.155 67.679,83.077 64.975,80.52 63.462,77.705 63.014,70.879 Z M 116.16,60.155 c 6.52,-0.418 9.2,7.064 8.63,12.493 -3.56,5.924 4.26,11.441 8.13,5.354 4.16,-7.36 -2.63,-16.57 -9,-20.468 -2.81,-2.493 -8.35,-2.153 -7.76,2.621 z M 51.824,122.63 c 8.191,-0.12 16.458,-1.98 24.599,-0.27 3.176,4.27 12.131,7.25 12.25,11.71 -6.322,4.42 -14.532,0.27 -21.135,-1.44 -5.242,-1.59 -12.692,-0.49 -15.4,-6.38 -0.382,-1.16 -0.58,-2.41 -0.314,-3.62 z"
           transform="matrix(0.83931,0,0,0.83931,63.114,-144.19)" />
        <path
           id="path869"
           sodipodi:nodetypes="ccc"
           style="fill:url(#linearGradient870);fill-rule:evenodd;stroke-width:1pt"
           d="M 108.73,127.56 C 86.037,154.8 10.566,127.21 28.055,73.223 42.852,54.432 73.969,68.123 108.73,127.56 Z"
           transform="matrix(0.83931,0,0,0.83931,63.114,-144.19)" />
        <path
           id="path863"
           sodipodi:nodetypes="ccc"
           style="fill:url(#linearGradient864);fill-rule:evenodd;stroke-width:1pt"
           d="M 66.013,31.409 C 91.448,15.908 143.19,38.839 135.61,82.029 125.33,95.725 106.73,25.696 66.013,31.409 Z"
           transform="matrix(0.83931,0,0,0.83931,63.114,-144.19)" />
        <circle
           id="path868"
           style="fill:url(#linearGradient1010);fill-rule:evenodd;stroke-width:1pt"
           transform="matrix(0.70551,0,0,0.47439,95.627,-115.15)"
           cx="51.104626"
           cy="31.15876"
           r="49.665058" />
        <g
           id="g1705"
           transform="matrix(1,0,0,0.88982,229.75,-225.2)">
          <path
             id="path1092"
             style="fill:url(#linearGradient882);fill-rule:evenodd;stroke-width:7.125"
             d="m -125.95,117.93 -1.12,0.06 c 0,0 0.38,4.1 3.97,9.5 3.58,5.41 7.35,10.12 22.84,15.13 l 0.814,-0.94 c -12.184,-3.84 -19.564,-9.85 -22.874,-14.84 -3.31,-4.99 -3.63,-8.91 -3.63,-8.91 z m 45.598,11 c -3.851,0.06 -7.405,1.45 -10.594,3.72 -4.251,3.03 -7.869,7.6 -10.934,12.87 -2.79,4.8 -5.1,10.22 -7.03,15.6 -5.36,-1.78 -10.74,-2.66 -14.13,-1.66 -7.38,2.33 -19.16,39.86 -22.31,46.41 -1.09,2.6 -1.21,6.26 -0.47,9.9 0.95,5.65 4.06,11.4 9.28,13.19 8.96,3.71 21.36,-0.79 25.31,-7.69 3.9,-7.21 20.863,-41.49 19.222,-48.25 -0.033,-0.11 -0.175,-0.22 -0.219,-0.34 -0.015,-0.1 0.054,-0.31 0.031,-0.41 -1.059,-3.61 -7.544,-7.72 -14.594,-10.4 1.69,-5.5 3.77,-10.99 6.41,-15.53 2.96,-5.1 6.323,-10.03 10.184,-12.78 6.389,-5.63 18.672,-3.37 16,-3.88 -1.344,-0.29 -4.872,-0.77 -6.156,-0.75 z m 8.688,4.06 c -0.146,0.01 -0.134,0.09 0.125,0.25 1.035,0.66 1.352,1.22 1.406,1.75 0.054,0.53 -0.19,1.23 -0.875,2.07 -0.686,0.83 -1.794,1.75 -3.188,2.59 -5.576,3.37 -16.302,5.37 -23.125,2.81 l -0.562,0.91 c 7.881,2.95 18.208,1.15 24.406,-2.6 1.55,-0.93 4.47,-3.39 4.219,-5.65 -0.189,-1.44 -1.969,-2.14 -2.406,-2.13 z" />
          <path
             id="path1697"
             style="fill:url(#linearGradient860);fill-rule:evenodd;stroke-width:7.125"
             d="m -127.22,117 c -1.94,1.79 0.37,4.88 1.11,6.97 3.85,8.79 11.97,15 20.99,17.8 4.95,0.47 2.8,3.47 0.91,6.38 -2.3,3.68 -3.58,7.84 -5.32,11.79 -5.15,-0.98 -11.44,-3.71 -16.06,0.09 -7.89,9.81 -11.29,22.17 -16.16,33.6 -2.36,6.94 -6.59,13.95 -5.09,21.5 0.9,6.84 5.13,14.13 12.43,15.45 10.49,2.61 22.8,-2.94 26.36,-13.49 6.49,-13.41 13.428,-26.84 17.019,-41.37 0.77,-5.23 -3.703,-8.65 -7.697,-10.97 -1.732,-1.93 -6.652,-1.93 -6.442,-4.4 2.04,-5.49 3.93,-11.13 7.42,-15.91 8.473,2.39 17.918,1.24 25.448,-3.3 2.813,-1.61 5.766,-6.17 2.302,-8.58 -3.751,-2.24 -2.524,0.73 -1.594,3.19 -5.226,5.89 -13.929,7.05 -21.384,6.47 -5.003,0.48 -1.523,-3.01 0.322,-4.95 4.226,-5.02 10.872,-6.76 17.218,-6.58 4.304,0.26 1.049,-3.29 -1.672,-2.44 -8.827,-1.31 -17.153,4.2 -21.822,11.37 -1.948,1.84 -5.328,-1.67 -7.848,-1.96 -8.17,-4.01 -16.42,-10.31 -18.1,-19.82 -0.53,-0.91 -1.36,-1.13 -2.34,-0.84 z" />
          <path
             id="path1702"
             style="fill:url(#linearGradient842);fill-rule:evenodd;stroke-width:7.125"
             d="m -126,115.97 c -4.12,0.04 -2.99,5.35 -1.31,7.6 3.84,8.92 11.76,15.54 20.81,18.78 3.78,0.42 3.13,3.32 1.29,5.64 -1.88,3.17 -3.27,6.5 -4.57,9.92 -2.52,1.43 -5.65,-0.91 -8.49,-0.67 -4.07,-0.52 -8.55,1.19 -10.12,5.27 -8.34,12.39 -12.34,27.01 -18.11,40.65 -2.31,7.3 -1.94,15.9 2.8,22.15 4.49,6.73 13.77,7.99 21.08,5.97 7.74,-1.95 13.85,-8.11 16.37,-15.61 6.09,-13.35 13.304,-26.56 16.151,-41.03 -0.102,-6.11 -6.116,-9.86 -10.981,-12.35 -3.46,-0.44 -2.81,-3.94 -1.38,-6.09 1.3,-3.77 3.136,-7.26 5.241,-10.64 8.37,1.83 17.433,0.93 24.898,-3.42 3.658,-1.43 6.655,-7.18 3.146,-10.11 -2.352,-0.82 -3.519,-1.38 -4.137,-3.84 -5.791,-2.49 -12.602,-0.55 -17.818,2.49 -3.663,1.94 -5.811,5.7 -8.93,8.13 -6.33,-1.09 -11.9,-5.15 -16.72,-9.19 -3.78,-3.37 -5.86,-8.02 -7.54,-12.63 -0.3,-0.52 -1.13,-1.03 -1.68,-1.02 z m 53.188,15.25 c -0.782,2.29 0.527,5.35 -2.729,6.2 -5.285,3.77 -12.207,4.13 -18.49,3.61 3.426,-6.14 10.485,-9.21 17.317,-9.36 1.301,-0.15 2.6,-0.32 3.902,-0.45 z" />
        </g>
        <path
           id="path991"
           sodipodi:nodetypes="czzzzz"
           style="fill:#ffffff;fill-rule:evenodd;stroke-width:1pt"
           d="m 105.62,-83.343 c 8.35,-2.104 28.9,5.195 30.86,10.889 1.64,5.736 -15.31,34.842 -19.21,40.973 -3.95,5.858 -16.35,9.696 -25.304,6.547 -8.36,-2.438 -11.341,-13.5 -8.639,-18.999 3.156,-5.56 14.914,-37.434 22.293,-39.41 z" />
        <circle
           id="path884"
           style="fill:url(#linearGradient1011);fill-rule:evenodd;stroke-width:1pt"
           transform="matrix(0.73592,0,0,0.57779,94.375,-75.48)"
           cx="51.104626"
           cy="31.15876"
           r="49.665058" />
        <path
           id="path852"
           sodipodi:nodetypes="ccccccccccccccczcccccccc"
           style="fill:#e7e7e7;fill-rule:evenodd;stroke-width:7.125"
           d="m 46.958,123.13 c 3.584,5.41 8.678,11.53 24.174,16.54 l 0.8,-0.92 C 59.744,134.91 51.503,127.64 48.194,122.64 Z M 91.047,126 c -3.852,0.06 -7.415,1.44 -10.603,3.71 -4.252,3.03 -7.875,7.61 -10.943,12.88 -6.135,10.55 -10.334,24.06 -11.964,33.61 l 2.599,1.6 c 1.586,-9.3 4.926,-24.21 10.852,-34.39 2.963,-5.1 6.342,-10.05 10.204,-12.8 6.388,-5.62 19.708,-3.13 17.031,-3.63 -1.344,-0.29 -3.086,-1.32 -7.176,-0.98 z m 6.923,1.09 c 1.138,0.41 0.746,0.61 2.03,1.86 1.29,1.25 1.19,2.59 1.24,3.12 0.05,0.52 -0.18,1.22 -0.87,2.05 -0.683,0.83 -1.785,1.74 -3.179,2.58 -5.577,3.38 -16.303,5.37 -23.125,2.81 l -0.57,0.93 c 7.88,2.96 18.215,1.15 24.413,-2.6 1.55,-0.94 4.471,-3.39 4.221,-5.65 -0.43,-3.21 -1.96,-4.95 -4.16,-5.1 z"
           transform="translate(57.275,-240.74)" />
        <path
           id="path829"
           sodipodi:nodetypes="czzzzz"
           style="fill:url(#linearGradient849);fill-rule:evenodd;stroke-width:1pt"
           d="m 52.761,62.762 c 8.344,-2.152 28.895,5.311 30.857,11.132 1.642,5.865 -15.313,35.626 -19.214,41.886 -3.951,5.99 -16.344,9.92 -25.3,6.7 -8.36,-2.49 -11.34,-13.8 -8.639,-19.43 3.156,-5.681 14.914,-38.268 22.296,-40.288 z"
           transform="translate(53.018,-146.32)" />
        <path
           id="path886"
           sodipodi:nodetypes="czzzzz"
           style="fill:url(#linearGradient850);fill-rule:evenodd;stroke-width:1pt"
           d="m 52.596,62.039 c 8.345,-2.048 28.896,5.053 30.858,10.592 1.641,5.581 -15.314,33.899 -19.214,39.859 -3.951,5.7 -16.344,9.43 -25.3,6.37 -8.36,-2.37 -11.341,-13.13 -8.639,-18.48 3.156,-5.411 14.913,-36.419 22.295,-38.341 z"
           transform="translate(53.018,-146.32)" />
        <path
           id="path897"
           sodipodi:nodetypes="ccccccccc"
           style="fill-opacity:0.5865;fill-rule:evenodd;stroke-width:1pt"
           d="M 70.083,65.602 C 66.043,70.834 63.32,78.907 63.185,79.264 58.157,77.309 50.566,75.167 44.288,74.13 l -0.069,0.369 c 15.275,2.523 29.591,9.127 34.685,14.636 l 0.302,-0.243 C 76.18,85.62 70.63,82.207 63.543,79.409 c 0.121,-0.321 2.853,-8.401 6.859,-13.59 z"
           transform="translate(53.018,-146.32)" />
        <path
           id="path898"
           sodipodi:nodetypes="czzsz"
           style="fill:url(#linearGradient848);fill-rule:evenodd;stroke-width:1pt"
           d="m 51.995,86.066 c -6.411,-2.087 -19.452,13.791 -21.16,20.574 -1.864,6.81 8.535,21.37 27.979,10.87 C 68.303,112.29 73.988,98.466 70.658,92.178 67.327,85.89 54.981,87.136 51.995,86.066 Z"
           transform="translate(53.018,-146.32)" />
      </g>
      <path
         id="rect900"
         sodipodi:nodetypes="cccccccccccccccc"
         style="fill:url(#linearGradient1495);fill-opacity:1;fill-rule:evenodd;stroke:url(#linearGradient15121);stroke-width:0.369;stroke-miterlimit:4;stroke-dasharray:none;stroke-opacity:0.36478"
         d="m 74.397179,127.59095 v 2.28218 2.2822 2.2822 2.28218 h 14.238852 14.237589 14.23885 14.23758 v -2.28218 -2.2822 -2.2822 l -0.0116,-2.38058 -28.46475,0.0985 H 88.636031 Z" />
      <path
         id="path3043"
         sodipodi:nodetypes="cczc"
         style="fill:url(#linearGradient1530);fill-rule:evenodd;stroke-width:0.74187pt"
         d="m 67.798061,172.24484 c 8.509993,9.11017 17.364214,5.7124 27.82681,0.84574 -1.017846,4.94827 -7.432798,11.32093 -16.264763,11.17998 -8.55228,-0.14096 -8.896508,-8.75407 -11.562047,-12.02572 z" />
      <text
         xml:space="preserve"
         style="font-style:normal;font-variant:normal;font-weight:normal;font-stretch:normal;font-size:7.16659px;line-height:1.25;font-family:Consolas;-inkscape-font-specification:'Consolas, Normal';font-variant-ligatures:normal;font-variant-caps:normal;font-variant-numeric:normal;font-variant-east-asian:normal;letter-spacing:0px;word-spacing:0px;fill:url(#linearGradient4690);fill-opacity:1;stroke:none;stroke-width:0.179167"
         x="76.096809"
         y="133.91696"
         id="text1631"><tspan
           sodipodi:role="line"
           id="tspan1629"
           style="font-style:normal;font-variant:normal;font-weight:normal;font-stretch:normal;font-size:7.16659px;font-family:Consolas;-inkscape-font-specification:'Consolas, Normal';font-variant-ligatures:normal;font-variant-caps:normal;font-variant-numeric:normal;font-variant-east-asian:normal;fill:url(#linearGradient4690);fill-opacity:1;stroke-width:0.179167"
           x="76.096809"
           y="133.91696">https://www.c</tspan></text>
    </g>
    <g
       id="g16394"
       transform="translate(-0.15884838)">
      <g
         id="g6954"
         transform="matrix(1.2450984,0,0,1.2450984,-73.407923,-94.69136)">
        <path
           id="path4093"
           d="m 144.99929,188.77708 c -2.22766,0.003 -4.45452,0.0121 -6.68205,0.19627 0,0 -2.20694,0.10452 -2.33542,1.23058 0,0 -0.0306,1.59224 0.0529,3.84837 l -0.0529,29.33435 c 0.0527,1.42351 1.23835,1.69735 5.23981,1.72897 l 3.81291,0.0684 v 0.002 h 0.0441 0.0463 v -0.002 l 3.8108,-0.0684 c 4.00156,-0.0316 5.18715,-0.30543 5.23981,-1.72897 l -0.0529,-29.33435 c 0.0836,-2.25603 0.0529,-3.84837 0.0529,-3.84837 -0.12849,-1.12604 -2.33323,-1.23058 -2.33323,-1.23058 -2.22771,-0.18419 -4.45664,-0.19339 -6.68443,-0.19627 -0.0529,-7e-5 -0.10589,6e-5 -0.15879,0 z"
           style="fill:#171717;stroke-width:0.264583"
           inkscape:connector-curvature="0" />
        <rect
           id="rect4254"
           style="fill:#e2e2e2;stroke-width:0.264583"
           height="29.55925"
           width="16.727488"
           y="191.72771"
           x="136.67514" />
        <circle
           id="path4222"
           style="color:#000000;fill:url(#linearGradient6524);stroke-width:0.0705697"
           cx="145.03255"
           cy="190.4731"
           r="0.48674169" />
        <circle
           id="path4224"
           style="color:#000000;fill:url(#linearGradient6608);stroke-width:0.0705697"
           cx="145.03255"
           cy="190.46066"
           r="0.48674169" />
        <circle
           id="path4242"
           style="color:#000000;fill:url(#linearGradient4905);stroke-width:0.0360786"
           cx="138.91106"
           cy="190.48123"
           r="0.24884556" />
        <circle
           id="path4244"
           style="color:#000000;fill:url(#linearGradient4907);stroke-width:0.0360786"
           cx="138.91449"
           cy="190.48097"
           r="0.24884556" />
        <ellipse
           id="path4250"
           style="color:#000000;fill:#6378ff;stroke-width:0.0705697"
           cx="138.90511"
           cy="190.4859"
           rx="0.10553946"
           ry="0.10868989" />
        <path
           id="path4256"
           d="m 154.16763,193.3512 v 2.33132"
           style="fill:none;stroke:#5a5a5a;stroke-width:0.169368"
           inkscape:connector-curvature="0" />
        <ellipse
           id="path4450"
           style="color:#000000;fill:#3d3d3d;stroke-width:0.0819752"
           cx="145.03619"
           cy="190.47397"
           rx="0.35285363"
           ry="0.35284469" />
        <path
           id="path4471"
           style="fill:none;stroke:#4d4d4d;stroke-width:0.0705697px"
           inkscape:connector-curvature="0"
           d="m 149.44297,219.80212 1.22174,0.004 v 0.52485 m -1.59224,-0.28228 h 1.27908 l -0.0132,0.48959 h -1.25703 z m -4.92654,0.55573 1.65838,0.009 0.009,-0.51604 -0.8336,-0.32197 -0.81597,0.34403 z m -4.73101,-0.54747 0.2277,0.31149 m 0.004,-0.5778 -0.23404,0.26546 1.28376,0.0124 c 0.34239,0.005 0.21531,0.54129 -0.004,0.48517 l -0.62191,0.004">
          <title
             id="title4476">Android Buttons</title>
        </path>
        <path
           id="path4478"
           d="m 149.54007,192.57544 c 0.0566,-0.011 0.0669,-0.009 0.097,0"
           sodipodi:nodetypes="cc"
           style="fill:none;stroke:#4d4d4d;stroke-width:0.0705697px"
           inkscape:connector-curvature="0" />
        <path
           id="path4478-3"
           d="m 149.41889,192.43442 c 0.0897,-0.0948 0.26758,-0.0838 0.34843,-0.004"
           sodipodi:nodetypes="cc"
           style="fill:none;stroke:#4d4d4d;stroke-width:0.0705697px"
           inkscape:connector-curvature="0" />
        <path
           id="path4478-3-0"
           d="m 149.28872,192.30054 c 0.19554,-0.17202 0.42635,-0.16761 0.59764,0.002"
           sodipodi:nodetypes="cc"
           style="fill:none;stroke:#4d4d4d;stroke-width:0.0705697px"
           inkscape:connector-curvature="0" />
        <path
           id="path4478-3-0-7"
           d="m 149.17733,192.15263 c 0.24405,-0.23596 0.63807,-0.20729 0.8314,-0.0132"
           sodipodi:nodetypes="cc"
           style="fill:none;stroke:#4d4d4d;stroke-width:0.0705697px"
           inkscape:connector-curvature="0" />
        <path
           id="path4542"
           d="m 150.03855,192.67254 -0.002,-0.10585 0.13012,-0.075 -0.002,0.18083 z"
           style="fill:#4d4d4d;stroke-width:0.264583"
           inkscape:connector-curvature="0" />
        <path
           id="path4544"
           d="m 150.22376,192.66804 0.009,-0.28006 0.10365,-0.0772 v 0.36389 z"
           style="fill:#4d4d4d;stroke-width:0.264583"
           inkscape:connector-curvature="0" />
        <path
           id="path4546"
           sodipodi:nodetypes="ccccc"
           inkscape:connector-curvature="0"
           style="fill:#4d4d4d;stroke-width:0.264583"
           d="m 150.40579,192.66804 0.009,-0.45982 0.10365,-0.0772 v 0.54361 z" />
        <path
           id="path4561"
           sodipodi:nodetypes="ccccc"
           d="m 150.58332,192.66698 0.009,-0.61637 0.10975,-0.0772 v 0.7002 z"
           style="fill:#4d4d4d;stroke-width:0.264583"
           inkscape:connector-curvature="0" />
        <path
           id="path4563"
           d="m 150.9847,192.6527 h 0.43664 v -0.64617 h -0.14555 v -0.0684 h -0.15217 v 0.0662 h -0.14114 z"
           sodipodi:nodetypes="ccccccccc"
           style="fill:#4d4d4d;stroke-width:0.264583"
           inkscape:connector-curvature="0" />
      </g>
      <path
         d="m 97.873132,170.04796 c 0,-0.75757 0.614121,-1.37172 1.371714,-1.37172 h 10.542834 c 0.36379,0 0.71269,0.14452 0.96989,0.40176 0.25724,0.25725 0.40175,0.60613 0.40175,0.96989 v 3.83402 c 0,0.75756 -0.61412,1.37171 -1.37171,1.37171 h -8.48526 l -2.647697,2.09536 0.590157,-2.09536 c -0.757563,0 -1.371708,-0.61413 -1.371708,-1.37171 v -3.21226 z"
         fill="#e69138"
         id="path7119"
         style="fill:#ffdd55;stroke:#000000;stroke-width:0.262159;stroke-linecap:square;stroke-miterlimit:10;stroke-dasharray:none;stroke-opacity:1"
         sodipodi:nodetypes="csssssscccscc" />
      <path
         d="m 116.26981,161.53452 c 0,-0.75756 -0.61413,-1.37171 -1.37171,-1.37171 h -10.54284 c -0.3638,0 -0.71269,0.14451 -0.96989,0.40175 -0.25724,0.25725 -0.40176,0.60614 -0.40176,0.96989 v 3.83402 c 0,0.75756 0.61413,1.37171 1.37171,1.37171 h 8.48527 l 2.64769,2.09536 -0.59016,-2.09536 c 0.75757,0 1.37172,-0.61412 1.37172,-1.37171 v -3.21226 z"
         fill="#e69138"
         id="path7651"
         style="fill:#e69138;fill-opacity:1;stroke:#000000;stroke-width:0.262159;stroke-linecap:square;stroke-miterlimit:10;stroke-dasharray:none;stroke-opacity:1"
         sodipodi:nodetypes="csssssscccscc" />
      <g
         id="g16083"
         transform="matrix(0.0315378,0,0,0.0292284,105.45869,147.84436)">
        <circle
           cx="120"
           cy="120"
           r="120"
           fill="url(#a)"
           id="circle16061"
           style="fill:url(#a)" />
        <path
           fill="#c8daea"
           d="m 98,175 c -3.888,0 -3.227,-1.468 -4.568,-5.17 L 82,132.207 170,80"
           id="path16063" />
        <path
           fill="#a9c9dd"
           d="m 98,175 c 3,0 4.325,-1.372 6,-3 l 16,-15.558 -19.958,-12.035"
           id="path16065" />
        <path
           fill="url(#b)"
           d="m 100.04,144.41 48.36,35.729 c 5.519,3.045 9.501,1.468 10.876,-5.123 l 19.685,-92.763 c 2.015,-8.08 -3.08,-11.746 -8.36,-9.349 l -115.59,44.571 c -7.89,3.165 -7.843,7.567 -1.438,9.528 l 29.663,9.259 68.673,-43.325 c 3.242,-1.966 6.218,-0.91 3.776,1.258"
           id="path16067"
           style="fill:url(#b)" />
      </g>
      <text
         xml:space="preserve"
         style="font-style:normal;font-variant:normal;font-weight:normal;font-stretch:normal;font-size:10.4769px;line-height:1.25;font-family:Consolas;-inkscape-font-specification:'Consolas, Normal';font-variant-ligatures:normal;font-variant-caps:normal;font-variant-numeric:normal;font-variant-east-asian:normal;letter-spacing:0px;word-spacing:0px;fill:#000000;fill-opacity:1;stroke:none;stroke-width:0.261922"
         x="75.549377"
         y="207.36913"
         id="text14249"
         transform="scale(1.3425804,0.74483436)"><tspan
           sodipodi:role="line"
           id="tspan14247"
           style="font-style:normal;font-variant:normal;font-weight:normal;font-stretch:normal;font-size:10.4769px;font-family:Consolas;-inkscape-font-specification:'Consolas, Normal';font-variant-ligatures:normal;font-variant-caps:normal;font-variant-numeric:normal;font-variant-east-asian:normal;stroke-width:0.261922"
           x="75.549377"
           y="207.36913">@</tspan></text>
    </g>
    <g
       id="g16474"
       transform="translate(3.5697115,3.0474706)">
      <g
         clip-rule="evenodd"
         fill-rule="evenodd"
         id="g16031"
         transform="matrix(0.07024062,0,0,0.07024062,49.397433,152.65535)">
        <path
           d="m 25,0 h 200 c 13.808,0 25,11.192 25,25 v 200 c 0,13.808 -11.192,25 -25,25 H 25 C 11.192,250 0,238.808 0,225 V 25 C 0,11.192 11.192,0 25,0 Z"
           fill="#010101"
           id="path16013" />
        <path
           d="m 156.98,230 c 7.607,0 13.774,-6.117 13.774,-13.662 0,-7.545 -6.167,-13.663 -13.774,-13.663 h -2.075 c 7.607,0 13.774,6.118 13.774,13.663 0,7.545 -6.167,13.662 -13.774,13.662 z"
           fill="#ee1d51"
           id="path16015" />
        <path
           d="m 154.717,202.675 h -2.075 c -7.607,0 -13.775,6.118 -13.775,13.663 0,7.545 6.168,13.662 13.775,13.662 h 2.075 c -7.608,0 -13.775,-6.117 -13.775,-13.662 0,-7.545 6.167,-13.663 13.775,-13.663 z"
           fill="#66c8cf"
           id="path16017" />
        <ellipse
           cx="154.811"
           cy="216.338"
           fill="#010101"
           rx="6.6989999"
           ry="6.6430001"
           id="ellipse16019" />
        <path
           d="m 50,196.5 v 6.925 h 8.112 v 26.388 h 8.115 v -26.201 h 6.603 l 2.264,-7.112 z m 66.415,0 v 6.925 h 8.112 v 26.388 h 8.115 v -26.201 h 6.603 l 2.264,-7.112 z m -39.81,3.93 c 0,-2.17 1.771,-3.93 3.959,-3.93 2.19,0 3.963,1.76 3.963,3.93 0,2.17 -1.772,3.93 -3.963,3.93 -2.188,-0.001 -3.959,-1.76 -3.959,-3.93 z m 0,6.738 h 7.922 v 22.645 H 76.605 Z M 87.924,196.5 v 33.313 h 7.925 v -8.608 l 2.453,-2.248 7.735,11.043 h 8.49 l -11.133,-16.095 10,-9.733 h -9.622 l -7.923,7.86 V 196.5 Z m 85.47,0 v 33.313 h 7.926 v -8.608 l 2.452,-2.248 7.737,11.043 H 200 l -11.133,-16.095 10,-9.733 h -9.622 l -7.925,7.86 V 196.5 Z"
           fill="#ffffff"
           id="path16021" />
        <path
           d="m 161.167,81.186 c 10.944,7.819 24.352,12.42 38.832,12.42 V 65.755 a 39.26,39.26 0 0 1 -8.155,-0.853 v 21.923 c -14.479,0 -27.885,-4.601 -38.832,-12.42 v 56.835 c 0,28.432 -23.06,51.479 -51.505,51.479 -10.613,0 -20.478,-3.207 -28.673,-8.707 9.353,9.558 22.396,15.488 36.826,15.488 28.447,0 51.508,-23.047 51.508,-51.48 V 81.186 Z m 10.06,-28.098 c -5.593,-6.107 -9.265,-14 -10.06,-22.726 V 26.78 h -7.728 c 1.945,11.09 8.58,20.565 17.788,26.308 z m -80.402,99.107 a 23.445,23.445 0 0 1 -4.806,-14.256 c 0,-13.004 10.548,-23.547 23.561,-23.547 a 23.6,23.6 0 0 1 7.147,1.103 V 87.022 a 51.97,51.97 0 0 0 -8.152,-0.469 v 22.162 a 23.619,23.619 0 0 0 -7.15,-1.103 c -13.013,0 -23.56,10.543 -23.56,23.548 0,9.195 5.272,17.157 12.96,21.035 z"
           fill="#ee1d52"
           id="path16023" />
        <path
           d="m 153.012,74.405 c 10.947,7.819 24.353,12.42 38.832,12.42 V 64.902 C 183.762,63.182 176.607,58.96 171.227,53.088 162.019,47.345 155.384,37.87 153.439,26.78 H 133.14 v 111.239 c -0.046,12.968 -10.576,23.468 -23.561,23.468 -7.652,0 -14.45,-3.645 -18.755,-9.292 -7.688,-3.878 -12.96,-11.84 -12.96,-21.035 0,-13.005 10.547,-23.548 23.56,-23.548 2.493,0 4.896,0.388 7.15,1.103 V 86.553 c -27.945,0.577 -50.42,23.399 -50.42,51.467 0,14.011 5.597,26.713 14.68,35.993 8.195,5.5 18.06,8.707 28.673,8.707 28.445,0 51.505,-23.048 51.505,-51.479 z"
           fill="#ffffff"
           id="path16025" />
        <path
           d="m 191.844,64.902 v -5.928 a 38.84,38.84 0 0 1 -20.617,-5.887 38.948,38.948 0 0 0 20.617,11.815 z M 153.439,26.78 a 39.524,39.524 0 0 1 -0.427,-3.198 V 20 h -28.028 v 111.24 c -0.045,12.967 -10.574,23.467 -23.56,23.467 -3.813,0 -7.412,-0.904 -10.6,-2.512 4.305,5.647 11.103,9.292 18.755,9.292 12.984,0 23.515,-10.5 23.561,-23.468 V 26.78 Z m -44.864,59.773 v -6.311 a 51.97,51.97 0 0 0 -7.067,-0.479 C 73.06,79.763 50,102.811 50,131.24 c 0,17.824 9.063,33.532 22.835,42.772 -9.083,-9.28 -14.68,-21.982 -14.68,-35.993 0,-28.067 22.474,-50.889 50.42,-51.466 z"
           fill="#69c9d0"
           id="path16027" />
        <path
           d="m 154.904,230 c 7.607,0 13.775,-6.117 13.775,-13.662 0,-7.545 -6.168,-13.663 -13.775,-13.663 h -0.188 c -7.607,0 -13.774,6.118 -13.774,13.663 0,7.545 6.167,13.662 13.774,13.662 z m -6.792,-13.662 c 0,-3.67 3,-6.643 6.7,-6.643 3.697,0 6.697,2.973 6.697,6.643 0,3.67 -3,6.645 -6.697,6.645 -3.7,-0.001 -6.7,-2.975 -6.7,-6.645 z"
           fill="#ffffff"
           id="path16029" />
      </g>
      <g
         id="g16165"
         transform="matrix(0.00521894,0,0,0.00521894,61.45712,156.02456)">
        <path
           d="M 853.2,3352.8 C 653.1,3343.7 544.4,3310.4 472.1,3282.2 376.3,3244.9 308,3200.5 236.1,3128.7 164.2,3056.9 119.7,2988.6 82.6,2892.8 54.4,2820.5 21.1,2711.8 12,2511.7 2,2295.4 0,2230.5 0,1682.5 0,1134.5 2.2,1069.7 11.9,853.2 21,653.1 54.5,544.6 82.5,472.1 119.8,376.3 164.3,308 236,236 307.8,164.2 376.1,119.6 472,82.5 544.3,54.3 653,21 853.1,11.9 1069.5,2 1134.5,0 1682.3,0 c 548,0 612.8,2.2 829.3,11.9 200.1,9.1 308.6,42.6 381.1,70.6 95.8,37.1 164.1,81.7 236,153.5 71.9,71.8 116.2,140.2 153.5,236 28.2,72.3 61.5,181 70.6,381.1 9.9,216.5 11.9,281.3 11.9,829.3 0,547.8 -2,612.8 -11.9,829.3 -9.1,200.1 -42.6,308.8 -70.6,381.1 -37.3,95.8 -81.7,164.1 -153.5,235.9 -71.8,71.8 -140.2,116.2 -236,153.5 -72.3,28.2 -181,61.5 -381.1,70.6 -216.3,9.9 -281.3,11.9 -829.3,11.9 -547.8,0 -612.8,-1.9 -829.1,-11.9"
           fill="url(#0)"
           id="path16146"
           style="fill:url(#0)" />
        <path
           d="M 853.2,3352.8 C 653.1,3343.7 544.4,3310.4 472.1,3282.2 376.3,3244.9 308,3200.5 236.1,3128.7 164.2,3056.9 119.7,2988.6 82.6,2892.8 54.4,2820.5 21.1,2711.8 12,2511.7 2,2295.4 0,2230.5 0,1682.5 0,1134.5 2.2,1069.7 11.9,853.2 21,653.1 54.5,544.6 82.5,472.1 119.8,376.3 164.3,308 236,236 307.8,164.2 376.1,119.6 472,82.5 544.3,54.3 653,21 853.1,11.9 1069.5,2 1134.5,0 1682.3,0 c 548,0 612.8,2.2 829.3,11.9 200.1,9.1 308.6,42.6 381.1,70.6 95.8,37.1 164.1,81.7 236,153.5 71.9,71.8 116.2,140.2 153.5,236 28.2,72.3 61.5,181 70.6,381.1 9.9,216.5 11.9,281.3 11.9,829.3 0,547.8 -2,612.8 -11.9,829.3 -9.1,200.1 -42.6,308.8 -70.6,381.1 -37.3,95.8 -81.7,164.1 -153.5,235.9 -71.8,71.8 -140.2,116.2 -236,153.5 -72.3,28.2 -181,61.5 -381.1,70.6 -216.3,9.9 -281.3,11.9 -829.3,11.9 -547.8,0 -612.8,-1.9 -829.1,-11.9"
           fill="url(#1)"
           id="path16148"
           style="fill:url(#1)" />
        <path
           d="m 1269.25,1689.52 c 0,-230.11 186.49,-416.7 416.6,-416.7 230.11,0 416.7,186.59 416.7,416.7 0,230.11 -186.59,416.7 -416.7,416.7 -230.11,0 -416.6,-186.59 -416.6,-416.7 m -225.26,0 c 0,354.5 287.36,641.86 641.86,641.86 354.5,0 641.86,-287.36 641.86,-641.86 0,-354.5 -287.36,-641.86 -641.86,-641.86 -354.5,0 -641.85,287.34 -641.85,641.86 m 1159.13,-667.31 a 150,150 0 1 0 150.06,-149.94 h -0.06 a 150.07,150.07 0 0 0 -150,149.94 M 1180.85,2707 c -121.87,-5.55 -188.11,-25.85 -232.13,-43 -58.36,-22.72 -100,-49.78 -143.78,-93.5 -43.78,-43.72 -70.88,-85.32 -93.5,-143.68 -17.16,-44 -37.46,-110.26 -43,-232.13 -6.06,-131.76 -7.27,-171.34 -7.27,-505.15 0,-333.81 1.31,-373.28 7.27,-505.15 5.55,-121.87 26,-188 43,-232.13 22.72,-58.36 49.78,-100 93.5,-143.78 43.72,-43.78 85.32,-70.88 143.78,-93.5 44,-17.16 110.26,-37.46 232.13,-43 131.76,-6.06 171.34,-7.27 505,-7.27 333.66,0 373.28,1.29 505.15,7.29 121.87,5.55 188,26 232.13,43 58.36,22.62 100,49.78 143.78,93.5 43.78,43.72 70.78,85.42 93.5,143.78 17.16,44 37.46,110.26 43,232.13 6.06,131.87 7.27,171.34 7.27,505.15 0,333.81 -1.21,373.28 -7.27,505.15 -5.55,121.87 -25.95,188.11 -43,232.13 -22.72,58.36 -49.78,100 -93.5,143.68 -43.72,43.68 -85.42,70.78 -143.78,93.5 -44,17.16 -110.26,37.46 -232.13,43 -131.76,6.06 -171.34,7.27 -505.15,7.27 -333.81,0 -373.28,-1.21 -505,-7.27 M 1170.5,447.09 c -133.07,6.06 -224,27.16 -303.41,58.06 -82.19,31.91 -151.86,74.72 -221.43,144.18 -69.57,69.46 -112.27,139.14 -144.18,221.43 -30.9,79.46 -52,170.34 -58.06,303.41 -6.16,133.28 -7.57,175.89 -7.57,515.35 0,339.46 1.41,382.07 7.57,515.35 6.06,133.08 27.16,223.95 58.06,303.41 31.91,82.19 74.62,152 144.18,221.43 69.56,69.43 139.14,112.18 221.43,144.18 79.56,30.9 170.34,52 303.41,58.06 133.35,6.06 175.89,7.57 515.35,7.57 339.46,0 382.07,-1.41 515.35,-7.57 133.08,-6.06 223.95,-27.16 303.41,-58.06 82.19,-32 151.86,-74.72 221.43,-144.18 69.57,-69.46 112.18,-139.24 144.18,-221.43 30.9,-79.46 52.1,-170.34 58.06,-303.41 6.06,-133.38 7.47,-175.89 7.47,-515.35 0,-339.46 -1.41,-382.07 -7.47,-515.35 -6.06,-133.08 -27.16,-224 -58.06,-303.41 -32,-82.19 -74.72,-151.86 -144.18,-221.43 -69.46,-69.57 -139.24,-112.27 -221.33,-144.18 -79.56,-30.9 -170.44,-52.1 -303.41,-58.06 -133.3,-6.09 -175.89,-7.57 -515.3,-7.57 -339.41,0 -382.1,1.41 -515.45,7.57"
           fill="#ffffff"
           id="path16150" />
      </g>
      <g
         fill="none"
         id="g16400"
         transform="matrix(0.0685944,0,0,0.0685944,55.381603,143.66237)">
        <path
           d="M 0,18.338 C 0,8.216 8.474,0 18.92,0 H 237.08 C 247.53,0 256,8.216 256,18.338 V 237.665 C 256,247.79 247.53,256 237.08,256 H 18.92 C 8.475,256 0,247.791 0,237.668 V 18.335 Z"
           fill="#006699"
           id="path16396" />
        <path
           d="M 77.796,214.238 V 98.986 H 39.488 V 214.238 H 77.8 Z M 58.65,83.253 c 13.356,0 21.671,-8.85 21.671,-19.91 -0.25,-11.312 -8.315,-19.915 -21.417,-19.915 -13.111,0 -21.674,8.603 -21.674,19.914 0,11.06 8.312,19.91 21.169,19.91 h 0.248 z M 99,214.238 h 38.305 v -64.355 c 0,-3.44 0.25,-6.889 1.262,-9.346 2.768,-6.885 9.071,-14.012 19.656,-14.012 13.858,0 19.405,10.568 19.405,26.063 v 61.65 h 38.304 v -66.082 c 0,-35.399 -18.896,-51.872 -44.099,-51.872 -20.663,0 -29.738,11.549 -34.78,19.415 h 0.255 V 98.99 H 99.002 c 0.5,10.812 -0.003,115.252 -0.003,115.252 z"
           fill="#ffffff"
           id="path16398" />
      </g>
    </g>
  </g>
</svg>
