<svg xmlns="http://www.w3.org/2000/svg" viewBox="0 0 162.25 62.62"><defs><style>.cls-1{fill:#fad275;}.cls-2{fill:#83b751;}.cls-3{fill:#fff;}</style></defs><g id="Calque_2" data-name="Calque 2"><g id="Calque_1-2" data-name="Calque 1"><path class="cls-1" d="M11.16,16.63a11.81,11.81,0,0,1,5.07,1,7.34,7.34,0,0,1,3.25,2.87,8.54,8.54,0,0,1,1.15,4.55,10.45,10.45,0,0,1-.49,3.18A7.79,7.79,0,0,1,18.58,31a7.68,7.68,0,0,1-2.8,2,10.18,10.18,0,0,1-4.21.77h-4v10H3.91V16.63Zm.38,13.64a6.25,6.25,0,0,0,2.66-.5,4.3,4.3,0,0,0,1.66-1.34,5.52,5.52,0,0,0,.86-1.69A5.34,5.34,0,0,0,17,25.13a5.73,5.73,0,0,0-.26-1.71,4.43,4.43,0,0,0-.88-1.62,4.57,4.57,0,0,0-1.62-1.2,5.62,5.62,0,0,0-2.46-.47H7.55V30.27Z" transform="translate(-3.91)"/><path class="cls-1" d="M31.86,44.18a8.45,8.45,0,0,1-4-.94,7,7,0,0,1-2.84-2.76A8.81,8.81,0,0,1,24,36a8.84,8.84,0,0,1,1.09-4.51A7.6,7.6,0,0,1,28,28.62a8.16,8.16,0,0,1,4-1,6.61,6.61,0,0,1,3.7,1A6.79,6.79,0,0,1,38,31l-.23.56.34-3.27h3.23V43.8H37.88V39.74l.41.9a4.12,4.12,0,0,1-.71,1,9,9,0,0,1-1.34,1.19,7.34,7.34,0,0,1-1.89,1A7.15,7.15,0,0,1,31.86,44.18Zm.94-2.9a5.64,5.64,0,0,0,2.37-.48,4.61,4.61,0,0,0,1.75-1.4,5.32,5.32,0,0,0,1-2.1v-3a4.86,4.86,0,0,0-1.05-2A5.36,5.36,0,0,0,35,31a5.58,5.58,0,0,0-2.29-.47,5.06,5.06,0,0,0-4.45,2.55,5.85,5.85,0,0,0,0,5.57,5.44,5.44,0,0,0,1.92,2A5,5,0,0,0,32.8,41.28Z" transform="translate(-3.91)"/><path class="cls-1" d="M50.58,28.24l.26,3.8-.11-.6a5.78,5.78,0,0,1,2.4-2.76,7.44,7.44,0,0,1,3.95-1,5.13,5.13,0,0,1,3.59,1.3,4.45,4.45,0,0,1,1.44,3.36V43.8H58.58V33.51a3.17,3.17,0,0,0-.73-2,2.68,2.68,0,0,0-2.16-.81,4.2,4.2,0,0,0-2.42.75,5,5,0,0,0-1.73,2.07,7,7,0,0,0-.62,3V43.8H47.38V28.24Z" transform="translate(-3.91)"/><path class="cls-2" d="M67,16.63H85.11v3.5H77.82V43.8H74.18V20.13H67Z" transform="translate(-3.91)"/><path class="cls-2" d="M93.23,44.18a9.33,9.33,0,0,1-4.59-1.07,7.74,7.74,0,0,1-3-2.93,8.58,8.58,0,0,1-1-4.27,7.65,7.65,0,0,1,1.19-4.17,8.94,8.94,0,0,1,3.13-3,8.61,8.61,0,0,1,4.36-1.12,7.4,7.4,0,0,1,5.11,1.8,9.22,9.22,0,0,1,2.78,5L88.34,38.88l-.82-2.07L98,32.94l-.71.53a5.06,5.06,0,0,0-1.51-2.14A4,4,0,0,0,93,30.42a4.8,4.8,0,0,0-2.54.68A4.73,4.73,0,0,0,88.76,33a5.68,5.68,0,0,0-.64,2.76,6,6,0,0,0,.65,2.82,4.87,4.87,0,0,0,1.85,1.94,5.22,5.22,0,0,0,2.68.69,5.39,5.39,0,0,0,2-.37,9.17,9.17,0,0,0,1.82-1l1.58,2.59a10.82,10.82,0,0,1-2.62,1.28A9,9,0,0,1,93.23,44.18Z" transform="translate(-3.91)"/><path class="cls-2" d="M118.18,42.34a8,8,0,0,1-2.52,1.35,9.71,9.71,0,0,1-7.38-.53,7.5,7.5,0,0,1-3-2.85A8.3,8.3,0,0,1,104.16,36a7.81,7.81,0,0,1,1.17-4.31,8.09,8.09,0,0,1,3-2.82,8.48,8.48,0,0,1,4-1,10.21,10.21,0,0,1,3.33.51,7.68,7.68,0,0,1,2.57,1.44l-1.77,2.26a7.22,7.22,0,0,0-1.63-.92,5.44,5.44,0,0,0-2.2-.44,4.82,4.82,0,0,0-2.53.7,5,5,0,0,0-1.81,1.88,5.42,5.42,0,0,0-.66,2.69,5.34,5.34,0,0,0,.68,2.66,5.09,5.09,0,0,0,1.88,1.92,5.3,5.3,0,0,0,2.78.71,5.39,5.39,0,0,0,1.82-.3,5.3,5.3,0,0,0,1.52-.82Z" transform="translate(-3.91)"/><path class="cls-2" d="M122.65,43.8V14.72h3.46V31.85l-.08-.64a6.51,6.51,0,0,1,2.43-2.55,7.18,7.18,0,0,1,3.89-1,5.1,5.1,0,0,1,3.58,1.3,4.49,4.49,0,0,1,1.45,3.36V43.8h-3.53V33.51a3.23,3.23,0,0,0-.73-2,2.72,2.72,0,0,0-2.17-.81,4.19,4.19,0,0,0-2.42.77,5.17,5.17,0,0,0-1.73,2.09,7,7,0,0,0-.62,3V43.8Z" transform="translate(-3.91)"/><path class="cls-1" d="M154.13,21a5.78,5.78,0,0,1,1.47,6.81,20.24,20.24,0,0,1-3.1,5.11,61.15,61.15,0,0,1-4.38,5c-1.25,1.31-2.56,2.57-3.83,3.86a88.68,88.68,0,0,0-6.72,7.13,26.77,26.77,0,0,0-3.85,6.39,9.89,9.89,0,0,1-4.05,4.66,20.27,20.27,0,0,1-8.32,2.71l-.18,0c-.13,0-.28,0-.35-.14s.05-.25.14-.34a9.39,9.39,0,0,1,1.6-1,12.68,12.68,0,0,0,3.13-2.26,24.57,24.57,0,0,0,1.56-2.22,40.34,40.34,0,0,0,2.47-4.52c.41-.85.75-1.74,1.13-2.61.53-1.18,1-2.38,1.43-3.59.3-.82.57-1.65.85-2.47l1.2-3.4c.41-1.17.78-2.36,1.19-3.54s.84-2.25,1.19-3.39c.23-.73.54-1.44.75-2.18s.53-1.41.8-2.12c.49-1.3.93-2.63,1.47-3.91a23.87,23.87,0,0,1,1.76-3.59A8.38,8.38,0,0,1,144,18.58a5.27,5.27,0,0,1,3.32-.79l.8.06a7.53,7.53,0,0,0,1.38.41c.57.1,1,.48,1.61.56a2.25,2.25,0,0,0,1.18.75c.23.14.42.38.71.42A2.75,2.75,0,0,0,154.13,21Z" transform="translate(-3.91)"/><path class="cls-2" d="M152.3,19.57a2.25,2.25,0,0,1-1.18-.75c.23-.59.45-1.19.7-1.79.33-.81.32-.8-.3-1.43a.45.45,0,0,0-.65-.09,1.32,1.32,0,0,1-.7.25c-.24,0-.31.16-.34.38-.1.71-.21,1.41-.32,2.12a7.53,7.53,0,0,1-1.38-.41c0-.64.12-1.27.15-1.91,0-.25,0-.4-.29-.51-1.87-.73-2.37-2.19-2-4A11.46,11.46,0,0,1,147.6,7.5a38.83,38.83,0,0,1,4.28-5.77A7.51,7.51,0,0,1,153.66.19a.78.78,0,0,1,.8-.12c.27.17.24.47.21.73a13.76,13.76,0,0,1-.62,2.83l-1.2,4a4.5,4.5,0,0,0-.21,1.73c.45-.43.81-.81,1.21-1.15.82-.69,1.66-1.34,2.48-2a12.84,12.84,0,0,1,1.34-1c.73-.46,1.46-1,2.23-1.35a7,7,0,0,1,2-.8c.66-.11,1,.21.7.84a11.68,11.68,0,0,1-1.2,2.23L158.78,10a11.47,11.47,0,0,0-1.11,2.63.28.28,0,0,0,.09.36c.12.07.22,0,.33-.07a13.38,13.38,0,0,0,3-2.78A42.86,42.86,0,0,1,164.69,6a.74.74,0,0,1,.13-.12c.29-.2.58-.54,1-.33a1,1,0,0,1,.37,1.08,24.72,24.72,0,0,1-1.74,6.25,28.41,28.41,0,0,1-1.34,3.1,10.86,10.86,0,0,1-2,2.83,3.74,3.74,0,0,1-2.68,1.26,3,3,0,0,1-1.83-.64.42.42,0,0,0-.64,0c-.57.52-1.25.91-1.8,1.46A2.75,2.75,0,0,1,153,20c.63-.56,1.26-1.13,1.9-1.68a.45.45,0,0,0,.15-.52c-.14-.63-.42-1-1.13-.88a.36.36,0,0,1-.17,0c-.14,0-.2,0-.27.16C153.1,17.89,152.7,18.73,152.3,19.57Zm5-9.74a4.89,4.89,0,0,0-.09.53.27.27,0,0,0,.09.28c.13.07.23-.05.3-.13a6.91,6.91,0,0,0,.44-.62A15.35,15.35,0,0,1,160.06,7a7.9,7.9,0,0,0,1.13-1.49c.06-.12.15-.29,0-.42s-.27-.06-.4,0l-.26.17a9,9,0,0,0-2,2A5.59,5.59,0,0,0,157.26,9.83Zm-5.88-3.15a2.82,2.82,0,0,0-.1,1.15c0,.32,0,.84.33.87s.36-.49.43-.79a14.58,14.58,0,0,1,.91-3c.28-.62.54-1.26.77-1.9.09-.23.29-.6,0-.73s-.5.19-.65.41A11.39,11.39,0,0,0,151.38,6.68Zm12.93,1.37c0-.17,0-.22.05-.26s.09-.35-.1-.44-.29.11-.38.23-.34.45-.52.67a29.56,29.56,0,0,1-1.92,2.67c-.44.44-.82.94-1.23,1.41a.33.33,0,0,0-.08.37c.08.14.22.06.33,0a2.41,2.41,0,0,0,1.08-.6A9.18,9.18,0,0,0,163.33,10,7.43,7.43,0,0,0,164.31,8.05Z" transform="translate(-3.91)"/><path class="cls-3" d="M149.51,18.26c.11-.71.22-1.41.32-2.12,0-.22.1-.35.34-.38a1.32,1.32,0,0,0,.7-.25.45.45,0,0,1,.65.09c.62.63.63.62.3,1.43-.25.6-.47,1.2-.7,1.79C150.55,18.74,150.08,18.36,149.51,18.26Z" transform="translate(-3.91)"/><path class="cls-3" d="M152.3,19.57c.4-.84.8-1.68,1.19-2.53.07-.13.13-.19.27-.16a.36.36,0,0,0,.17,0c.71-.13,1,.25,1.13.88a.45.45,0,0,1-.15.52c-.64.55-1.27,1.12-1.9,1.68C152.72,20,152.53,19.71,152.3,19.57Z" transform="translate(-3.91)"/><path class="cls-1" d="M157.26,9.83a5.59,5.59,0,0,1,1.3-2.55,9,9,0,0,1,2-2l.26-.17c.13-.09.29-.16.4,0s0,.3,0,.42A7.9,7.9,0,0,1,160.06,7,15.35,15.35,0,0,0,158,9.89a6.91,6.91,0,0,1-.44.62c-.07.08-.17.2-.3.13a.27.27,0,0,1-.09-.28A4.89,4.89,0,0,1,157.26,9.83Z" transform="translate(-3.91)"/><path class="cls-1" d="M151.38,6.68a11.39,11.39,0,0,1,1.73-4c.15-.22.38-.56.65-.41s.05.5,0,.73c-.23.64-.49,1.28-.77,1.9a14.58,14.58,0,0,0-.91,3c-.07.3-.11.81-.43.79s-.32-.55-.33-.87A2.82,2.82,0,0,1,151.38,6.68Z" transform="translate(-3.91)"/><path class="cls-1" d="M164.31,8.05a7.43,7.43,0,0,1-1,1.95,9.18,9.18,0,0,1-1.79,2.14,2.41,2.41,0,0,1-1.08.6c-.11,0-.25.1-.33,0a.33.33,0,0,1,.08-.37c.41-.47.79-1,1.23-1.41a29.56,29.56,0,0,0,1.92-2.67c.18-.22.34-.46.52-.67s.17-.33.38-.23.12.28.1.44S164.34,7.88,164.31,8.05Z" transform="translate(-3.91)"/></g></g></svg>